<?xml version="1.0" encoding="UTF-8"?>
<svg version="1.1" xmlns="http://www.w3.org/2000/svg" width="120" height="90">
<path d="M0 0 C39.6 0 79.2 0 120 0 C120 29.7 120 59.4 120 90 C80.4 90 40.8 90 0 90 C0 60.3 0 30.6 0 0 Z " fill="#FEFEFE" transform="translate(0,0)"/>
<path d="M0 0 C6.6752034 -0.02526945 13.35039457 -0.04283268 20.02563477 -0.05493164 C22.29842591 -0.05997325 24.5712138 -0.06680637 26.84399414 -0.07543945 C30.10303551 -0.08751261 33.36203417 -0.09322987 36.62109375 -0.09765625 C37.64400009 -0.10281754 38.66690643 -0.10797882 39.72080994 -0.11329651 C40.66170975 -0.11337204 41.60260956 -0.11344757 42.57202148 -0.11352539 C43.40475082 -0.115746 44.23748016 -0.11796661 45.09544373 -0.12025452 C47 0 47 0 48 1 C48.09304018 2.47354348 48.11746265 3.95150591 48.11352539 5.42797852 C48.11344986 6.36887833 48.11337433 7.30977814 48.11329651 8.27919006 C48.10813522 9.30209641 48.10297394 10.32500275 48.09765625 11.37890625 C48.0962413 12.42070541 48.09482635 13.46250458 48.09336853 14.53587341 C48.0877508 17.87811094 48.0751953 21.22028257 48.0625 24.5625 C48.05748728 26.82226466 48.05292398 29.08203037 48.04882812 31.34179688 C48.03777561 36.89455391 48.02102024 42.44727225 48 48 C41.3247966 48.02526945 34.64960543 48.04283268 27.97436523 48.05493164 C25.70157409 48.05997325 23.4287862 48.06680637 21.15600586 48.07543945 C17.89696449 48.08751261 14.63796583 48.09322987 11.37890625 48.09765625 C10.35599991 48.10281754 9.33309357 48.10797882 8.27919006 48.11329651 C7.33829025 48.11337204 6.39739044 48.11344757 5.42797852 48.11352539 C4.59524918 48.115746 3.76251984 48.11796661 2.90455627 48.12025452 C1 48 1 48 0 47 C-0.09304018 45.52645652 -0.11746265 44.04849409 -0.11352539 42.57202148 C-0.11344986 41.63112167 -0.11337433 40.69022186 -0.11329651 39.72080994 C-0.10813522 38.69790359 -0.10297394 37.67499725 -0.09765625 36.62109375 C-0.0962413 35.57929459 -0.09482635 34.53749542 -0.09336853 33.46412659 C-0.0877508 30.12188906 -0.0751953 26.77971743 -0.0625 23.4375 C-0.05748728 21.17773534 -0.05292398 18.91796963 -0.04882812 16.65820312 C-0.03777561 11.10544609 -0.02102024 5.55272775 0 0 Z " fill="#0B0B0B" transform="translate(9,20)"/>
<path d="M0 0 C15.84 0 31.68 0 48 0 C48.020625 6.249375 48.04125 12.49875 48.0625 18.9375 C48.071604 20.91226318 48.08070801 22.88702637 48.09008789 24.92163086 C48.09300705 26.47770113 48.09555561 28.03377216 48.09765625 29.58984375 C48.10277222 30.40521606 48.10788818 31.22058838 48.11315918 32.06066895 C48.1134694 34.04080523 48.06238096 36.02084654 48 38 C47 39 47 39 43.67358398 39.11352539 C42.19774444 39.11336629 40.72189931 39.10767314 39.24609375 39.09765625 C38.47064713 39.0962413 37.6952005 39.09482635 36.89625549 39.09336853 C34.40996506 39.08775345 31.9237634 39.07519846 29.4375 39.0625 C27.75586067 39.05748694 26.07421994 39.0529237 24.39257812 39.04882812 C20.26168434 39.03777913 16.13085724 39.02050445 12 39 C12.020625 40.299375 12.04125 41.59875 12.0625 42.9375 C12.08399454 44.29165633 12.07148199 45.64756083 12 47 C11.505 47.495 11.505 47.495 11 48 C7.37 48 3.74 48 0 48 C0 32.16 0 16.32 0 0 Z " fill="#040404" transform="translate(63,20)"/>
<path d="M0 0 C7.92 0 15.84 0 24 0 C24 7.59 24 15.18 24 23 C16.08 23 8.16 23 0 23 C0 15.41 0 7.82 0 0 Z " fill="#FCFCFC" transform="translate(21,32)"/>
<path d="M0 0 C8.25 0 16.5 0 25 0 C25 5.28 25 10.56 25 16 C16.75 16 8.5 16 0 16 C0 10.72 0 5.44 0 0 Z " fill="#FFFFFF" transform="translate(74,31)"/>
<path d="M0 0 C6.6752034 -0.02526945 13.35039457 -0.04283268 20.02563477 -0.05493164 C22.29842591 -0.05997325 24.5712138 -0.06680637 26.84399414 -0.07543945 C30.10303551 -0.08751261 33.36203417 -0.09322987 36.62109375 -0.09765625 C37.64400009 -0.10281754 38.66690643 -0.10797882 39.72080994 -0.11329651 C40.66170975 -0.11337204 41.60260956 -0.11344757 42.57202148 -0.11352539 C43.40475082 -0.115746 44.23748016 -0.11796661 45.09544373 -0.12025452 C47 0 47 0 48 1 C48.09304018 2.47354348 48.11746265 3.95150591 48.11352539 5.42797852 C48.11344986 6.36887833 48.11337433 7.30977814 48.11329651 8.27919006 C48.10813522 9.30209641 48.10297394 10.32500275 48.09765625 11.37890625 C48.0962413 12.42070541 48.09482635 13.46250458 48.09336853 14.53587341 C48.0877508 17.87811094 48.0751953 21.22028257 48.0625 24.5625 C48.05748728 26.82226466 48.05292398 29.08203037 48.04882812 31.34179688 C48.03777561 36.89455391 48.02102024 42.44727225 48 48 C41.3247966 48.02526945 34.64960543 48.04283268 27.97436523 48.05493164 C25.70157409 48.05997325 23.4287862 48.06680637 21.15600586 48.07543945 C17.89696449 48.08751261 14.63796583 48.09322987 11.37890625 48.09765625 C10.35599991 48.10281754 9.33309357 48.10797882 8.27919006 48.11329651 C7.33829025 48.11337204 6.39739044 48.11344757 5.42797852 48.11352539 C4.59524918 48.115746 3.76251984 48.11796661 2.90455627 48.12025452 C1 48 1 48 0 47 C-0.09304018 45.52645652 -0.11746265 44.04849409 -0.11352539 42.57202148 C-0.11344986 41.63112167 -0.11337433 40.69022186 -0.11329651 39.72080994 C-0.10813522 38.69790359 -0.10297394 37.67499725 -0.09765625 36.62109375 C-0.0962413 35.57929459 -0.09482635 34.53749542 -0.09336853 33.46412659 C-0.0877508 30.12188906 -0.0751953 26.77971743 -0.0625 23.4375 C-0.05748728 21.17773534 -0.05292398 18.91796963 -0.04882812 16.65820312 C-0.03777561 11.10544609 -0.02102024 5.55272775 0 0 Z M2 2 C2 16.52 2 31.04 2 46 C16.52 46 31.04 46 46 46 C46 31.48 46 16.96 46 2 C31.48 2 16.96 2 2 2 Z " fill="#555555" transform="translate(9,20)"/>
<path d="M0 0 C15.84 0 31.68 0 48 0 C48.020625 6.249375 48.04125 12.49875 48.0625 18.9375 C48.071604 20.91226318 48.08070801 22.88702637 48.09008789 24.92163086 C48.09300705 26.47770113 48.09555561 28.03377216 48.09765625 29.58984375 C48.10277222 30.40521606 48.10788818 31.22058838 48.11315918 32.06066895 C48.1134694 34.04080523 48.06238096 36.02084654 48 38 C47 39 47 39 43.67358398 39.11352539 C42.19774444 39.11336629 40.72189931 39.10767314 39.24609375 39.09765625 C38.47064713 39.0962413 37.6952005 39.09482635 36.89625549 39.09336853 C34.40996506 39.08775345 31.9237634 39.07519846 29.4375 39.0625 C27.75586067 39.05748694 26.07421994 39.0529237 24.39257812 39.04882812 C20.26168434 39.03777913 16.13085724 39.02050445 12 39 C12.020625 40.299375 12.04125 41.59875 12.0625 42.9375 C12.08399454 44.29165633 12.07148199 45.64756083 12 47 C11.505 47.495 11.505 47.495 11 48 C7.37 48 3.74 48 0 48 C0 32.16 0 16.32 0 0 Z M1 1 C1 16.18 1 31.36 1 47 C4.3 47 7.6 47 11 47 C11.33 44.03 11.66 41.06 12 38 C23.22 37.67 34.44 37.34 46 37 C46 25.12 46 13.24 46 1 C31.15 1 16.3 1 1 1 Z " fill="#696969" transform="translate(63,20)"/>
<path d="M0 0 C8.25 0 16.5 0 25 0 C25 5.28 25 10.56 25 16 C16.75 16 8.5 16 0 16 C0 10.72 0 5.44 0 0 Z M2 2 C2 6.29 2 10.58 2 15 C9.26 15 16.52 15 24 15 C24 10.71 24 6.42 24 2 C16.74 2 9.48 2 2 2 Z " fill="#BDBDBD" transform="translate(74,31)"/>
</svg>
