<?xml version="1.0" encoding="UTF-8"?>
<svg version="1.1" xmlns="http://www.w3.org/2000/svg" width="2048" height="2049">
<path d="M0 0 C1.86296614 -0.0070215 3.72593204 -0.01410832 5.58889771 -0.02125549 C11.51239364 -0.04066359 17.43585048 -0.04568967 23.359375 -0.046875 C24.36816963 -0.04731686 25.37696426 -0.04775871 26.41632843 -0.04821396 C56.74547781 -0.05518299 86.90361524 0.18549341 117.109375 3.203125 C118.00553528 3.29033813 118.90169556 3.37755127 119.82501221 3.46740723 C159.23752608 7.30937472 198.35183658 13.07659996 237.109375 21.203125 C238.39473145 21.47205566 239.68008789 21.74098633 241.00439453 22.01806641 C275.43270999 29.31806586 309.47492637 38.41490108 342.88598633 49.46807861 C345.17230278 50.22392876 347.46011145 50.97514036 349.74804688 51.72607422 C372.90155974 59.34596822 395.61706099 67.81206395 418.109375 77.203125 C418.74796448 77.46891357 419.38655396 77.73470215 420.04449463 78.00854492 C491.25180271 107.67307615 558.21539269 145.59986769 621.109375 190.203125 C621.88313477 190.7511377 622.65689453 191.29915039 623.45410156 191.86376953 C639.91720002 203.55235864 655.75741578 215.98226691 671.36962891 228.77929688 C672.92885827 230.05538804 674.493386 231.32499881 676.05859375 232.59375 C686.52971322 241.09293602 696.74212934 249.87165181 706.6796875 258.98828125 C708.71452915 260.84319317 710.77258747 262.65741298 712.859375 264.453125 C722.49087027 272.84375278 731.70254006 281.69926236 740.6730957 290.78833008 C744.05454069 294.19931194 747.55453083 297.38288846 751.22241211 300.48608398 C753.09691145 302.1917838 754.70065861 303.96810852 756.3359375 305.90234375 C760.06296815 310.21465552 764.04212749 314.21379411 768.109375 318.203125 C772.7543063 322.75907294 777.21922704 327.37895779 781.46582031 332.31005859 C783.89976824 335.1135096 786.44468283 337.80835846 788.984375 340.515625 C793.52286024 345.38898049 797.80286297 350.40616477 801.97265625 355.6015625 C804.06819994 358.15299229 806.24900655 360.58639273 808.484375 363.015625 C812.46199185 367.38549819 816.11814094 371.93922036 819.73730469 376.60424805 C823.33403439 381.23705993 827.01834988 385.79064 830.734375 390.328125 C836.03635739 396.82683174 841.17007025 403.42303711 846.109375 410.203125 C846.58842285 410.86006348 847.0674707 411.51700195 847.56103516 412.19384766 C859.05564431 427.98416873 870.40568791 443.86372123 881.109375 460.203125 C881.53541016 460.8518457 881.96144531 461.50056641 882.40039062 462.16894531 C900.68270617 490.05286214 917.46474747 518.76033885 933.109375 548.203125 C933.64272461 549.20134277 934.17607422 550.19956055 934.72558594 551.22802734 C943.46340269 567.61471371 951.46525219 584.28050123 959.109375 601.203125 C959.58616699 602.25467773 960.06295898 603.30623047 960.55419922 604.38964844 C985.11332735 658.73434849 1004.62236309 715.37039083 1019.109375 773.203125 C1019.2952417 773.94119385 1019.4811084 774.6792627 1019.67260742 775.43969727 C1033.38167229 829.95231291 1042.22237994 885.56913768 1046.796875 941.578125 C1046.88828262 942.69252457 1046.88828262 942.69252457 1046.98153687 943.82943726 C1048.47605401 962.28632554 1049.26918451 980.70968689 1049.3125 999.2265625 C1049.31948024 1001.09118166 1049.32652119 1002.95580059 1049.33361816 1004.82041931 C1049.35287568 1010.7396576 1049.35779309 1016.65885879 1049.359375 1022.578125 C1049.35996414 1023.58535488 1049.36055328 1024.59258476 1049.36116028 1025.63033676 C1049.37320767 1054.79841129 1049.21812201 1083.83377409 1046.33721924 1112.88702393 C1046.1059895 1115.23753956 1045.88724674 1117.58894445 1045.67138672 1119.94091797 C1044.67315937 1130.71942551 1043.46695082 1141.46421678 1042.109375 1152.203125 C1042.00838501 1153.00609009 1041.90739502 1153.80905518 1041.80334473 1154.63635254 C1036.31336944 1198.01633214 1027.94620554 1240.84675914 1017.109375 1283.203125 C1016.9161969 1283.95992554 1016.7230188 1284.71672607 1016.52398682 1285.49645996 C1000.7961355 1346.86141339 978.3816678 1406.13607356 951.42773438 1463.39892578 C950.18270143 1466.04715697 948.94915291 1468.70041589 947.71875 1471.35546875 C942.94486345 1481.61159176 937.84457038 1491.66119214 932.49121094 1501.62646484 C931.03512571 1504.34157499 929.59182334 1507.06327621 928.1484375 1509.78515625 C913.05774241 1538.09734196 896.47411028 1565.7752611 878.40771484 1592.296875 C876.95559025 1594.42891502 875.51128173 1596.5661663 874.06640625 1598.703125 C861.66805466 1616.98690047 848.60096772 1634.71255953 835.109375 1652.203125 C834.58037598 1652.88955078 834.05137695 1653.57597656 833.50634766 1654.28320312 C827.76245075 1661.71805142 821.83769831 1668.96714161 815.734375 1676.109375 C813.27021536 1678.9986382 810.872765 1681.93830958 808.484375 1684.890625 C804.91177826 1689.28326619 801.17587496 1693.48704605 797.359375 1697.66796875 C795.02048079 1700.30328531 792.81221617 1703.01589792 790.609375 1705.765625 C787.12537458 1710.07510287 783.44969224 1714.0119022 779.4453125 1717.83984375 C777.57079345 1719.73630533 775.85747665 1721.64889309 774.13110352 1723.67480469 C769.4658884 1729.02298742 764.4477123 1734.00938785 759.42578125 1739.01953125 C758.40105392 1740.04493424 757.37647489 1741.07048546 756.35203552 1742.09617615 C754.2163707 1744.23330563 752.07893292 1746.36864109 749.94018555 1748.50268555 C747.21929084 1751.21788375 744.5029119 1753.93754833 741.78785801 1756.65858555 C739.67653686 1758.77354575 737.56280825 1760.88608707 735.44837761 1762.99793816 C734.44666409 1763.99899163 733.44567323 1765.00076885 732.445467 1766.00332832 C727.35972926 1771.09840762 722.24870362 1776.09869 716.77398682 1780.77662659 C714.21283201 1782.97142253 711.76492382 1785.27921519 709.296875 1787.578125 C704.59908682 1791.92316803 699.74344248 1796.00921967 694.7578125 1800.0234375 C692.13662381 1802.18069899 689.61783219 1804.416235 687.109375 1806.703125 C681.93390526 1811.40735888 676.5579361 1815.82027987 671.109375 1820.203125 C669.99980717 1821.10523162 668.89044059 1822.00758583 667.78125 1822.91015625 C658.23653177 1830.64510015 648.45020148 1838.03721576 638.58544922 1845.35791016 C636.30376412 1847.05826275 634.03487074 1848.77406104 631.76953125 1850.49609375 C616.95529353 1861.68194351 601.41558528 1871.80442167 585.91912842 1882.00921631 C583.43755197 1883.64633198 580.96312233 1885.29413206 578.48828125 1886.94140625 C565.00219208 1895.87138421 551.09314589 1904.08405032 537.109375 1912.203125 C536.11502441 1912.78094727 535.12067383 1913.35876953 534.09619141 1913.95410156 C518.69095062 1922.87003191 502.96847369 1931.12675664 487.109375 1939.203125 C486.3354541 1939.59838379 485.5615332 1939.99364258 484.76416016 1940.40087891 C480.95223299 1942.3437674 477.12617662 1944.25499613 473.28369141 1946.13671875 C471.70346338 1946.91175086 470.12527794 1947.69095195 468.54833984 1948.47265625 C386.37667802 1989.13610277 297.33414703 2016.72957261 123.671875 2044.515625 C122.55162933 2044.62893661 122.55162933 2044.62893661 121.40875244 2044.74453735 C115.64832677 2045.31707931 109.88274066 2045.78202665 104.109375 2046.203125 C102.93410248 2046.28926056 101.75882996 2046.37539612 100.54794312 2046.46414185 C76.42919344 2048.17020834 52.36970315 2048.5682881 28.19587708 2048.52118301 C25.24911443 2048.51553343 22.30235757 2048.51271887 19.35559082 2048.51010132 C-8.28866963 2048.47441361 -35.81689134 2048.21049888 -63.3480835 2045.45635986 C-66.02117253 2045.19012258 -68.69524427 2044.93597752 -71.36962891 2044.68310547 C-163.18893291 2035.89862164 -253.80089204 2015.26012627 -390.03320312 1961.50976562 C-392.96391818 1960.16960953 -395.90325709 1958.84979679 -398.84375 1957.53125 C-425.5662596 1945.46213301 -452.02601056 1932.49246846 -477.34326172 1917.68408203 C-479.95257417 1916.1671097 -482.57674957 1914.67950339 -485.20703125 1913.19921875 C-504.62071058 1902.26442151 -523.28825077 1890.36008223 -541.828125 1878.015625 C-542.66583435 1877.45840759 -543.5035437 1876.90119019 -544.36663818 1876.3270874 C-554.67393637 1869.46338048 -564.87195542 1862.48204439 -574.890625 1855.203125 C-575.76066162 1854.57269287 -576.63069824 1853.94226074 -577.52709961 1853.29272461 C-587.24330297 1846.22522426 -596.82434897 1839.0118098 -606.22119141 1831.52539062 C-607.92938793 1830.17242304 -609.64836644 1828.83440567 -611.37109375 1827.5 C-618.01441398 1822.34557266 -624.49458516 1817.05010501 -630.84936523 1811.54321289 C-634.33180073 1808.52686464 -637.85996209 1805.58807029 -641.453125 1802.703125 C-646.82148292 1798.34826238 -651.85996782 1793.68286068 -656.91015625 1788.96875 C-659.15661189 1786.87401576 -661.43535928 1784.82982831 -663.765625 1782.828125 C-677.09665399 1771.24707989 -689.54479742 1758.70931922 -702.00927734 1746.21484375 C-704.42718113 1743.79118672 -706.84962849 1741.37212805 -709.27337646 1738.95431709 C-711.62740378 1736.60479745 -713.97758779 1734.2514488 -716.328125 1731.8984375 C-717.1855127 1731.04307404 -718.04290039 1730.18771057 -718.92626953 1729.306427 C-723.24815227 1724.96776577 -727.43169696 1720.56757953 -731.41784668 1715.91744995 C-733.67854451 1713.28598081 -736.03639341 1710.75123449 -738.390625 1708.203125 C-749.68025893 1695.93120101 -760.40106719 1683.16286061 -770.890625 1670.203125 C-771.3242334 1669.67058105 -771.7578418 1669.13803711 -772.20458984 1668.58935547 C-780.40825671 1658.50610332 -788.2580459 1648.17732022 -796.00585938 1637.74072266 C-797.83286801 1635.28088746 -799.66610997 1632.82580065 -801.5 1630.37109375 C-831.91233589 1589.53671826 -858.51395627 1545.97763877 -882.38037109 1501.04003906 C-883.70330256 1498.55499806 -885.03745771 1496.0766373 -886.37890625 1493.6015625 C-925.76730632 1420.67087527 -953.55529915 1340.34497893 -999.28173828 1029.97363281 C-999.26464819 1025.16500959 -999.27485164 1020.35688516 -999.29206085 1015.54827881 C-999.39852722 980.33520233 -997.6410977 945.2003769 -993.640625 910.203125 C-993.53835602 909.28561462 -993.43608704 908.36810425 -993.33071899 907.42279053 C-985.93345701 841.41033602 -972.42373539 775.57240609 -951.62963867 712.44696045 C-950.848982 710.07668615 -950.07392909 707.70461592 -949.29882812 705.33251953 C-941.07725668 680.2552961 -931.96113245 655.59600697 -921.890625 631.203125 C-921.61881409 630.54411194 -921.34700317 629.88509888 -921.06695557 629.20611572 C-892.0151779 558.95322965 -854.66833149 492.09691279 -810.39697266 430.30664062 C-808.8418046 428.13495052 -807.29399683 425.95812262 -805.74609375 423.78125 C-794.51265771 408.04283582 -782.56990765 392.8943691 -770.31445312 377.94287109 C-769.03836196 376.38364173 -767.76875119 374.819114 -766.5 373.25390625 C-758.00081398 362.78278678 -749.22209819 352.57037066 -740.10546875 342.6328125 C-738.25055683 340.59797085 -736.43633702 338.53991253 -734.640625 336.453125 C-726.24999722 326.82162973 -717.39448764 317.60995994 -708.30541992 308.6394043 C-704.89443806 305.25795931 -701.71086154 301.75796917 -698.60766602 298.09008789 C-696.9019662 296.21558855 -695.12564148 294.61184139 -693.19140625 292.9765625 C-688.87909448 289.24953185 -684.87995589 285.27037251 -680.890625 281.203125 C-676.33467706 276.5581937 -671.71479221 272.09327296 -666.78369141 267.84667969 C-663.9802404 265.41273176 -661.28539154 262.86781717 -658.578125 260.328125 C-653.70476951 255.78963976 -648.68758523 251.50963703 -643.4921875 247.33984375 C-640.94075771 245.24430006 -638.50735727 243.06349345 -636.078125 240.828125 C-631.70825181 236.85050815 -627.15452964 233.19435906 -622.48950195 229.57519531 C-617.85669007 225.97846561 -613.30311 222.29415012 -608.765625 218.578125 C-602.26691826 213.27614261 -595.67071289 208.14242975 -588.890625 203.203125 C-587.90521729 202.48455322 -587.90521729 202.48455322 -586.89990234 201.75146484 C-571.10958127 190.25685569 -555.23002877 178.90681209 -538.890625 168.203125 C-538.2419043 167.77708984 -537.59318359 167.35105469 -536.92480469 166.91210938 C-509.04088786 148.62979383 -480.33341115 131.84775253 -450.890625 116.203125 C-449.89240723 115.66977539 -448.89418945 115.13642578 -447.86572266 114.58691406 C-431.48183795 105.85059123 -414.8366818 97.78791668 -397.890625 90.203125 C-396.85424896 89.73876038 -396.85424896 89.73876038 -395.79693604 89.26501465 C-317.77646074 54.36512507 -235.85698962 29.01262032 0 0 Z " fill="#0866FF" transform="translate(998.890625,-0.203125)"/>
<path d="M0 0 C2.14956637 0.18528004 4.29956223 0.3636271 6.44995117 0.5390625 C15.42032728 1.283149 24.36646536 2.19629637 33.3112793 3.19921875 C34.19559631 3.29783203 35.07991333 3.39644531 35.99102783 3.49804688 C125.11158284 13.4659866 125.11158284 13.4659866 151.3112793 22.19921875 C151.3112793 115.91921875 151.3112793 209.63921875 151.3112793 306.19921875 C131.3112793 305.19921875 131.3112793 305.19921875 125.43650818 304.88995361 C111.61310532 304.18002666 97.81127265 304.01926134 83.97143555 303.99609375 C82.80568937 303.99326637 81.6399432 303.990439 80.43887138 303.98752594 C74.26930402 303.9726744 68.09975919 303.96335665 61.93017578 303.95898438 C56.90861735 303.95460355 51.88723109 303.94070679 46.86572266 303.91796875 C-22.2073621 303.61149912 -96.33738864 307.15849027 -148.6887207 358.19921875 C-166.02395795 375.47808124 -177.10001853 398.19799754 -184.6887207 421.19921875 C-184.91897949 421.8756543 -185.14923828 422.55208984 -185.38647461 423.24902344 C-207.96240969 490.19834816 -199.21364594 579.4893501 -199.6887207 642.19921875 C-89.4687207 642.19921875 20.7512793 642.19921875 134.3112793 642.19921875 C134.3112793 650.07351838 134.3112793 650.07351838 133.67211914 653.32568359 C133.53107254 654.06087723 133.39002594 654.79607086 133.2447052 655.55354309 C133.08878403 656.33122543 132.93286285 657.10890778 132.7722168 657.91015625 C132.61109909 658.74193893 132.44998138 659.57372162 132.28398132 660.43070984 C131.93756675 662.21583561 131.58827261 664.00040457 131.23635864 665.78445435 C130.48648728 669.5874774 129.75124359 673.39328186 129.01545715 677.1990509 C128.64191789 679.13113403 128.26771992 681.06308993 127.89286804 682.99491882 C126.32725719 691.07364055 124.83209656 699.16295148 123.3737793 707.26171875 C122.89214584 709.92971241 122.41039651 712.59768486 121.9284668 715.265625 C121.74115746 716.30333038 121.74115746 716.30333038 121.55006409 717.36199951 C119.72186384 727.47846298 117.85776559 737.58837754 115.9987793 747.69921875 C115.61213235 749.80281399 115.22549503 751.90641101 114.83886719 754.01000977 C114.05423481 758.27883011 113.26946327 762.54762484 112.48461914 766.81640625 C110.77879889 776.09499444 109.07482553 785.37392181 107.37075806 794.65283203 C106.43434509 799.75164229 105.49780563 804.85042931 104.5612793 809.94921875 C104.18627869 811.99088531 103.81127869 814.03255197 103.4362793 816.07421875 C102.6862793 820.15755208 101.9362793 824.24088542 101.1862793 828.32421875 C101.0006694 829.33476822 100.81505951 830.34531769 100.62382507 831.38648987 C100.24868212 833.42892124 99.87352953 835.47135085 99.49836731 837.51377869 C98.56297548 842.60623084 97.62774925 847.69871329 96.69287109 852.79125977 C94.98044977 862.11836466 93.26664288 871.44520645 91.54690552 880.77096558 C90.76411545 885.01615383 89.98201223 889.26146836 89.20019531 893.50683594 C88.81852032 895.57929397 88.43668659 897.65172277 88.0546875 899.72412109 C86.14774339 910.07515628 84.25704907 920.42822973 82.44799805 930.796875 C82.30590408 931.61022812 82.16381012 932.42358124 82.01741028 933.26158142 C81.36322304 937.01242277 80.71438302 940.76407399 80.07421875 944.51733398 C79.85338623 945.79423096 79.63255371 947.07112793 79.4050293 948.38671875 C79.12175781 950.04767578 79.12175781 950.04767578 78.83276367 951.7421875 C78.3112793 954.19921875 78.3112793 954.19921875 77.3112793 955.19921875 C-14.0987207 955.19921875 -105.5087207 955.19921875 -199.6887207 955.19921875 C-199.6887207 1187.51921875 -199.6887207 1419.83921875 -199.6887207 1659.19921875 C-207.69171456 1660.43044857 -215.49917637 1661.5719186 -223.53637695 1662.234375 C-225.00245644 1662.35974892 -225.00245644 1662.35974892 -226.49815369 1662.48765564 C-228.54904325 1662.66197058 -230.60011814 1662.83411797 -232.65136719 1663.00415039 C-235.7209931 1663.25920712 -238.78981675 1663.52261905 -241.85864258 1663.78710938 C-243.87617829 1663.95753404 -245.89375529 1664.12747089 -247.91137695 1664.296875 C-248.79543716 1664.37293472 -249.67949738 1664.44899445 -250.59034729 1664.52735901 C-266.87681526 1665.86206375 -283.15760998 1666.36352892 -299.4934082 1666.40234375 C-301.33519514 1666.40936706 -303.17698184 1666.41645386 -305.01876831 1666.42359924 C-310.86708938 1666.44298298 -316.71537074 1666.44803297 -322.5637207 1666.44921875 C-324.05851707 1666.44988153 -324.05851707 1666.44988153 -325.58351135 1666.45055771 C-354.51774607 1666.45728565 -383.32779923 1666.33535909 -412.1461792 1663.45245361 C-414.81926823 1663.18621633 -417.49333998 1662.93207127 -420.16772461 1662.67919922 C-456.62855987 1659.19093908 -492.77512221 1653.75300155 -528.6887207 1646.57421875 C-529.59968506 1646.39225952 -530.51064941 1646.21030029 -531.44921875 1646.02282715 C-544.60575191 1643.37751274 -557.6264433 1640.3092848 -570.6887207 1637.19921875 C-570.6887207 1412.13921875 -570.6887207 1187.07921875 -570.6887207 955.19921875 C-640.6487207 955.19921875 -710.6087207 955.19921875 -782.6887207 955.19921875 C-782.6887207 851.90921875 -782.6887207 748.61921875 -782.6887207 642.19921875 C-712.7287207 642.19921875 -642.7687207 642.19921875 -570.6887207 642.19921875 C-570.80699652 582.83308776 -570.80699652 582.83308776 -570.95898438 523.46704102 C-570.97253418 511.84558105 -570.97253418 511.84558105 -570.97505188 506.36265564 C-570.97778728 502.62606688 -570.98878137 498.88961298 -571.00544739 495.15306091 C-571.35325594 413.4534476 -561.13252559 330.79237411 -468.23266602 142.03564453 C-466.74449118 140.26555422 -465.27409386 138.4819908 -463.8059082 136.6953125 C-439.57275431 107.50218054 -409.4165918 84.01765813 -376.99975586 64.58740234 C-375.06756207 63.42677971 -373.14787756 62.24920715 -371.23168945 61.0625 C-315.09062423 27.37786086 -247.14222759 11.00749945 -182.6887207 3.19921875 C-181.9972998 3.11520813 -181.30587891 3.03119751 -180.59350586 2.94464111 C-120.72298748 -4.28554161 -60.08389099 -5.20113033 0 0 Z " fill="#FEFEFF" transform="translate(1347.688720703125,381.80078125)"/>
</svg>
