<?xml version="1.0" encoding="UTF-8"?>
<svg version="1.1" xmlns="http://www.w3.org/2000/svg" width="512" height="512">
<path d="M0 0 C0.99515625 0.83144531 1.9903125 1.66289062 3.015625 2.51953125 C25.78807359 22.16742197 40.96771567 51.73654843 43.41015625 81.72265625 C45.79850343 116.02916928 36.32745552 147.60876074 14 174 C13.48695313 174.63550781 12.97390625 175.27101563 12.4453125 175.92578125 C-4.13789137 196.13936218 -32.18654424 211.05504586 -57.96875 214.7265625 C-91.68502883 217.76797941 -124.94920661 212.4941934 -152.3125 191.0625 C-153.88701343 189.72232051 -155.4493728 188.36774592 -157 187 C-157.87914062 186.26394531 -158.75828125 185.52789062 -159.6640625 184.76953125 C-183.06712199 164.56379116 -197.1257234 134.45068606 -199.75 103.8125 C-201.86208656 71.04808026 -191.907349 40.16936075 -171 15 C-170.33097656 14.17757812 -169.66195312 13.35515625 -168.97265625 12.5078125 C-163.93519846 6.55351679 -158.18363706 1.72917595 -152 -3 C-151.20851562 -3.60714844 -150.41703125 -4.21429688 -149.6015625 -4.83984375 C-105.31987029 -37.27875781 -42.05144601 -35.13967519 0 0 Z M-107.8125 -6.8125 C-108.48812988 -6.64081299 -109.16375977 -6.46912598 -109.85986328 -6.29223633 C-113.67109921 -5.12430837 -114.879658 -4.21498729 -116.84765625 -0.69921875 C-117.85251581 2.52655076 -118.83033709 5.71655765 -119.625 9 C-119.86476563 9.969375 -120.10453125 10.93875 -120.3515625 11.9375 C-123.98053064 29.07672304 -123.14014151 47.28764719 -118 64 C-117.79101074 64.68497559 -117.58202148 65.36995117 -117.36669922 66.07568359 C-112.32843909 82.00564315 -104.08987482 94.82479759 -92.35009766 106.62646484 C-91.18556461 107.81121401 -90.06299886 109.03694792 -88.94921875 110.26953125 C-73.91115282 126.59565422 -48.4409649 137.05740776 -26.50244141 138.12109375 C-13.99573977 138.55800909 -2.14468712 138.16514808 10 135 C11.00933594 134.77957031 12.01867187 134.55914062 13.05859375 134.33203125 C16.89082391 133.23631377 19.21689803 132.23531579 21.38671875 128.8125 C22.63059054 125.55716269 23.33997991 122.42515686 24 119 C24.15049805 118.23913086 24.30099609 117.47826172 24.45605469 116.69433594 C29.73003874 89.04126082 25.91784865 61.00030107 10.25 37.1875 C-5.78048184 13.77629794 -29.16555834 -2.89999105 -57 -9 C-74.08884913 -12.19374273 -91.0735471 -11.52308425 -107.8125 -6.8125 Z " fill="#000000" transform="translate(334,162)"/>
<path d="M0 0 C2.0625 2.6875 2.0625 2.6875 3 6 C1.98623324 12.86463423 -1.63739565 16.32753821 -6.4921875 21.05078125 C-7.60571091 22.16080757 -7.60571091 22.16080757 -8.74172974 23.29325867 C-10.30780139 24.84961625 -11.87987367 26.39995621 -13.45751953 27.94458008 C-15.87209177 30.30965139 -18.26739317 32.69296415 -20.66015625 35.08007812 C-22.18640907 36.59224772 -23.71371751 38.10335277 -25.2421875 39.61328125 C-25.95897675 40.32470779 -26.67576599 41.03613434 -27.41427612 41.76911926 C-28.08822418 42.42707993 -28.76217224 43.08504059 -29.45654297 43.76293945 C-30.04563446 44.34139114 -30.63472595 44.91984283 -31.2416687 45.51582336 C-34.40706173 48.18767615 -36.31156412 49.0122935 -40.5 48.9375 C-44 48 -44 48 -46.5 45.9375 C-48.1361139 42.7334436 -48.27951228 40.73144023 -47.74084473 37.19647217 C-46.24091401 32.74944575 -42.73164069 29.82383839 -39.421875 26.6328125 C-38.65828674 25.87201385 -37.89469849 25.11121521 -37.10797119 24.32736206 C-35.49538712 22.72750708 -33.87438401 21.13609908 -32.24560547 19.55273438 C-29.754839 17.1297074 -27.29184361 14.68096868 -24.83203125 12.2265625 C-23.25936986 10.67290118 -21.68520066 9.12076431 -20.109375 7.5703125 C-19.37273621 6.84014923 -18.63609741 6.10998596 -17.87713623 5.35769653 C-17.18001526 4.68294281 -16.48289429 4.00818909 -15.76464844 3.31298828 C-15.15699646 2.7197879 -14.54934448 2.12658752 -13.92327881 1.51541138 C-9.10682204 -2.27962518 -5.60385151 -2.49060067 0 0 Z " fill="#000000" transform="translate(426,85)"/>
<path d="M0 0 C2.5 2.125 2.5 2.125 4 5 C4.19495486 8.44420252 3.90020458 10.7493036 1.8449707 13.60473633 C-3.94182404 20.07771227 -9.99746418 26.28885215 -16.10644531 32.45654297 C-17.37419682 33.74096682 -18.63654281 35.03074743 -19.89355469 36.32568359 C-21.72945526 38.21642275 -23.58134156 40.09010699 -25.4375 41.9609375 C-25.99187744 42.53798431 -26.54625488 43.11503113 -27.11743164 43.70956421 C-30.78579188 47.35847185 -33.74752907 49.10151008 -39 50 C-42.3125 49.0625 -42.3125 49.0625 -45 47 C-46.5625 43.6875 -46.5625 43.6875 -47 40 C-44.85570871 34.12054248 -40.73396222 30.31483207 -36.375 26.01171875 C-35.2600415 24.8960125 -35.2600415 24.8960125 -34.12255859 23.75776672 C-32.55600383 22.1935451 -30.98577287 20.63299752 -29.41210938 19.07592773 C-26.99950596 16.68701081 -24.6005937 14.28495498 -22.203125 11.88085938 C-20.67787541 10.36118377 -19.15185993 8.8422764 -17.625 7.32421875 C-16.90618652 6.60449387 -16.18737305 5.88476898 -15.44677734 5.14323425 C-14.77598145 4.48197037 -14.10518555 3.82070648 -13.4140625 3.1394043 C-12.8257666 2.55571579 -12.2374707 1.97202728 -11.63134766 1.37065125 C-7.90771148 -1.75793177 -4.46330721 -1.09625089 0 0 Z " fill="#000000" transform="translate(130,379)"/>
<path d="M0 0 C2.93692566 2.25206757 5.47308728 4.84270121 8.05078125 7.4921875 C8.7907988 8.23453644 9.53081635 8.97688538 10.29325867 9.74172974 C11.84961625 11.30780139 13.39995621 12.87987367 14.94458008 14.45751953 C17.30965139 16.87209177 19.69296415 19.26739317 22.08007812 21.66015625 C23.59224772 23.18640907 25.10335277 24.71371751 26.61328125 26.2421875 C27.32470779 26.95897675 28.03613434 27.67576599 28.76911926 28.41427612 C29.42707993 29.08822418 30.08504059 29.76217224 30.76293945 30.45654297 C31.63061699 31.34018021 31.63061699 31.34018021 32.51582336 32.2416687 C35.18767615 35.40706173 36.0122935 37.31156412 35.9375 41.5 C35 45 35 45 32.875 47.5 C30 49 30 49 26.6875 49.1875 C17.24406117 46.14639258 9.50058462 35.78445801 2.54345703 28.89355469 C1.25903318 27.62580318 -0.03074743 26.36345719 -1.32568359 25.10644531 C-3.21642275 23.27054474 -5.09010699 21.41865844 -6.9609375 19.5625 C-7.53798431 19.00812256 -8.11503113 18.45374512 -8.70956421 17.88256836 C-12.35624769 14.21644414 -14.11385547 11.253071 -15 6 C-13.83966553 2.38248667 -12.91972312 0.61314875 -9.75 -1.5 C-6.0712986 -2.1688548 -3.32822505 -1.56833869 0 0 Z " fill="#000000" transform="translate(98,85)"/>
<path d="M0 0 C9.44343883 3.04110742 17.18691538 13.40304199 24.14404297 20.29394531 C25.42846682 21.56169682 26.71824743 22.82404281 28.01318359 24.08105469 C29.90392275 25.91695526 31.77760699 27.76884156 33.6484375 29.625 C34.22548431 30.17937744 34.80253113 30.73375488 35.39706421 31.30493164 C39.04485889 34.97217298 40.79518181 37.93472542 41.6875 43.1875 C40.48622035 47.16673885 39.56180032 48.69073845 35.9375 50.75 C31.805298 51.30625796 29.18824412 50.25131161 25.6875 48.1875 C22.88363989 45.91580583 20.37849286 43.39279624 17.85546875 40.81640625 C17.13764725 40.0976683 16.41982574 39.37893036 15.68025208 38.63841248 C14.1721256 37.12426799 12.66883846 35.60528963 11.17016602 34.08178711 C8.87553515 31.75054369 6.56520077 29.43580364 4.25195312 27.12304688 C2.78550956 25.64677518 1.31998248 24.16959243 -0.14453125 22.69140625 C-0.83408401 21.99962784 -1.52363678 21.30784943 -2.23408508 20.59510803 C-2.87202499 19.94440842 -3.5099649 19.2937088 -4.16723633 18.62329102 C-5.00826653 17.77082542 -5.00826653 17.77082542 -5.86628723 16.90113831 C-8.5184848 13.75851127 -9.32423389 11.84459783 -9.25 7.6875 C-8.3125 4.1875 -8.3125 4.1875 -6.1875 1.6875 C-3.3125 0.1875 -3.3125 0.1875 0 0 Z " fill="#000000" transform="translate(387.3125,377.8125)"/>
<path d="M0 0 C2.9825233 3.0130244 3.38053485 5.27768635 3.40405273 9.43945312 C3.41673691 10.52738159 3.42942108 11.61531006 3.44248962 12.73620605 C3.43955399 13.90607056 3.43661835 15.07593506 3.43359375 16.28125 C3.4388356 17.48688599 3.44407745 18.69252197 3.44947815 19.93469238 C3.45590062 22.48330922 3.4545585 25.03195569 3.44604492 27.58056641 C3.43753219 31.48523567 3.46630077 35.38844394 3.49804688 39.29296875 C3.49965884 41.76822873 3.49908144 44.2434913 3.49609375 46.71875 C3.51294472 48.47354675 3.51294472 48.47354675 3.53013611 50.26379395 C3.51606468 51.89568665 3.51606468 51.89568665 3.50170898 53.56054688 C3.50154282 54.5166687 3.50137665 55.47279053 3.50120544 56.45788574 C2.85515017 59.73467839 1.56172919 60.92819739 -1 63 C-3 63.53125 -3 63.53125 -5 63.5 C-5.66 63.5103125 -6.32 63.520625 -7 63.53125 C-9.91638833 62.75658435 -11.09368996 61.3067061 -13 59 C-13.50120544 56.45788574 -13.50120544 56.45788574 -13.50170898 53.56054688 C-13.51108994 52.47261841 -13.52047089 51.38468994 -13.53013611 50.26379395 C-13.51890213 49.09392944 -13.50766815 47.92406494 -13.49609375 46.71875 C-13.49754898 45.51311401 -13.49900421 44.30747803 -13.50050354 43.06530762 C-13.49884378 40.51665836 -13.48727409 37.96799916 -13.46655273 35.41943359 C-13.4376102 31.51486707 -13.44594106 27.61165877 -13.45898438 23.70703125 C-13.45274675 21.23176422 -13.44435562 18.75650149 -13.43359375 16.28125 C-13.43652939 15.1113855 -13.43946503 13.941521 -13.44248962 12.73620605 C-13.42980545 11.64827759 -13.41712128 10.56034912 -13.40405273 9.43945312 C-13.39594826 8.00527039 -13.39594826 8.00527039 -13.38768005 6.54211426 C-12.92928095 3.53627766 -12.09916142 2.17529521 -10 0 C-6.20519658 -1.26493447 -3.87641726 -0.89988258 0 0 Z " fill="#000000" transform="translate(261,433)"/>
<path d="M0 0 C1.08807953 -0.01283524 2.17615906 -0.02567047 3.29721069 -0.03889465 C5.0674913 -0.04997505 5.0674913 -0.04997505 6.87353516 -0.0612793 C8.68623398 -0.07338692 8.68623398 -0.07338692 10.53555298 -0.08573914 C13.09611573 -0.099588 15.65669701 -0.11030655 18.21728516 -0.11816406 C22.13951394 -0.13539663 26.0609044 -0.17927966 29.98291016 -0.22338867 C32.46727894 -0.23351346 34.95165491 -0.24203023 37.43603516 -0.2487793 C38.61217377 -0.26628738 39.78831238 -0.28379547 41.00009155 -0.30183411 C42.64166733 -0.29744576 42.64166733 -0.29744576 44.31640625 -0.29296875 C45.27856049 -0.29883499 46.24071472 -0.30470123 47.23202515 -0.31074524 C50.52634012 0.31799563 51.71032082 1.60305508 53.78759766 4.17700195 C54.31884766 6.17700195 54.31884766 6.17700195 54.28759766 8.17700195 C54.30306641 9.16700195 54.30306641 9.16700195 54.31884766 10.17700195 C53.54418201 13.09339028 52.09430375 14.27069191 49.78759766 16.17700195 C47.2454834 16.6782074 47.2454834 16.6782074 44.34814453 16.67871094 C42.71625183 16.69278236 42.71625183 16.69278236 41.0513916 16.70713806 C39.29659485 16.69028709 39.29659485 16.69028709 37.50634766 16.6730957 C36.30071167 16.67455093 35.09507568 16.67600616 33.85290527 16.67750549 C31.30425601 16.67584573 28.75559681 16.66427604 26.20703125 16.64355469 C22.30246472 16.61461216 18.39925643 16.62294301 14.49462891 16.63598633 C12.01936188 16.6297487 9.54409915 16.62135758 7.06884766 16.6105957 C5.89898315 16.61353134 4.72911865 16.61646698 3.52380371 16.61949158 C2.43587524 16.6068074 1.34794678 16.59412323 0.22705078 16.58105469 C-0.72907104 16.5756517 -1.68519287 16.57024872 -2.67028809 16.56468201 C-5.68477139 16.10496426 -7.04594767 15.30192868 -9.21240234 13.17700195 C-10.31613613 9.20356034 -10.62783817 7.08700424 -8.89990234 3.30200195 C-6.18010784 -0.12292445 -4.19960108 0.04303908 0 0 Z " fill="#000000" transform="translate(442.21240234375,247.822998046875)"/>
<path d="M0 0 C1.6318927 -0.01407143 1.6318927 -0.01407143 3.29675293 -0.02842712 C5.05154968 -0.01157616 5.05154968 -0.01157616 6.84179688 0.00561523 C8.04743286 0.00416 9.25306885 0.00270477 10.49523926 0.00120544 C13.04388852 0.0028652 15.59254772 0.0144349 18.14111328 0.03515625 C22.04567981 0.06409878 25.94888811 0.05576793 29.85351562 0.04272461 C32.32878265 0.04896224 34.80404538 0.05735336 37.27929688 0.06811523 C38.44916138 0.0651796 39.61902588 0.06224396 40.82434082 0.05921936 C41.91226929 0.07190353 43.00019775 0.08458771 44.12109375 0.09765625 C45.07721558 0.10305923 46.0333374 0.10846222 47.01843262 0.11402893 C50.03291592 0.57374668 51.3940922 1.37678226 53.56054688 3.50170898 C54.66428066 7.4751506 54.9759827 9.5917067 53.24804688 13.37670898 C51.56054688 15.50170898 51.56054688 15.50170898 49.56054688 16.50170898 C47.82562111 16.61264495 46.08652217 16.6608954 44.34814453 16.67871094 C43.260065 16.69154617 42.17198547 16.70438141 41.05093384 16.71760559 C39.87074677 16.72499252 38.69055969 16.73237946 37.47460938 16.73999023 C36.26614349 16.74806198 35.05767761 16.75613373 33.81259155 16.76445007 C31.2520288 16.77829894 28.69144752 16.78901748 26.13085938 16.796875 C22.20863059 16.81410756 18.28724013 16.8579906 14.36523438 16.90209961 C11.88086559 16.9122244 9.39648962 16.92074117 6.91210938 16.92749023 C5.73597076 16.94499832 4.55983215 16.96250641 3.34805298 16.98054504 C1.7064772 16.97615669 1.7064772 16.97615669 0.03173828 16.97167969 C-0.93041595 16.97754593 -1.89257019 16.98341217 -2.88388062 16.98945618 C-6.17819559 16.36071531 -7.36217628 15.07565586 -9.43945312 12.50170898 C-9.97070312 10.50170898 -9.97070312 10.50170898 -9.93945312 8.50170898 C-9.95492188 7.51170898 -9.95492188 7.51170898 -9.97070312 6.50170898 C-8.59794178 1.33366628 -4.92339668 0.00085566 0 0 Z " fill="#000000" transform="translate(25.439453125,247.498291015625)"/>
<path d="M0 0 C0.66 -0.0103125 1.32 -0.020625 2 -0.03125 C4.91638833 0.74341565 6.09368996 2.1932939 8 4.5 C8.50120544 7.04211426 8.50120544 7.04211426 8.50170898 9.93945312 C8.51108994 11.02738159 8.52047089 12.11531006 8.53013611 13.23620605 C8.51890213 14.40607056 8.50766815 15.57593506 8.49609375 16.78125 C8.49754898 17.98688599 8.49900421 19.19252197 8.50050354 20.43469238 C8.49884378 22.98334164 8.48727409 25.53200084 8.46655273 28.08056641 C8.4376102 31.98513293 8.44594106 35.88834123 8.45898438 39.79296875 C8.45274675 42.26823578 8.44435562 44.74349851 8.43359375 47.21875 C8.43652939 48.3886145 8.43946503 49.558479 8.44248962 50.76379395 C8.42346336 52.39568665 8.42346336 52.39568665 8.40405273 54.06054688 C8.39864975 55.0166687 8.39324677 55.97279053 8.38768005 56.95788574 C7.9279623 59.97236905 7.12492673 61.33354532 5 63.5 C1.02655839 64.60373378 -1.08999772 64.91543583 -4.875 63.1875 C-7 61.5 -7 61.5 -8 59.5 C-8.11093596 57.76507423 -8.15918641 56.0259753 -8.17700195 54.28759766 C-8.18983719 53.19951813 -8.20267242 52.1114386 -8.21589661 50.99038696 C-8.22328354 49.81019989 -8.23067047 48.63001282 -8.23828125 47.4140625 C-8.25038887 45.60136368 -8.25038887 45.60136368 -8.26274109 43.75204468 C-8.27658995 41.19148192 -8.2873085 38.63090065 -8.29516602 36.0703125 C-8.31239858 32.14808372 -8.35628161 28.22669326 -8.40039062 24.3046875 C-8.41051541 21.82031871 -8.41903218 19.33594275 -8.42578125 16.8515625 C-8.44328934 15.67542389 -8.46079742 14.49928528 -8.47883606 13.2875061 C-8.47444771 11.64593033 -8.47444771 11.64593033 -8.4699707 9.97119141 C-8.47583694 9.00903717 -8.48170319 8.04688293 -8.48774719 7.05557251 C-7.61461251 2.48074557 -4.64095101 -0.07251486 0 0 Z " fill="#000000" transform="translate(256,15.5)"/>
</svg>
