<?xml version="1.0" encoding="UTF-8"?>
<svg version="1.1" xmlns="http://www.w3.org/2000/svg" width="500" height="500">
<path d="M0 0 C10.1654334 -0.11394138 20.32762014 -0.08933105 30.49279785 0.02929688 C31.93655792 0.04573242 31.93655792 0.04573242 33.40948486 0.0625 C61.80258061 0.39583338 90.17600331 0.78659313 118.49279785 3.02929688 C119.44380371 3.1026123 120.39480957 3.17592773 121.37463379 3.25146484 C138.9429152 4.6744102 156.04893893 7.29072154 168.6763916 20.70898438 C177.29199226 31.71471942 179.57112333 45.37089482 181.11779785 58.90429688 C181.23896973 59.85820312 181.3601416 60.81210938 181.48498535 61.79492188 C183.67867197 80.34588045 183.70019114 99.12399304 183.68029785 117.77929688 C183.6796936 118.83768768 183.67908936 119.89607849 183.6784668 120.98654175 C183.55296221 202.57140838 183.55296221 202.57140838 164.49279785 222.02929688 C134.10299982 246.99053332 67.1487812 237.61276031 30.49279785 238.02929688 C29.26300201 238.04379883 29.26300201 238.04379883 28.00836182 238.05859375 C18.16854324 238.17107663 8.33235601 238.14517567 -1.50720215 238.02929688 C-2.47379761 238.01833984 -3.44039307 238.00738281 -4.4362793 237.99609375 C-118.33177922 236.67319489 -118.33177922 236.67319489 -135.50720215 222.02929688 C-135.50720215 221.36929688 -135.50720215 220.70929688 -135.50720215 220.02929688 C-136.16720215 220.02929688 -136.82720215 220.02929688 -137.50720215 220.02929688 C-138.9095459 218.45507812 -138.9095459 218.45507812 -140.44470215 216.34179688 C-140.94872559 215.65730469 -141.45274902 214.9728125 -141.9720459 214.26757812 C-149.19637036 203.73440277 -150.72509354 191.92062211 -152.19470215 179.46679688 C-152.31394043 178.47075439 -152.43317871 177.47471191 -152.55603027 176.44848633 C-154.49443157 158.60370965 -154.67425712 140.62936199 -154.63757324 122.69799805 C-154.63221079 119.59679264 -154.63756347 116.49573235 -154.6439209 113.39453125 C-154.65123533 95.09273273 -154.39439193 76.71863996 -152.19470215 58.52929688 C-152.06426514 57.44398682 -151.93382812 56.35867676 -151.79943848 55.24047852 C-150.23822087 43.00561166 -148.4117737 31.91528103 -140.50720215 22.02929688 C-139.99286621 21.29066406 -139.47853027 20.55203125 -138.9486084 19.79101562 C-138.47294434 19.20964844 -137.99728027 18.62828125 -137.50720215 18.02929688 C-136.84720215 18.02929688 -136.18720215 18.02929688 -135.50720215 18.02929688 C-135.50720215 17.36929688 -135.50720215 16.70929688 -135.50720215 16.02929688 C-127.44937461 9.81778007 -119.57529264 6.50295034 -109.50720215 5.02929688 C-107.73022949 4.76052734 -107.73022949 4.76052734 -105.9173584 4.48632812 C-71.00489053 -0.25357443 -35.14483026 0.4106704 0 0 Z M-18.50720215 70.02929688 C-18.50720215 102.36929688 -18.50720215 134.70929688 -18.50720215 168.02929688 C-14.87720215 166.04929687 -11.24720215 164.06929688 -7.50720215 162.02929688 C-5.85720215 161.14242187 -4.20720215 160.25554687 -2.50720215 159.34179688 C8.65190503 153.25211267 19.61488806 146.79348154 30.49279785 140.21679688 C35.39101673 137.25824446 40.33278991 134.41823351 45.37561035 131.71289062 C49.66424463 129.39659818 53.92122852 127.02440658 58.18029785 124.65429688 C58.99603271 124.20062744 59.81176758 123.74695801 60.65222168 123.27954102 C62.59928841 122.19649942 64.54614976 121.11309071 66.49279785 120.02929688 C63.34076271 116.51836664 59.8532778 114.3594766 55.74279785 112.15429688 C54.30289804 111.36332317 52.86417052 110.57021303 51.4263916 109.77539062 C50.63990234 109.34081543 49.85341309 108.90624023 49.04309082 108.45849609 C44.25889205 105.77740289 39.5361032 102.99065387 34.80529785 100.21679688 C26.27177782 95.22217187 17.71324242 90.27563364 9.11999512 85.38452148 C4.73482857 82.88709045 0.35852643 80.37591683 -4.0032959 77.83789062 C-4.88590088 77.32444092 -5.76850586 76.81099121 -6.67785645 76.28198242 C-8.36401395 75.29965403 -10.0491192 74.31551664 -11.73303223 73.3293457 C-12.47835205 72.89517334 -13.22367188 72.46100098 -13.99157715 72.01367188 C-14.64867676 71.62920898 -15.30577637 71.24474609 -15.98278809 70.84863281 C-17.36556601 69.95039243 -17.36556601 69.95039243 -18.50720215 70.02929688 Z " fill="#FD0000" transform="translate(235.5072021484375,130.970703125)"/>
<path d="M0 0 C10.1654334 -0.11394138 20.32762014 -0.08933105 30.49279785 0.02929688 C31.93655792 0.04573242 31.93655792 0.04573242 33.40948486 0.0625 C105.74209054 0.9116808 105.74209054 0.9116808 136.49279785 5.02929688 C136.49279785 5.35929688 136.49279785 5.68929687 136.49279785 6.02929688 C132.18778875 6.05413494 127.88281834 6.07222199 123.57775879 6.08422852 C122.11518629 6.08923733 120.65261874 6.09604626 119.19006348 6.10473633 C117.08002494 6.11695385 114.97005298 6.12255982 112.85998535 6.12695312 C111.59267578 6.13218994 110.32536621 6.13742676 109.01965332 6.14282227 C105.49279785 6.02929688 105.49279785 6.02929688 102.73986816 5.54077148 C97.89578538 4.77773739 93.06951752 4.81154498 88.17248535 4.74804688 C86.52991257 4.72043274 86.52991257 4.72043274 84.85415649 4.69226074 C81.35875658 4.6336979 77.86330762 4.58085733 74.36779785 4.52929688 C70.8937158 4.47758196 67.41969069 4.4244347 63.94570923 4.36633301 C61.78860341 4.3302579 59.63143447 4.29770942 57.47421265 4.26940918 C52.44157562 4.18534199 47.46546242 3.97384731 42.45178223 3.52001953 C36.63370371 2.99855979 30.87066781 2.88428948 25.03186035 2.89648438 C23.99765961 2.89552765 22.96345886 2.89457092 21.8979187 2.89358521 C19.73504576 2.89291071 17.5721707 2.89471345 15.40930176 2.89892578 C12.1050566 2.90431767 8.8009453 2.89893902 5.4967041 2.89257812 C3.38342255 2.89323839 1.27014109 2.89451849 -0.84313965 2.89648438 C-1.82446869 2.89446014 -2.80579773 2.89243591 -3.81686401 2.89035034 C-4.73867462 2.8935025 -5.66048523 2.89665466 -6.61022949 2.89990234 C-7.41342621 2.90069794 -8.21662292 2.90149353 -9.04415894 2.90231323 C-11.59690951 2.98554832 -11.59690951 2.98554832 -14.43792725 3.5302887 C-17.52473478 4.03214736 -20.3877861 4.14964494 -23.51257324 4.14282227 C-24.67332367 4.14274673 -25.8340741 4.1426712 -27.02999878 4.14259338 C-28.26771027 4.1374321 -29.50542175 4.13227081 -30.78063965 4.12695312 C-32.69896103 4.1248307 -32.69896103 4.1248307 -34.65603638 4.12266541 C-38.03931551 4.11802709 -41.42252601 4.10905769 -44.80578613 4.09796143 C-48.26484589 4.08769202 -51.72391276 4.08315599 -55.1829834 4.078125 C-61.95774181 4.06711297 -68.73246802 4.05038751 -75.50720215 4.02929688 C-75.50720215 4.68929687 -75.50720215 5.34929687 -75.50720215 6.02929688 C-86.72720215 6.02929688 -97.94720215 6.02929688 -109.50720215 6.02929688 C-109.50720215 5.69929687 -109.50720215 5.36929688 -109.50720215 5.02929688 C-73.30872792 0.11925852 -36.45212574 0.42594626 0 0 Z " fill="#E85E5D" transform="translate(235.5072021484375,130.970703125)"/>
<path d="M0 0 C1.47583955 0.0001591 2.95168467 0.00585225 4.42749023 0.01586914 C5.20293686 0.01728409 5.97838348 0.01869904 6.77732849 0.02015686 C9.26361893 0.02577194 11.74982059 0.03832693 14.23608398 0.05102539 C15.91772331 0.05603845 17.59936405 0.06060169 19.28100586 0.06469727 C23.41189965 0.07574626 27.54272674 0.09302094 31.67358398 0.11352539 C31.67358398 0.44352539 31.67358398 0.77352539 31.67358398 1.11352539 C-4.02893708 5.9562916 -40.37296911 5.70497203 -76.32641602 6.11352539 C-77.14627991 6.12319336 -77.9661438 6.13286133 -78.81085205 6.14282227 C-106.98238086 6.46486222 -135.162111 5.68448549 -163.32641602 5.11352539 C-163.32641602 4.78352539 -163.32641602 4.45352539 -163.32641602 4.11352539 C-162.60581529 4.10929345 -161.88521456 4.10506151 -161.14277744 4.10070133 C-143.63415624 3.99753664 -126.12557745 3.88892048 -108.61702824 3.77418613 C-100.15013593 3.71883459 -91.68323942 3.66534948 -83.21630859 3.61621094 C-75.83921863 3.57339269 -68.46215994 3.52712076 -61.08511823 3.47664684 C-57.17661385 3.45002681 -53.26811575 3.42517336 -49.35957527 3.40445137 C-45.6849212 3.38491493 -42.01032676 3.36078034 -38.33572578 3.33303452 C-36.3356438 3.31915399 -34.33552941 3.31022455 -32.3354187 3.30140686 C-31.15606247 3.29161804 -29.97670624 3.28182922 -28.76161194 3.27174377 C-27.73012559 3.26529122 -26.69863924 3.25883867 -25.63589573 3.25219059 C-23.36380241 3.3720638 -23.36380241 3.3720638 -22.32641602 2.11352539 C-20.99755528 1.96966435 -19.66193015 1.88676251 -18.32641602 1.83227539 C-17.52204102 1.79489258 -16.71766602 1.75750977 -15.88891602 1.71899414 C-14.18058268 1.64868164 -12.47224935 1.57836914 -10.76391602 1.50805664 C-9.95954102 1.47067383 -9.15516602 1.43329102 -8.32641602 1.39477539 C-7.21266602 1.34933594 -7.21266602 1.34933594 -6.07641602 1.30297852 C-3.19335628 0.99086156 -3.50973532 0.11978179 0 0 Z " fill="#F08D8D" transform="translate(342.326416015625,362.886474609375)"/>
<path d="M0 0 C0.33 0 0.66 0 1 0 C1.02784744 2.50008123 1.04722847 4.99983176 1.0625 7.5 C1.07087891 8.17675781 1.07925781 8.85351562 1.08789062 9.55078125 C1.1090888 14.25677506 0.87647365 18.9005134 0.53125 23.59375 C-0.37807253 36.64823298 -0.35192337 49.75855513 -0.53222656 62.83947754 C-0.5831504 66.47375586 -0.63846006 70.10796744 -0.69335938 73.7421875 C-0.79977443 80.82806679 -0.9014604 87.91400644 -1 95 C-0.34 95 0.32 95 1 95 C1 106.55 1 118.1 1 130 C0.67 130 0.34 130 0 130 C-1.19005374 120.64132495 -2.1435264 111.3064036 -2.55859375 101.87890625 C-2.60035736 100.93756332 -2.64212097 99.9962204 -2.68515015 99.02635193 C-3.09713828 88.90796718 -3.1510859 78.79425974 -3.13037109 68.66870117 C-3.12500864 65.56749576 -3.13036132 62.46643548 -3.13671875 59.36523438 C-3.14061536 49.1063606 -2.99205227 38.86753553 -2.55859375 28.6171875 C-2.52037506 27.70252213 -2.48215637 26.78785675 -2.44277954 25.84547424 C-2.03660011 17.18371036 -1.10554086 8.59745851 0 0 Z " fill="#E55B5B" transform="translate(84,185)"/>
<path d="M0 0 C7.73837565 -0.02346478 15.47674253 -0.04108502 23.21514511 -0.05181217 C26.81076082 -0.056968 30.4063517 -0.06392772 34.00195312 -0.07543945 C74.27784918 -0.20078392 74.27784918 -0.20078392 92.25 2.0625 C93.40242188 2.19881836 93.40242188 2.19881836 94.578125 2.33789062 C96.38613944 2.55259234 98.19320812 2.77524207 100 3 C100 3.33 100 3.66 100 4 C95.6949909 4.02483806 91.39002049 4.04292512 87.08496094 4.05493164 C85.62238843 4.05994045 84.15982089 4.06674938 82.69726562 4.07543945 C80.58722709 4.08765698 78.47725513 4.09326295 76.3671875 4.09765625 C75.09987793 4.10289307 73.83256836 4.10812988 72.52685547 4.11352539 C69 4 69 4 66.24707031 3.51147461 C61.40298753 2.74844052 56.57671967 2.7822481 51.6796875 2.71875 C50.03711472 2.69113586 50.03711472 2.69113586 48.36135864 2.66296387 C44.86595873 2.60440102 41.37050976 2.55156046 37.875 2.5 C34.40091795 2.44828509 30.92689284 2.39513782 27.45291138 2.33703613 C25.29580556 2.30096103 23.13863662 2.26841255 20.98141479 2.2401123 C13.95325072 2.12271102 6.99725611 1.66460192 0 1 C0 0.67 0 0.34 0 0 Z " fill="#DA1111" transform="translate(272,133)"/>
<path d="M0 0 C7.59 0 15.18 0 23 0 C23 0.66 23 1.32 23 2 C24.80803101 1.99214478 24.80803101 1.99214478 26.65258789 1.98413086 C31.14590709 1.96596246 35.63922307 1.95452485 40.13256836 1.94506836 C42.07332913 1.94005515 44.01408616 1.93324288 45.95483398 1.92456055 C48.75245084 1.91236268 51.55001755 1.90674145 54.34765625 1.90234375 C55.2083522 1.89718246 56.06904816 1.89202118 56.95582581 1.88670349 C61.74729665 1.88626232 66.27500764 2.19438183 71 3 C71 3.33 71 3.66 71 4 C65.24235331 4.02517131 59.48474031 4.04307674 53.72705078 4.05493164 C51.77815186 4.0598862 49.8292565 4.06665173 47.88037109 4.07543945 C37.58035824 4.12063827 27.30524959 4.06187105 17.015625 3.55859375 C16.20832947 3.51960464 15.40103394 3.48061554 14.5692749 3.44044495 C9.99995863 3.19079527 5.4943591 2.88431016 1 2 C0.67 1.34 0.34 0.68 0 0 Z " fill="#D72526" transform="translate(137,363)"/>
<path d="M0 0 C1.98 0 3.96 0 6 0 C6 0.99 6 1.98 6 3 C8.97 3.495 8.97 3.495 12 4 C12 4.66 12 5.32 12 6 C12.99 6.33 13.98 6.66 15 7 C14.67 7.66 14.34 8.32 14 9 C9.58282601 7.39375491 6.22743482 5.41567704 2 3 C2 35.34 2 67.68 2 101 C1.34 101 0.68 101 0 101 C0 67.67 0 34.34 0 0 Z " fill="#FEA3A4" transform="translate(216,199)"/>
<path d="M0 0 C0.66 0 1.32 0 2 0 C7.63874594 17.60319165 9.81001979 36.54954932 9 55 C8.34 54.67 7.68 54.34 7 54 C6.49755859 51.02832031 6.49755859 51.02832031 6.1484375 47.078125 C6.08467926 46.38112488 6.02092102 45.68412476 5.95523071 44.96600342 C5.75300279 42.72802273 5.56415375 40.48911957 5.375 38.25 C5.24039742 36.75513481 5.10499062 35.26034179 4.96875 33.765625 C3.91139276 21.92183679 3.91139276 21.92183679 4 17 C3.34 17 2.68 17 2 17 C2 14.03 2 11.06 2 8 C1.34 8 0.68 8 0 8 C0 5.36 0 2.72 0 0 Z " fill="#E46B6B" transform="translate(409,163)"/>
<path d="M0 0 C1.47583955 0.0001591 2.95168467 0.00585225 4.42749023 0.01586914 C5.20293686 0.01728409 5.97838348 0.01869904 6.77732849 0.02015686 C9.26361893 0.02577194 11.74982059 0.03832693 14.23608398 0.05102539 C15.91772331 0.05603845 17.59936405 0.06060169 19.28100586 0.06469727 C23.41189965 0.07574626 27.54272674 0.09302094 31.67358398 0.11352539 C31.67358398 0.44352539 31.67358398 0.77352539 31.67358398 1.11352539 C13.34596779 3.39341001 -4.86126216 4.32879273 -23.32641602 4.11352539 C-22.99641602 3.45352539 -22.66641602 2.79352539 -22.32641602 2.11352539 C-21.03864258 2.05293945 -19.75086914 1.99235352 -18.42407227 1.92993164 C-16.74567443 1.84554292 -15.06728965 1.7608941 -13.38891602 1.67602539 C-12.11371094 1.61705078 -12.11371094 1.61705078 -10.81274414 1.55688477 C-10.00385742 1.51499023 -9.1949707 1.4730957 -8.36157227 1.42993164 C-7.23827515 1.37494507 -7.23827515 1.37494507 -6.09228516 1.31884766 C-3.18786771 0.98114337 -3.52992309 0.12047077 0 0 Z " fill="#E44F4F" transform="translate(342.326416015625,362.886474609375)"/>
<path d="M0 0 C0.33 0 0.66 0 1 0 C1.26188228 7.51560581 0.50893526 14.59670908 -0.75 22 C-0.90726562 23.01578125 -1.06453125 24.0315625 -1.2265625 25.078125 C-2.57853474 33.18995846 -4.18381963 42.64442971 -11 48 C-10.34 45.36 -9.68 42.72 -9 40 C-8.34 40 -7.68 40 -7 40 C-7.01160156 39.36191406 -7.02320313 38.72382813 -7.03515625 38.06640625 C-7.04869141 36.82697266 -7.04869141 36.82697266 -7.0625 35.5625 C-7.07410156 34.73878906 -7.08570313 33.91507812 -7.09765625 33.06640625 C-7 31 -7 31 -6 30 C-5.6883692 28.54983689 -5.42842637 27.08857142 -5.1875 25.625 C-4.21009368 19.99185673 -3.06123119 14.40450948 -1.875 8.8125 C-1.69219482 7.95027832 -1.50938965 7.08805664 -1.32104492 6.19970703 C-0.88189169 4.13288373 -0.44111853 2.06640474 0 0 Z " fill="#E97270" transform="translate(416,298)"/>
<path d="M0 0 C15.41823235 0.40530938 30.70673824 0.91639423 46 3 C46 3.33 46 3.66 46 4 C41.82317579 4.05022543 37.64652132 4.0861004 33.46948242 4.10986328 C32.05473765 4.11979131 30.64001266 4.13333825 29.2253418 4.15087891 C20.09409205 4.26108923 10.91109404 4.27123043 2 2 C1.34 1.34 0.68 0.68 0 0 Z " fill="#E75C5C" transform="translate(326,133)"/>
<path d="M0 0 C0 0.33 0 0.66 0 1 C-3.3 1.33 -6.6 1.66 -10 2 C-10 2.66 -10 3.32 -10 4 C-21.22 4 -32.44 4 -44 4 C-44 3.67 -44 3.34 -44 3 C-34.61599723 1.8452183 -25.25749133 0.85990954 -15.8125 0.375 C-15.03608154 0.33511963 -14.25966309 0.29523926 -13.4597168 0.25415039 C-8.9681183 0.04337092 -4.49636009 -0.03573266 0 0 Z " fill="#E95E5E" transform="translate(170,133)"/>
<path d="M0 0 C7.59 0 15.18 0 23 0 C23 0.99 23 1.98 23 3 C20.64575325 3.02726927 18.29183038 3.04696719 15.9375 3.0625 C13.97103516 3.07990234 13.97103516 3.07990234 11.96484375 3.09765625 C8.20395786 3.00502359 4.68736405 2.74686737 1 2 C0.67 1.34 0.34 0.68 0 0 Z " fill="#E44B4D" transform="translate(137,363)"/>
<path d="M0 0 C1.65 0.33 3.3 0.66 5 1 C5.33 2.65 5.66 4.3 6 6 C5.1646875 6.0928125 5.1646875 6.0928125 4.3125 6.1875 C1.73292379 6.90646698 1.73292379 6.90646698 -0.5 9.5 C-3.74763638 12.74763638 -5.30857508 12.96155852 -9.75 13.0625 C-10.86375 13.0315625 -10.86375 13.0315625 -12 13 C-7.39486061 9.00887919 -2.24516756 6.05543741 3 3 C2.01 2.01 1.02 1.02 0 0 Z " fill="#E85456" transform="translate(298,247)"/>
<path d="M0 0 C8.3673886 0.86648383 14.97752542 2.24576656 22 7 C19 8 19 8 16 8 C16 7.34 16 6.68 16 6 C15.43152344 5.87882813 14.86304688 5.75765625 14.27734375 5.6328125 C9.45754536 4.58677946 4.7267066 3.40795516 0 2 C0 1.34 0 0.68 0 0 Z " fill="#E86A6C" transform="translate(373,137)"/>
<path d="M0 0 C1.02956962 3.19823755 0.94507949 5.36577313 0.1875 8.625 C0.01605469 9.40101563 -0.15539062 10.17703125 -0.33203125 10.9765625 C-1 13 -1 13 -3 15 C-3.67292501 16.96690374 -3.67292501 16.96690374 -4.125 19.125 C-4.41375 20.40375 -4.7025 21.6825 -5 23 C-5.33 23 -5.66 23 -6 23 C-5.35490815 15.12987938 -4.45788347 6.68682521 0 0 Z " fill="#EB8180" transform="translate(91,159)"/>
<path d="M0 0 C-0.66 0 -1.32 0 -2 0 C-2 0.66 -2 1.32 -2 2 C-4.12547508 4.58044898 -6.41526132 5.88413159 -9.4375 7.25 C-10.58025391 7.78367187 -10.58025391 7.78367187 -11.74609375 8.328125 C-14.31625951 9.09427493 -15.47911168 8.73491426 -18 8 C-15.56969216 6.46648472 -13.13194897 4.94816498 -10.6875 3.4375 C-9.65206055 2.78104492 -9.65206055 2.78104492 -8.59570312 2.11132812 C-7.92861328 1.70205078 -7.26152344 1.29277344 -6.57421875 0.87109375 C-5.96151123 0.48880615 -5.34880371 0.10651855 -4.7175293 -0.28735352 C-3 -1 -3 -1 0 0 Z " fill="#EA8080" transform="translate(236,290)"/>
<path d="M0 0 C4.10899581 1.12795963 8.07561214 2.33510818 12 4 C12 4.66 12 5.32 12 6 C14.475 6.99 14.475 6.99 17 8 C17 8.66 17 9.32 17 10 C12.56473186 8.69047721 9.00013681 6.95266332 5.125 4.4375 C4.15820312 3.81746094 3.19140625 3.19742188 2.1953125 2.55859375 C1.47085937 2.04425781 0.74640625 1.52992188 0 1 C0 0.67 0 0.34 0 0 Z " fill="#EB7A7B" transform="translate(281,237)"/>
<path d="M0 0 C0.103125 0.639375 0.20625 1.27875 0.3125 1.9375 C0.539375 2.618125 0.76625 3.29875 1 4 C1.99 4.33 2.98 4.66 4 5 C4.2236337 6.41433206 4.42826476 7.83167618 4.625 9.25 C4.74101563 10.03890625 4.85703125 10.8278125 4.9765625 11.640625 C5.00319395 14.32152459 4.36592084 15.72694089 3 18 C1.14256832 11.88595404 -0.42765417 6.41481258 0 0 Z " fill="#EC7778" transform="translate(85,316)"/>
<path d="M0 0 C0.33 1.32 0.66 2.64 1 4 C1.66 4 2.32 4 3 4 C3 5.32 3 6.64 3 8 C3.66 8 4.32 8 5 8 C7 11 7 11 7 14 C7.66 14.33 8.32 14.66 9 15 C8.01 15 7.02 15 6 15 C4 12.8125 4 12.8125 2 10 C1.401875 9.175 0.80375 8.35 0.1875 7.5 C-1.23611297 4.50292007 -0.97780502 3.11119779 0 0 Z " fill="#E96968" transform="translate(90,333)"/>
<path d="M0 0 C1.98 0 3.96 0 6 0 C6 0.99 6 1.98 6 3 C8.97 3.495 8.97 3.495 12 4 C12 4.66 12 5.32 12 6 C12.99 6.33 13.98 6.66 15 7 C14.67 7.66 14.34 8.32 14 9 C10.40241608 7.67726488 7.36262865 6.0805802 4.1875 3.9375 C3.39730469 3.41027344 2.60710937 2.88304687 1.79296875 2.33984375 C1.20128906 1.89769531 0.60960937 1.45554688 0 1 C0 0.67 0 0.34 0 0 Z " fill="#EC6465" transform="translate(216,199)"/>
<path d="M0 0 C0.33 0 0.66 0 1 0 C1.04241723 2.33294775 1.04092937 4.66702567 1 7 C0.67 7.33 0.34 7.66 0 8 C-0.23363881 9.84891946 -0.41303635 11.70488031 -0.5625 13.5625 C-0.64628906 14.57441406 -0.73007813 15.58632812 -0.81640625 16.62890625 C-0.87699219 17.41136719 -0.93757813 18.19382813 -1 19 C-1.66 19 -2.32 19 -3 19 C-3.39325819 12.02330843 -2.63096039 6.48343811 0 0 Z " fill="#D91C1C" transform="translate(88,173)"/>
<path d="M0 0 C2 2 2 2 2 4 C2.31802943 5.66965451 2.64984951 7.33678518 3 9 C-0.99500618 7.6302836 -3.80009492 5.74277578 -7 3 C-6.21625 2.87625 -5.4325 2.7525 -4.625 2.625 C-1.85942178 2.20882007 -1.85942178 2.20882007 0 0 Z " fill="#EE4E4D" transform="translate(260,218)"/>
<path d="M0 0 C1.32 0 2.64 0 4 0 C4 0.66 4 1.32 4 2 C6.31 2.33 8.62 2.66 11 3 C11.66 4.65 12.32 6.3 13 8 C8.27626146 6.37621488 4.05818166 3.89006982 0 1 C0 0.67 0 0.34 0 0 Z " fill="#EB7877" transform="translate(236,211)"/>
<path d="M0 0 C1.65 0.33 3.3 0.66 5 1 C5.33 2.65 5.66 4.3 6 6 C3.01758453 6.77321882 0.02419525 7.41196203 -3 8 C-1.06745228 5.9754262 0.63158688 4.57894208 3 3 C2.01 2.01 1.02 1.02 0 0 Z " fill="#EC7E7D" transform="translate(298,247)"/>
<path d="M0 0 C0.66 0.33 1.32 0.66 2 1 C-0.27941234 4.41911851 -0.40474917 4.10118729 -4 5 C-4.99 6.485 -4.99 6.485 -6 8 C-6.66 8 -7.32 8 -8 8 C-8 8.66 -8 9.32 -8 10 C-8.99 10 -9.98 10 -11 10 C-11 9.34 -11 8.68 -11 8 C-10.34 8 -9.68 8 -9 8 C-9 7.34 -9 6.68 -9 6 C-7.03125 4.4921875 -7.03125 4.4921875 -4.5 2.875 C-3.6646875 2.33617187 -2.829375 1.79734375 -1.96875 1.2421875 C-0.99421875 0.62730469 -0.99421875 0.62730469 0 0 Z " fill="#EE8682" transform="translate(109,141)"/>
<path d="M0 0 C-2.25170312 2.25170312 -3.32987578 2.51474 -6.375 3.1875 C-7.14585937 3.36667969 -7.91671875 3.54585938 -8.7109375 3.73046875 C-11.11082272 4.01304909 -12.71670535 3.73503321 -15 3 C-9.89665983 1.094753 -5.53657294 -0.42589023 0 0 Z " fill="#EA7375" transform="translate(389,359)"/>
<path d="M0 0 C2.6875 -0.3125 2.6875 -0.3125 6 0 C8.57285724 2.172635 10.48996919 3.97993838 12 7 C7.69235185 5.43358249 3.93828536 3.31663844 0 1 C0 0.67 0 0.34 0 0 Z " fill="#EC7776" transform="translate(263,227)"/>
<path d="M0 0 C-5.36439644 2.68219822 -9.01006953 3.3152595 -15 3 C-12.74829688 0.74829688 -11.67012422 0.48526 -8.625 -0.1875 C-7.85414062 -0.36667969 -7.08328125 -0.54585937 -6.2890625 -0.73046875 C-3.88917728 -1.01304909 -2.28329465 -0.73503321 0 0 Z " fill="#E87575" transform="translate(126,138)"/>
<path d="M0 0 C-5.14285714 4.42857143 -5.14285714 4.42857143 -9 5 C-8.25 2.5625 -8.25 2.5625 -7 0 C-4.07083439 -1.32284898 -3.12177395 -1.04059132 0 0 Z " fill="#EA7477" transform="translate(398,354)"/>
<path d="M0 0 C0.66 0.33 1.32 0.66 2 1 C1.01 2.485 1.01 2.485 0 4 C-0.99 4 -1.98 4 -3 4 C-3 4.66 -3 5.32 -3 6 C-4.65 6 -6.3 6 -8 6 C-5.54080489 3.3651481 -3.42227589 1.25483449 0 0 Z " fill="#EB7778" transform="translate(244,283)"/>
<path d="M0 0 C2.31 0 4.62 0 7 0 C7.66 1.32 8.32 2.64 9 4 C5.65626525 3.44271087 2.96687001 2.64826111 0 1 C0 0.67 0 0.34 0 0 Z " fill="#EA706C" transform="translate(108,357)"/>
<path d="M0 0 C0.66 0.33 1.32 0.66 2 1 C-1.07999946 4.67230705 -3.2482602 5.56802365 -8 6 C-5.54080489 3.3651481 -3.42227589 1.25483449 0 0 Z " fill="#EE8181" transform="translate(270,268)"/>
<path d="M0 0 C5.01113235 1.4317521 6.94469549 3.98445693 10 8 C7.0280615 6.87548273 4.66559313 5.77706209 2 4 C2 3.34 2 2.68 2 2 C1.34 2 0.68 2 0 2 C0 1.34 0 0.68 0 0 Z " fill="#ED989A" transform="translate(98,349)"/>
<path d="M0 0 C0 0.99 0 1.98 0 3 C-4.43076923 5.09230769 -4.43076923 5.09230769 -7.3125 4.625 C-7.869375 4.41875 -8.42625 4.2125 -9 4 C-3.375 0 -3.375 0 0 0 Z " fill="#E8797B" transform="translate(262,274)"/>
</svg>
