<?xml version="1.0" encoding="UTF-8"?>
<svg version="1.1" xmlns="http://www.w3.org/2000/svg" width="200" height="200">
<path d="M0 0 C66 0 132 0 200 0 C200 66 200 132 200 200 C134 200 68 200 0 200 C0 134 0 68 0 0 Z " fill="#FDFDFD" transform="translate(0,0)"/>
<path d="M0 0 C2.59577131 0.96414363 4.91127261 1.94331306 7.25 3.4375 C9.72657861 4.84464694 11.79904048 5.61469114 14.5 6.4375 C18.35419364 7.64716344 21.01374533 9.20640692 24 12 C24.52078125 11.6803125 25.0415625 11.360625 25.578125 11.03125 C28.69356947 9.70467365 31.37191741 9.64751452 34.75 9.5 C40.11388589 9.19205248 44.86352696 8.54094191 50 7 C50.65162109 8.30517578 50.65162109 8.30517578 51.31640625 9.63671875 C52.36165028 11.72478165 53.41045985 13.81106866 54.46484375 15.89453125 C55.99270856 18.92189204 57.49912985 21.95917455 59 25 C59.433125 25.85851562 59.86625 26.71703125 60.3125 27.6015625 C60.68375 28.37242188 61.055 29.14328125 61.4375 29.9375 C61.76621094 30.60652344 62.09492188 31.27554688 62.43359375 31.96484375 C63.25620155 34.92055866 63.32529204 36.17984994 62 39 C59.15545661 40.63022734 56.11369838 41.56752119 53 42.5625 C51.33227936 43.12317675 49.66560486 43.68697502 48 44.25390625 C47.1737915 44.53105469 46.34758301 44.80820313 45.49633789 45.09375 C42.20368842 46.28908641 39.05969581 47.74156006 35.90405273 49.25805664 C33.27136734 50.28392289 31.58021989 50.09463874 29 49 C28.34 48.34 27.68 47.68 27 47 C24.5 46.66666667 24.5 46.66666667 22 47 C21.34 47.66 20.68 48.32 20 49 C17.05903263 49.17539436 14.21346651 49.23132375 11.2734375 49.1953125 C10.41062164 49.1924826 9.54780579 49.18965271 8.65884399 49.18673706 C5.8974228 49.17552333 3.1363235 49.15041684 0.375 49.125 C-1.49478699 49.11497173 -3.36457905 49.10584562 -5.234375 49.09765625 C-9.82304109 49.07558012 -14.41146593 49.04104234 -19 49 C-17.98458001 40.43124125 -17.98458001 40.43124125 -17.09765625 36.89453125 C-16.92943359 36.22099609 -16.76121094 35.54746094 -16.58789062 34.85351562 C-16.41451172 34.17998047 -16.24113281 33.50644531 -16.0625 32.8125 C-15.89298828 32.12736328 -15.72347656 31.44222656 -15.54882812 30.73632812 C-14.60984454 27.02680742 -13.50372259 23.51677057 -12 20 C-11.47377173 18.64792066 -10.95254623 17.2938783 -10.4375 15.9375 C-10.18871094 15.28652344 -9.93992187 14.63554688 -9.68359375 13.96484375 C-8.99824993 11.99496981 -8.4747047 10.02992773 -8 8 C-5.69 8 -3.38 8 -1 8 C-0.67 5.36 -0.34 2.72 0 0 Z " fill="#F8F9F8" transform="translate(79,50)"/>
<path d="M0 0 C2.59577131 0.96414363 4.91127261 1.94331306 7.25 3.4375 C9.72657861 4.84464694 11.79904048 5.61469114 14.5 6.4375 C18.35419364 7.64716344 21.01374533 9.20640692 24 12 C24.52078125 11.6803125 25.0415625 11.360625 25.578125 11.03125 C28.69356947 9.70467365 31.37191741 9.64751452 34.75 9.5 C40.11388589 9.19205248 44.86352696 8.54094191 50 7 C50.65162109 8.30517578 50.65162109 8.30517578 51.31640625 9.63671875 C52.36165028 11.72478165 53.41045985 13.81106866 54.46484375 15.89453125 C55.99270856 18.92189204 57.49912985 21.95917455 59 25 C59.433125 25.85851562 59.86625 26.71703125 60.3125 27.6015625 C60.68375 28.37242188 61.055 29.14328125 61.4375 29.9375 C61.76621094 30.60652344 62.09492188 31.27554688 62.43359375 31.96484375 C63.25620155 34.92055866 63.32529204 36.17984994 62 39 C59.15545661 40.63022734 56.11369838 41.56752119 53 42.5625 C51.33227936 43.12317675 49.66560486 43.68697502 48 44.25390625 C47.1737915 44.53105469 46.34758301 44.80820313 45.49633789 45.09375 C42.20368842 46.28908641 39.05969581 47.74156006 35.90405273 49.25805664 C33.27136734 50.28392289 31.58021989 50.09463874 29 49 C28.34 48.34 27.68 47.68 27 47 C24.5 46.66666667 24.5 46.66666667 22 47 C21.34 47.66 20.68 48.32 20 49 C17.05903263 49.17539436 14.21346651 49.23132375 11.2734375 49.1953125 C10.41062164 49.1924826 9.54780579 49.18965271 8.65884399 49.18673706 C5.8974228 49.17552333 3.1363235 49.15041684 0.375 49.125 C-1.49478699 49.11497173 -3.36457905 49.10584562 -5.234375 49.09765625 C-9.82304109 49.07558012 -14.41146593 49.04104234 -19 49 C-17.98458001 40.43124125 -17.98458001 40.43124125 -17.09765625 36.89453125 C-16.92943359 36.22099609 -16.76121094 35.54746094 -16.58789062 34.85351562 C-16.41451172 34.17998047 -16.24113281 33.50644531 -16.0625 32.8125 C-15.89298828 32.12736328 -15.72347656 31.44222656 -15.54882812 30.73632812 C-14.60984454 27.02680742 -13.50372259 23.51677057 -12 20 C-11.47377173 18.64792066 -10.95254623 17.2938783 -10.4375 15.9375 C-10.18871094 15.28652344 -9.93992187 14.63554688 -9.68359375 13.96484375 C-8.99824993 11.99496981 -8.4747047 10.02992773 -8 8 C-5.69 8 -3.38 8 -1 8 C-0.67 5.36 -0.34 2.72 0 0 Z M1 3 C0.01 8.28 -0.98 13.56 -2 19 C-3.88343932 15.23312136 -4.22057835 13.97041037 -4 10 C-4.99 10 -5.98 10 -7 10 C-9.07750949 17.53097191 -9.96316088 25.20150382 -9 33 C-5.45986775 35.36008817 -3.98878045 35.23463644 0.19921875 35.1953125 C2.01196289 35.18564453 2.01196289 35.18564453 3.86132812 35.17578125 C5.12396484 35.15902344 6.38660156 35.14226562 7.6875 35.125 C9.59885742 35.11146484 9.59885742 35.11146484 11.54882812 35.09765625 C14.69940627 35.07405641 17.84960983 35.04113194 21 35 C18.25443346 31.8491217 18.25443346 31.8491217 14.421875 30.609375 C13.54015625 30.65578125 12.6584375 30.7021875 11.75 30.75 C10.41195312 30.80414063 10.41195312 30.80414063 9.046875 30.859375 C8.37140625 30.90578125 7.6959375 30.9521875 7 31 C6.67 30.34 6.34 29.68 6 29 C11.841744 28.64949536 15.8531808 28.83272665 21 32 C21.33 30.68 21.66 29.36 22 28 C22.66 28 23.32 28 24 28 C24 31.3 24 34.6 24 38 C25.134375 37.175 26.26875 36.35 27.4375 35.5 C32.00205278 32.60122319 35.72162897 32.45016968 41 33 C38 35 38 35 34.5 35.9375 C31.04924238 36.67429748 31.04924238 36.67429748 29.375 38.6875 C28.92125 39.120625 28.4675 39.55375 28 40 C25.03163908 39.84777636 23.4576998 39.38076728 21.1640625 37.47265625 C17.18515509 34.76498821 12.62249672 35.40090424 8 36 C5.68457721 36.89591736 3.55285395 37.97275768 1.34765625 39.109375 C-2.96621298 40.74591774 -7.45989441 40.30550243 -12 40 C-12.99 41.98 -13.98 43.96 -15 46 C-10.35526018 46.07416067 -5.71086501 46.12860615 -1.06567383 46.16479492 C0.51446536 46.17988094 2.09456269 46.2003525 3.67456055 46.22631836 C5.94590585 46.26271126 8.21669759 46.27972762 10.48828125 46.29296875 C11.19463211 46.30845261 11.90098297 46.32393646 12.6287384 46.33988953 C16.52254545 46.3953101 16.52254545 46.3953101 19.78588867 44.50512695 C20.18654541 44.00843506 20.58720215 43.51174316 21 43 C24.45672075 42.5587165 26.24118664 42.4251414 29.0625 44.5625 C30.90431864 46.27621806 30.90431864 46.27621806 33.24609375 45.7109375 C36.213842 44.9447954 39.0962716 44.04398983 42 43.0625 C43.010625 42.72347656 44.02125 42.38445312 45.0625 42.03515625 C50.25275128 40.43524897 50.25275128 40.43524897 54.5625 37.375 C56 36 56 36 60 36 C59.5978125 34.1128125 59.5978125 34.1128125 59.1875 32.1875 C59.03667969 31.47980469 58.88585937 30.77210937 58.73046875 30.04296875 C58.14803085 27.93595116 58.14803085 27.93595116 56.5546875 26.609375 C54.85162493 24.84640571 54.21954521 23.49873668 53.39453125 21.20703125 C53.13349609 20.49482422 52.87246094 19.78261719 52.60351562 19.04882812 C52.21196289 17.9418457 52.21196289 17.9418457 51.8125 16.8125 C51.53986328 16.06291016 51.26722656 15.31332031 50.98632812 14.54101562 C50.31673904 12.69670884 49.65736279 10.84869988 49 9 C47.99453125 9.23589844 47.99453125 9.23589844 46.96875 9.4765625 C42.21367234 10.31495777 37.41254034 10.34032347 32.59375 10.5234375 C28.89092119 11.0144648 26.90411331 11.68433741 24 14 C23.10792821 17.0957107 23.10792821 17.0957107 23 20 C22.01 20 21.02 20 20 20 C20.04125 18.9275 20.0825 17.855 20.125 16.75 C20.0069136 13.20740808 19.95559298 11.81818082 18 9 C15.77135485 7.97617633 15.77135485 7.97617633 13.1875 7.4375 C9.32675395 6.42356669 6.36012533 5.20508225 3 3 C2.34 3 1.68 3 1 3 Z " fill="#818481" transform="translate(79,50)"/>
<path d="M0 0 C2 2 2 2 2 3 C4.31 3.33 6.62 3.66 9 4 C9.66 2.68 10.32 1.36 11 0 C11.99 0.495 11.99 0.495 13 1 C13.66 1 14.32 1 15 1 C15.99 1.33 16.98 1.66 18 2 C18 2.99 18 3.98 18 5 C18.63808594 5.19335938 19.27617187 5.38671875 19.93359375 5.5859375 C20.75988281 5.84632812 21.58617187 6.10671875 22.4375 6.375 C23.26121094 6.63023438 24.08492188 6.88546875 24.93359375 7.1484375 C27 8 27 8 28 10 C26.824375 9.7215625 26.824375 9.7215625 25.625 9.4375 C23.02910225 8.74037734 23.02910225 8.74037734 21 10 C20.67 10.66 20.34 11.32 20 12 C19.01 10.02 19.01 10.02 18 8 C17.01 8 16.02 8 15 8 C15.33 8.721875 15.66 9.44375 16 10.1875 C17.00603529 13.01697427 17.16977402 15.02895466 17 18 C15.68 17.67 14.36 17.34 13 17 C13.99 16.505 13.99 16.505 15 16 C13.95508546 10.97757619 13.95508546 10.97757619 10.875 7.0625 C10.25625 6.711875 9.6375 6.36125 9 6 C9.495 9.465 9.495 9.465 10 13 C9.01 12.505 9.01 12.505 8 12 C7.375 8.9375 7.375 8.9375 7 6 C4.36 6.33 1.72 6.66 -1 7 C0.32 8.32 1.64 9.64 3 11 C2.67 11.66 2.34 12.32 2 13 C1.01 13 0.02 13 -1 13 C-0.01 14.485 -0.01 14.485 1 16 C-2.875 14.125 -2.875 14.125 -4 13 C-4.99 13.99 -5.98 14.98 -7 16 C-11 11.375 -11 11.375 -11 8 C-12.65 8.33 -14.3 8.66 -16 9 C-15.505 11.475 -15.505 11.475 -15 14 C-20.56521739 12.35573123 -20.56521739 12.35573123 -23.0625 10.3125 C-24.94654639 8.76208296 -24.94654639 8.76208296 -27.4375 9.0625 C-30.12013813 9.87328267 -30.12013813 9.87328267 -32.25 11.9375 C-36.03972813 14.7797961 -39.35773493 15.16854954 -44 16 C-41.36 17.32 -38.72 18.64 -36 20 C-37 23 -37 23 -39 24 C-42.31592816 23.9911693 -45.62016015 23.86806096 -48.93359375 23.7421875 C-51.97506242 23.73599575 -51.97506242 23.73599575 -53.9296875 25.37109375 C-55.24817933 26.98620585 -55.24817933 26.98620585 -54.6875 29.1875 C-54.460625 29.785625 -54.23375 30.38375 -54 31 C-53.01 31 -52.02 31 -51 31 C-51.33 31.66 -51.66 32.32 -52 33 C-51.34 33.66 -50.68 34.32 -50 35 C-51.65 35.66 -53.3 36.32 -55 37 C-55 37.66 -55 38.32 -55 39 C-59.875 38.125 -59.875 38.125 -61 37 C-61.92045656 39.26573923 -62.83102128 41.53105904 -63.66015625 43.83203125 C-65.43915323 48.76072781 -67.58991618 53.34604503 -70 58 C-71.09375 54.21875 -71.09375 54.21875 -70.25 52.25 C-69.8375 51.5075 -69.425 50.765 -69 50 C-67.10712313 45.63535674 -65.54576834 41.84513768 -66 37 C-64.515 36.505 -64.515 36.505 -63 36 C-60.49425916 33.53586711 -60.49425916 33.53586711 -59 30 C-59.3170017 27.58911868 -59.93289253 25.39079322 -60.61328125 23.05859375 C-61 21 -61 21 -59.625 18.4375 C-59.08875 17.963125 -58.5525 17.48875 -58 17 C-57.34 17.33 -56.68 17.66 -56 18 C-56.66 18.99 -57.32 19.98 -58 21 C-57.01 20.34 -56.02 19.68 -55 19 C-54.67 20.32 -54.34 21.64 -54 23 C-53.03034401 20.09103204 -53.04988136 18.21436855 -53.25 15.0625 C-53.310141 11.48745184 -53.04848595 11.06290069 -50.6875 8 C-48 6 -48 6 -45 6 C-45.33 8.97 -45.66 11.94 -46 15 C-45.2575 13.88625 -44.515 12.7725 -43.75 11.625 C-41.80353984 8.70530975 -40.34514639 7.16377362 -37 6 C-34.3309323 5.72776071 -31.7368781 5.53745397 -29.0625 5.4375 C-21.1007887 5.54665703 -21.1007887 5.54665703 -14.1875 2.4375 C-13.795625 1.963125 -13.40375 1.48875 -13 1 C-13 1.99 -13 2.98 -13 4 C-11.20741442 3.91306859 -9.41584856 3.80489496 -7.625 3.6875 C-6.62726563 3.62949219 -5.62953125 3.57148438 -4.6015625 3.51171875 C-3.74304688 3.34285156 -2.88453125 3.17398437 -2 3 C-1.34 2.01 -0.68 1.02 0 0 Z " fill="#CDCFCD" transform="translate(109,8)"/>
<path d="M0 0 C0 0.99 0 1.98 0 3 C0.62599617 4.68236471 1.28752268 6.3523962 2 8 C0.35 8.33 -1.3 8.66 -3 9 C-0.66150321 13.20929422 2.04238369 16.198993 5.5625 19.4375 C7 21 7 21 8.125 23.5 C10.26482397 26.35309863 11.00020212 26.4761855 14.3125 27.375 C18.96621271 28.67106657 21.00763046 30.71990174 23.80859375 34.57421875 C24.20175781 35.04472656 24.59492187 35.51523438 25 36 C25.66 36 26.32 36 27 36 C26.34 33.03 25.68 30.06 25 27 C29 27 29 27 31.6875 29.0625 C34.37629014 32.47799018 34.74806895 34.71717217 35 39 C37.97 39.33 40.94 39.66 44 40 C43.20240932 36.80584026 43.20240932 36.80584026 40.4375 34.625 C38 32 38 32 37.6875 29.1875 C37.790625 28.465625 37.89375 27.74375 38 27 C42.41889613 28.35021826 44.34345343 30.26115668 47 34 C47.33 32.68 47.66 31.36 48 30 C49.9375 30.625 49.9375 30.625 52 32 C52.75 35.125 52.75 35.125 53 38 C54.65 37.67 56.3 37.34 58 37 C57.67 35.35 57.34 33.7 57 32 C59 33 59 33 61 36 C60.67 35.01 60.34 34.02 60 33 C62.9375 33.8125 62.9375 33.8125 66 35 C66.33 35.99 66.66 36.98 67 38 C72.62824936 36.16358146 72.62824936 36.16358146 77.4375 32.875 C81.07564045 30.21294601 84.58739804 30.19227024 89 30 C86.54270557 36.63469496 86.54270557 36.63469496 84.18359375 38.22265625 C81.72796122 39.09684386 79.9081397 39.16975784 77.3125 39.0625 C75.87586654 39.00842051 74.43750606 38.97958916 73 39 C72.67 39.33 72.34 39.66 72 40 C69.47403741 40.23653523 66.96892793 40.42173692 64.4375 40.5625 C63.72658203 40.60568359 63.01566406 40.64886719 62.28320312 40.69335938 C60.52238088 40.79971777 58.7612168 40.90038846 57 41 C56.67 42.32 56.34 43.64 56 45 C54.515 44.01 54.515 44.01 53 43 C53 42.34 53 41.68 53 41 C49.92651834 41.07087694 46.98761281 41.24641609 44 42 C42.21030974 44.42672567 42.21030974 44.42672567 41 47 C37.68027502 48.16190374 36.37151546 48.12383849 33 47 C34.75 43.125 34.75 43.125 37 42 C32.99245153 41.57057617 32.99245153 41.57057617 30.625 44 C28 46 28 46 24.9375 46.5 C21.39092417 45.89632752 20.23273903 44.7479865 18 42 C19.65 41.01 21.3 40.02 23 39 C21.989375 38.855625 20.97875 38.71125 19.9375 38.5625 C15.21641535 37.27928429 13.23935085 33.88222963 10.578125 29.99609375 C9.07546315 27.72066932 9.07546315 27.72066932 6 27 C4.94773272 25.02699884 3.95211112 23.02323613 3 21 C1.8727078 18.63517472 1.8727078 18.63517472 0 17 C-2.32716 16.62599214 -4.66117862 16.29235267 -7 16 C-8.9375 14.5625 -8.9375 14.5625 -10 13 C-10 12.34 -10 11.68 -10 11 C-8.35 11 -6.7 11 -5 11 C-5.66 8.69 -6.32 6.38 -7 4 C-6.34 4.33 -5.68 4.66 -5 5 C-5 5.66 -5 6.32 -5 7 C-4.34 7 -3.68 7 -3 7 C-3 5.02 -3 3.04 -3 1 C-2.01 0.67 -1.02 0.34 0 0 Z " fill="#BDC0BD" transform="translate(51,96)"/>
<path d="M0 0 C0.99 0.495 0.99 0.495 2 1 C5.20211302 1.12126781 5.20211302 1.12126781 9 0 C9.99 3.96 9.99 3.96 11 8 C9.68 8 8.36 8 7 8 C6.34644531 8.66322266 6.34644531 8.66322266 5.6796875 9.33984375 C3.19537163 11.79527222 0.41156009 12.45424136 -2.875 13.5625 C-7.88434361 15.25736722 -7.88434361 15.25736722 -12.8125 17.16796875 C-15.40356344 18.15349824 -16.4552831 18.01788676 -19 17 C-19.99 16.34 -20.98 15.68 -22 15 C-25 14.58333333 -25 14.58333333 -28 15 C-28.4019458 15.49540283 -28.8038916 15.99080566 -29.21801758 16.5012207 C-32.0000949 18.84115394 -35.04693389 18.36892 -38.51171875 18.29296875 C-39.23994339 18.28872391 -39.96816803 18.28447906 -40.71846008 18.28010559 C-43.04185127 18.26332733 -45.3643715 18.22567855 -47.6875 18.1875 C-49.26365934 18.17245197 -50.83983229 18.15876377 -52.41601562 18.14648438 C-56.27767877 18.11342685 -60.13869178 18.06165194 -64 18 C-63.01 16.02 -62.02 14.04 -61 12 C-60.31035156 12.04640625 -59.62070313 12.0928125 -58.91015625 12.140625 C-53.8885726 12.3334979 -50.02224803 12.33088646 -45.5 10 C-40.41402708 7.44331702 -35.60410466 7.08628728 -30 8 C-27.75051924 9.12009269 -26.01817825 10.47406035 -24 12 C-21.79649965 12.0953531 -21.79649965 12.0953531 -20 11 C-19.319375 10.2575 -19.319375 10.2575 -18.625 9.5 C-16.31541765 7.36807783 -14.05682653 7.4457872 -11 7 C-10.01 6.34 -9.02 5.68 -8 5 C-5.67612053 4.60612212 -3.34206251 4.26513915 -1 4 C-1.99 3.34 -2.98 2.68 -4 2 C-2.125 0.9375 -2.125 0.9375 0 0 Z " fill="#D6D8D7" transform="translate(128,78)"/>
<path d="M0 0 C0.65162109 1.30517578 0.65162109 1.30517578 1.31640625 2.63671875 C2.36165028 4.72478165 3.41045985 6.81106866 4.46484375 8.89453125 C5.99270856 11.92189204 7.49912985 14.95917455 9 18 C9.433125 18.85851562 9.86625 19.71703125 10.3125 20.6015625 C10.68375 21.37242188 11.055 22.14328125 11.4375 22.9375 C11.76621094 23.60652344 12.09492188 24.27554688 12.43359375 24.96484375 C13.25620155 27.92055866 13.32529204 29.17984994 12 32 C9.15545661 33.63022734 6.11369838 34.56752119 3 35.5625 C1.33227936 36.12317675 -0.33439514 36.68697502 -2 37.25390625 C-2.8262085 37.53105469 -3.65241699 37.80820313 -4.50366211 38.09375 C-7.79631158 39.28908641 -10.94030419 40.74156006 -14.09594727 42.25805664 C-16.72863266 43.28392289 -18.41978011 43.09463874 -21 42 C-21.66 41.34 -22.32 40.68 -23 40 C-25.5 39.66666667 -25.5 39.66666667 -28 40 C-28.66 40.66 -29.32 41.32 -30 42 C-32.86888581 42.17532289 -35.63992645 42.23137614 -38.5078125 42.1953125 C-39.76874222 42.19106766 -39.76874222 42.19106766 -41.05514526 42.18673706 C-43.74524046 42.1755243 -46.4350051 42.15041803 -49.125 42.125 C-50.94660978 42.1149716 -52.76822477 42.10584551 -54.58984375 42.09765625 C-59.06002358 42.07558142 -63.52995571 42.04104434 -68 42 C-67.67 40.68 -67.34 39.36 -67 38 C-67 38.99 -67 39.98 -67 41 C-58.585 40.505 -58.585 40.505 -50 40 C-50 39.67 -50 39.34 -50 39 C-48.73542969 38.96261719 -47.47085938 38.92523438 -46.16796875 38.88671875 C-44.5077827 38.82106167 -42.84762778 38.75461424 -41.1875 38.6875 C-40.35412109 38.66494141 -39.52074219 38.64238281 -38.66210938 38.61914062 C-37.85966797 38.58369141 -37.05722656 38.54824219 -36.23046875 38.51171875 C-35.49207764 38.48553467 -34.75368652 38.45935059 -33.99291992 38.43237305 C-31.51101006 37.89391141 -30.71997422 36.80755592 -29 35 C-25.54327925 34.5587165 -23.75881336 34.4251414 -20.9375 36.5625 C-19.09583489 38.27548638 -19.09583489 38.27548638 -16.75390625 37.71484375 C-13.77794716 36.94236075 -10.90467086 36.00774295 -8 35 C-4.34366895 33.73147698 -0.8134422 32.67296039 3 32 C3.495 30.515 3.495 30.515 4 29 C6.0625 28.3125 6.0625 28.3125 8 28 C8 27.34 8 26.68 8 26 C8 24.33333333 8 22.66666667 8 21 C6.515 20.505 6.515 20.505 5 20 C3.79409871 17.35053805 2.77048238 14.79925459 1.8125 12.0625 C1.53986328 11.32064453 1.26722656 10.57878906 0.98632812 9.81445312 C-1 4.32342575 -1 4.32342575 -1 2 C-1.63292969 2.31710938 -2.26585938 2.63421875 -2.91796875 2.9609375 C-7.05311469 4.35504247 -10.97580212 4.46070521 -15.3125 4.625 C-16.56643555 4.68300781 -16.56643555 4.68300781 -17.84570312 4.7421875 C-19.89679259 4.83595159 -21.94836515 4.91904245 -24 5 C-21.19270401 2.19270401 -19.16748367 2.66529467 -15.25 2.5 C-10.00507069 2.27681152 -5.01932679 0 0 0 Z " fill="#767977" transform="translate(129,57)"/>
<path d="M0 0 C2 2 2 2 2 3 C4.31 3.33 6.62 3.66 9 4 C9.66 2.68 10.32 1.36 11 0 C11.66 0.33 12.32 0.66 13 1 C13.66 1 14.32 1 15 1 C15.99 1.33 16.98 1.66 18 2 C18 2.99 18 3.98 18 5 C18.63808594 5.19335938 19.27617187 5.38671875 19.93359375 5.5859375 C20.75988281 5.84632812 21.58617187 6.10671875 22.4375 6.375 C23.26121094 6.63023438 24.08492187 6.88546875 24.93359375 7.1484375 C27 8 27 8 28 10 C27.21625 9.814375 26.4325 9.62875 25.625 9.4375 C23.02910225 8.74037734 23.02910225 8.74037734 21 10 C20.67 10.66 20.34 11.32 20 12 C19.34 10.68 18.68 9.36 18 8 C17.01 8 16.02 8 15 8 C15.33 8.721875 15.66 9.44375 16 10.1875 C17.00603529 13.01697427 17.16977402 15.02895466 17 18 C15.68 17.67 14.36 17.34 13 17 C13.66 16.67 14.32 16.34 15 16 C13.95508546 10.97757619 13.95508546 10.97757619 10.875 7.0625 C9.946875 6.5365625 9.946875 6.5365625 9 6 C9.495 9.465 9.495 9.465 10 13 C9.34 12.67 8.68 12.34 8 12 C7.375 8.9375 7.375 8.9375 7 6 C4.36 6.33 1.72 6.66 -1 7 C0.32 8.32 1.64 9.64 3 11 C2.67 11.66 2.34 12.32 2 13 C1.01 13 0.02 13 -1 13 C-0.01 14.485 -0.01 14.485 1 16 C-2.875 14.125 -2.875 14.125 -4 13 C-4.99 13.99 -5.98 14.98 -7 16 C-11 11.375 -11 11.375 -11 8 C-12.65 8.33 -14.3 8.66 -16 9 C-15.67 10.65 -15.34 12.3 -15 14 C-20.56043956 12.35714286 -20.56043956 12.35714286 -23 10.375 C-25.71843213 8.50607791 -27.7785115 8.78035306 -31 9 C-30.34 7.68 -29.68 6.36 -29 5 C-27.1746875 5.0309375 -27.1746875 5.0309375 -25.3125 5.0625 C-19.31223415 5.15908135 -19.31223415 5.15908135 -14.1875 2.4375 C-13.795625 1.963125 -13.40375 1.48875 -13 1 C-13 1.99 -13 2.98 -13 4 C-11.20741442 3.91306859 -9.41584856 3.80489496 -7.625 3.6875 C-6.62726563 3.62949219 -5.62953125 3.57148438 -4.6015625 3.51171875 C-3.74304688 3.34285156 -2.88453125 3.17398437 -2 3 C-1.34 2.01 -0.68 1.02 0 0 Z " fill="#CCCECC" transform="translate(109,8)"/>
<path d="M0 0 C4.41889613 1.35021826 6.34345343 3.26115668 9 7 C9.33 5.68 9.66 4.36 10 3 C11.9375 3.625 11.9375 3.625 14 5 C14.75 8.125 14.75 8.125 15 11 C16.65 10.67 18.3 10.34 20 10 C19.67 8.35 19.34 6.7 19 5 C21 6 21 6 23 9 C22.67 8.01 22.34 7.02 22 6 C24.9375 6.8125 24.9375 6.8125 28 8 C28.33 8.99 28.66 9.98 29 11 C34.62824936 9.16358146 34.62824936 9.16358146 39.4375 5.875 C43.07564045 3.21294601 46.58739804 3.19227024 51 3 C48.54270557 9.63469496 48.54270557 9.63469496 46.18359375 11.22265625 C43.72796122 12.09684386 41.9081397 12.16975784 39.3125 12.0625 C37.87586654 12.00842051 36.43750606 11.97958916 35 12 C34.67 12.33 34.34 12.66 34 13 C31.47403741 13.23653523 28.96892793 13.42173692 26.4375 13.5625 C25.72658203 13.60568359 25.01566406 13.64886719 24.28320312 13.69335938 C22.52238088 13.79971777 20.7612168 13.90038846 19 14 C18.67 15.32 18.34 16.64 18 18 C17.01 17.34 16.02 16.68 15 16 C15 15.34 15 14.68 15 14 C13.56138706 14.08746284 12.12402492 14.19565348 10.6875 14.3125 C9.88699219 14.37050781 9.08648437 14.42851562 8.26171875 14.48828125 C5.63727666 15.08206694 4.69179328 15.95780294 3 18 C2.67 16.35 2.34 14.7 2 13 C3.32 13 4.64 13 6 13 C5.20240932 9.80584026 5.20240932 9.80584026 2.4375 7.625 C0 5 0 5 -0.3125 2.1875 C-0.209375 1.465625 -0.10625 0.74375 0 0 Z " fill="#C6C8C6" transform="translate(89,123)"/>
<path d="M0 0 C1.89213369 2.38573379 3.02391783 4.07175348 4 7 C6.71401294 8.35700647 8.84846316 8.1123861 11.8828125 8.09765625 C13.63271484 8.09282227 13.63271484 8.09282227 15.41796875 8.08789062 C17.25294922 8.07532227 17.25294922 8.07532227 19.125 8.0625 C20.97158203 8.05573242 20.97158203 8.05573242 22.85546875 8.04882812 C25.90369392 8.0370133 28.95182314 8.02054028 32 8 C28.68629 5.79086 27.6553979 5.77518447 23.8125 5.875 C22.46091797 5.90207031 22.46091797 5.90207031 21.08203125 5.9296875 C20.05142578 5.96449219 20.05142578 5.96449219 19 6 C18.67 5.01 18.34 4.02 18 3 C17.01 2.67 16.02 2.34 15 2 C27.66970387 1.44646925 27.66970387 1.44646925 33 5 C33.33 4.01 33.66 3.02 34 2 C34.66 2 35.32 2 36 2 C36.495 6.455 36.495 6.455 37 11 C37.78375 10.360625 38.5675 9.72125 39.375 9.0625 C42.63499669 6.50107403 44.09171562 5.87388532 48.1328125 5.90234375 C48.93847656 5.90556641 49.74414062 5.90878906 50.57421875 5.91210938 C51.41597656 5.92048828 52.25773437 5.92886719 53.125 5.9375 C53.97449219 5.94201172 54.82398438 5.94652344 55.69921875 5.95117188 C57.79950909 5.96297126 59.8997633 5.98090694 62 6 C62 6.33 62 6.66 62 7 C57.545 7.495 57.545 7.495 53 8 C55.97 8.33 58.94 8.66 62 9 C62 9.33 62 9.66 62 10 C60.74703125 10.02578125 59.4940625 10.0515625 58.203125 10.078125 C56.55204877 10.13441169 54.90100845 10.1917589 53.25 10.25 C52.425 10.26417969 51.6 10.27835938 50.75 10.29296875 C45.7415071 10.4241044 45.7415071 10.4241044 41.61328125 13.05078125 C41.08089844 13.69402344 40.54851562 14.33726563 40 15 C36.9375 14.9375 36.9375 14.9375 34 14 C33.55011719 13.4946875 33.10023437 12.989375 32.63671875 12.46875 C29.78082311 9.9059415 26.57580027 10.54866842 22.90625 10.62109375 C19.94287564 11.00744767 18.00921417 11.7568782 15.375 13.125 C11.11051445 15.3071872 8.39867614 15.00951698 3.84765625 13.7734375 C2 13 2 13 0 11 C-0.66 11.99 -1.32 12.98 -2 14 C-2.1799928 8.78020872 -1.97094808 4.92737019 0 0 Z " fill="#989B98" transform="translate(67,76)"/>
<path d="M0 0 C0.4125 0.495 0.825 0.99 1.25 1.5 C3.12202338 3.43386092 3.12202338 3.43386092 7 3 C5.68 4.32 4.36 5.64 3 7 C6.96 7 10.92 7 15 7 C15 6.34 15 5.68 15 5 C14.34 4.67 13.68 4.34 13 4 C14.32 4.33 15.64 4.66 17 5 C16 8 16 8 14 9 C10.68407184 8.9911693 7.37983985 8.86806096 4.06640625 8.7421875 C1.02493758 8.73599575 1.02493758 8.73599575 -0.9296875 10.37109375 C-2.24817933 11.98620585 -2.24817933 11.98620585 -1.6875 14.1875 C-1.460625 14.785625 -1.23375 15.38375 -1 16 C-0.01 16 0.98 16 2 16 C1.67 16.66 1.34 17.32 1 18 C1.66 18.66 2.32 19.32 3 20 C1.35 20.66 -0.3 21.32 -2 22 C-2 22.66 -2 23.32 -2 24 C-6.875 23.125 -6.875 23.125 -8 22 C-8.92045656 24.26573923 -9.83102128 26.53105904 -10.66015625 28.83203125 C-12.43915323 33.76072781 -14.58991618 38.34604503 -17 43 C-18.09375 39.21875 -18.09375 39.21875 -17.25 37.25 C-16.8375 36.5075 -16.425 35.765 -16 35 C-14.10712313 30.63535674 -12.54576834 26.84513768 -13 22 C-12.01 21.67 -11.02 21.34 -10 21 C-7.49425916 18.53586711 -7.49425916 18.53586711 -6 15 C-6.3170017 12.58911868 -6.93289253 10.39079322 -7.61328125 8.05859375 C-8 6 -8 6 -6.625 3.4375 C-6.08875 2.963125 -5.5525 2.48875 -5 2 C-4.34 2.33 -3.68 2.66 -3 3 C-3.99 4.485 -3.99 4.485 -5 6 C-4.01 5.34 -3.02 4.68 -2 4 C-1.67 5.32 -1.34 6.64 -1 8 C-0.17361624 5.10765685 0 3.11257569 0 0 Z " fill="#838884" transform="translate(56,23)"/>
<path d="M0 0 C0.43441406 0.87011719 0.86882812 1.74023438 1.31640625 2.63671875 C2.36165028 4.72478165 3.41045985 6.81106866 4.46484375 8.89453125 C5.99270856 11.92189204 7.49912985 14.95917455 9 18 C9.433125 18.85851562 9.86625 19.71703125 10.3125 20.6015625 C10.68375 21.37242188 11.055 22.14328125 11.4375 22.9375 C11.76621094 23.60652344 12.09492188 24.27554688 12.43359375 24.96484375 C13.20287965 27.72896755 13.00567551 29.31528363 12 32 C9.85546875 33.43359375 9.85546875 33.43359375 7.1875 34.4375 C6.31480469 34.78683594 5.44210938 35.13617188 4.54296875 35.49609375 C1.56214797 36.08676331 0.49648316 35.63522557 -2 34 C-1.34 33.34 -0.68 32.68 0 32 C0.99 32 1.98 32 3 32 C3.33 31.01 3.66 30.02 4 29 C6.0625 28.3125 6.0625 28.3125 8 28 C8 27.34 8 26.68 8 26 C8 24.33333333 8 22.66666667 8 21 C7.01 20.67 6.02 20.34 5 20 C3.79409871 17.35053805 2.77048238 14.79925459 1.8125 12.0625 C1.53986328 11.32064453 1.26722656 10.57878906 0.98632812 9.81445312 C-1 4.32342575 -1 4.32342575 -1 2 C-1.63292969 2.31710938 -2.26585938 2.63421875 -2.91796875 2.9609375 C-7.05311469 4.35504247 -10.97580212 4.46070521 -15.3125 4.625 C-16.56643555 4.68300781 -16.56643555 4.68300781 -17.84570312 4.7421875 C-19.89679259 4.83595159 -21.94836515 4.91904245 -24 5 C-21.19270401 2.19270401 -19.16748367 2.66529467 -15.25 2.5 C-10.00507069 2.27681152 -5.01932679 0 0 0 Z " fill="#888B88" transform="translate(129,57)"/>
<path d="M0 0 C2.64 0 5.28 0 8 0 C8.495 1.485 8.495 1.485 9 3 C8.34 3.33 7.68 3.66 7 4 C7 4.99 7 5.98 7 7 C6 8 6 8 2.85717773 8.11352539 C1.46597303 8.11336633 0.07476239 8.10767506 -1.31640625 8.09765625 C-2.04746078 8.0962413 -2.77851532 8.09482635 -3.53172302 8.09336853 C-5.87535632 8.08775408 -8.21889539 8.07519922 -10.5625 8.0625 C-12.14778508 8.05748686 -13.73307166 8.05292363 -15.31835938 8.04882812 C-19.2122761 8.03777997 -23.10612205 8.02050572 -27 8 C-26.67 7.01 -26.34 6.02 -26 5 C-24.96101563 4.95101562 -23.92203125 4.90203125 -22.8515625 4.8515625 C-15.08046683 4.44790554 -7.58427772 3.87783799 0 2 C0 1.34 0 0.68 0 0 Z " fill="#DBDDDB" transform="translate(91,88)"/>
<path d="M0 0 C0.33 0 0.66 0 1 0 C1.33 1.98 1.66 3.96 2 6 C1.34 6 0.68 6 0 6 C-0.53341184 7.57914015 -1.05125763 9.16354387 -1.5625 10.75 C-1.85253906 11.63171875 -2.14257812 12.5134375 -2.44140625 13.421875 C-3.03029334 16.1398154 -2.86402487 17.40792539 -2 20 C-1.65421232 21.99788438 -1.31856451 23.99759451 -1 26 C-1.99 26.66 -2.98 27.32 -4 28 C-4.33 26.35 -4.66 24.7 -5 23 C-5.66 23 -6.32 23 -7 23 C-8.86665742 26.89718171 -9.13965761 29.54084185 -8.625 33.8125 C-8.51414063 34.78832031 -8.40328125 35.76414063 -8.2890625 36.76953125 C-8.19367188 37.50558594 -8.09828125 38.24164063 -8 39 C-8.99 38.67 -9.98 38.34 -11 38 C-11.33 38.66 -11.66 39.32 -12 40 C-11.34 40.33 -10.68 40.66 -10 41 C-10.99 41 -11.98 41 -13 41 C-14.28357733 33.77987754 -13.71686774 31.1560622 -10 25 C-11.32 25 -12.64 25 -14 25 C-14.33 25.99 -14.66 26.98 -15 28 C-15.33 27.01 -15.66 26.02 -16 25 C-16.99 24.67 -17.98 24.34 -19 24 C-18.030625 23.731875 -17.06125 23.46375 -16.0625 23.1875 C-15.051875 22.795625 -14.04125 22.40375 -13 22 C-12.67 21.01 -12.34 20.02 -12 19 C-10.68 19.99 -9.36 20.98 -8 22 C-7.75765625 21.33355469 -7.5153125 20.66710937 -7.265625 19.98046875 C-4.84375 13.3203125 -2.421875 6.66015625 0 0 Z " fill="#8B8F8B" transform="translate(163,82)"/>
<path d="M0 0 C2.63016161 2.1727422 4.47336894 3.94673788 6 7 C6.039992 8.99960012 6.04346799 11.00047242 6 13 C3.08482708 11.92598892 1.22189824 11.22189824 -1 9 C-0.67 9.556875 -0.34 10.11375 0 10.6875 C1.1309601 13.30284522 1.15662974 15.1806646 1 18 C0.34 17.01 -0.32 16.02 -1 15 C-1.33 16.98 -1.66 18.96 -2 21 C-2.33 21 -2.66 21 -3 21 C-3.33 19.35 -3.66 17.7 -4 16 C-4.33 17.98 -4.66 19.96 -5 22 C-5.33 22 -5.66 22 -6 22 C-6.08333357 17.1666528 -5.95261487 12.76307437 -5 8 C-5.99 8.495 -5.99 8.495 -7 9 C-6.67 6.69 -6.34 4.38 -6 2 C-8.475 3.485 -8.475 3.485 -11 5 C-8.53367223 -0.46115434 -5.91499956 -0.60152538 0 0 Z " fill="#DBDDDB" transform="translate(168,58)"/>
<path d="M0 0 C2 3 2 3 1.875 6 C1 9 1 9 -0.8125 10.9375 C-3 12 -3 12 -5.0625 11.875 C-7.38613457 10.82561665 -8.54247854 10.11340612 -10 8 C-10.39310741 4.85514075 -10.47555213 2.86718329 -8.9375 0.0625 C-5.78433176 -1.66665678 -3.37491745 -0.8590699 0 0 Z " fill="#D2D3D2" transform="translate(64,180)"/>
<path d="M0 0 C1.76923828 0.01353516 1.76923828 0.01353516 3.57421875 0.02734375 C4.47785156 0.03894531 5.38148438 0.05054687 6.3125 0.0625 C6.3125 3.6925 6.3125 7.3225 6.3125 11.0625 C4.9925 10.0725 3.6725 9.0825 2.3125 8.0625 C2.26351562 8.70058594 2.21453125 9.33867188 2.1640625 9.99609375 C2.08929688 10.82238281 2.01453125 11.64867187 1.9375 12.5 C1.86789063 13.32371094 1.79828125 14.14742187 1.7265625 14.99609375 C1.58992187 15.67800781 1.45328125 16.35992187 1.3125 17.0625 C0.6525 17.3925 -0.0075 17.7225 -0.6875 18.0625 C-0.63867188 15.03515625 -0.63867188 15.03515625 -0.58984375 12.0078125 C-0.56100758 9.98064596 -0.56100758 9.98064596 -1.6875 8.0625 C-3.80077425 7.15524566 -3.80077425 7.15524566 -6.25 6.4375 C-7.48943359 6.04691406 -7.48943359 6.04691406 -8.75390625 5.6484375 C-9.39199219 5.45507812 -10.03007812 5.26171875 -10.6875 5.0625 C-10.375 3.125 -10.375 3.125 -9.6875 1.0625 C-6.26517028 -0.07827657 -3.60076783 -0.03565117 0 0 Z " fill="#C6C8C6" transform="translate(141.6875,116.9375)"/>
<path d="M0 0 C0.99 0.33 1.98 0.66 3 1 C5.00636471 0.70740515 7.00714063 0.37366113 9 0 C11.83967231 0 14.23735711 0.40267181 17 1 C17 1.99 17 2.98 17 4 C16.34 4 15.68 4 15 4 C14.34 3.34 13.68 2.68 13 2 C13.33 3.98 13.66 5.96 14 8 C12.54364629 8.22174933 11.08477044 8.42698698 9.625 8.625 C8.81289062 8.74101562 8.00078125 8.85703125 7.1640625 8.9765625 C6.44992188 8.98429688 5.73578125 8.99203125 5 9 C4.34 8.34 3.68 7.68 3 7 C2.67 7.66 2.34 8.32 2 9 C1.01 9 0.02 9 -1 9 C-1.09765625 2.84765625 -1.09765625 2.84765625 -1 1 C-0.67 0.67 -0.34 0.34 0 0 Z " fill="#D6D7D6" transform="translate(62,161)"/>
<path d="M0 0 C0 0.99 0 1.98 0 3 C0.62599617 4.68236471 1.28752268 6.3523962 2 8 C0.35 8.33 -1.3 8.66 -3 9 C-0.66150321 13.20929422 2.04238369 16.198993 5.5625 19.4375 C8.38916725 22.5099644 10.19988821 26.26130628 12 30 C8.24167514 28.49667005 6.36216802 27.63044062 4.3125 24.0625 C3.879375 23.051875 3.44625 22.04125 3 21 C1.8727078 18.63517472 1.8727078 18.63517472 0 17 C-2.32716 16.62599214 -4.66117862 16.29235267 -7 16 C-8.9375 14.5625 -8.9375 14.5625 -10 13 C-10 12.34 -10 11.68 -10 11 C-8.35 11 -6.7 11 -5 11 C-5.66 8.69 -6.32 6.38 -7 4 C-6.34 4.33 -5.68 4.66 -5 5 C-5 5.66 -5 6.32 -5 7 C-4.34 7 -3.68 7 -3 7 C-3 5.02 -3 3.04 -3 1 C-2.01 0.67 -1.02 0.34 0 0 Z " fill="#969A96" transform="translate(51,96)"/>
<path d="M0 0 C0.25 3.25 0.25 3.25 0 7 C-1.9375 9.25 -1.9375 9.25 -4 11 C-4.33 11.99 -4.66 12.98 -5 14 C-5.33 14.66 -5.66 15.32 -6 16 C-6.66 16 -7.32 16 -8 16 C-8.33 15.34 -8.66 14.68 -9 14 C-10.89533342 13.53476937 -10.89533342 13.53476937 -13.0625 13.375 C-14.361875 13.25125 -15.66125 13.1275 -17 13 C-17 10 -17 10 -16 7 C-13.9375 6.3125 -13.9375 6.3125 -12 6 C-11.54625 6.825 -11.0925 7.65 -10.625 8.5 C-10.08875 9.325 -9.5525 10.15 -9 11 C-8.34 11 -7.68 11 -7 11 C-6.9175 9.9275 -6.835 8.855 -6.75 7.75 C-5.95617588 3.7808794 -4.61488155 0 0 0 Z " fill="#D4D6D4" transform="translate(54,87)"/>
<path d="M0 0 C0.33 0 0.66 0 1 0 C1.07183959 4.09485638 1.02711601 7.81320079 0.4375 11.875 C-0.28686632 14.89868793 -0.28686632 14.89868793 1 17 C0.5625 19.125 0.5625 19.125 0 21 C1.98 19.68 3.96 18.36 6 17 C5.1875 18.9375 5.1875 18.9375 4 21 C3.01 21.33 2.02 21.66 1 22 C0.67 22.99 0.34 23.98 0 25 C-0.33 24.34 -0.66 23.68 -1 23 C-1.969375 22.690625 -2.93875 22.38125 -3.9375 22.0625 C-7 21 -7 21 -9 18 C-7.68 17.67 -6.36 17.34 -5 17 C-5.33 15.68 -5.66 14.36 -6 13 C-5.34 13.33 -4.68 13.66 -4 14 C-4.495 12.9171875 -4.495 12.9171875 -5 11.8125 C-6.00603529 8.98302573 -6.16977402 6.97104534 -6 4 C-5.01 5.485 -5.01 5.485 -4 7 C-3.34 5.68 -2.68 4.36 -2 3 C-1.67 4.32 -1.34 5.64 -1 7 C-0.67 4.69 -0.34 2.38 0 0 Z " fill="#B8BBB8" transform="translate(40,68)"/>
<path d="M0 0 C0.99 0 1.98 0 3 0 C3 0.66 3 1.32 3 2 C3.66 2 4.32 2 5 2 C5 1.34 5 0.68 5 0 C8.375 -0.1875 8.375 -0.1875 12 0 C14.1519437 3.22791555 14.20086443 4.28400809 14 8 C13.34 7.67 12.68 7.34 12 7 C11.375 3.9375 11.375 3.9375 11 1 C10.34 1 9.68 1 9 1 C9 3.31 9 5.62 9 8 C5.37 8 1.74 8 -2 8 C-2.33 6.68 -2.66 5.36 -3 4 C-1.68 3.67 -0.36 3.34 1 3 C0.67 2.01 0.34 1.02 0 0 Z " fill="#838583" transform="translate(118,183)"/>
<path d="M0 0 C0 0.66 0 1.32 0 2 C-9.8035728 7.28061298 -20.17238704 7.39937917 -31 7 C-30.67 6.01 -30.34 5.02 -30 4 C-28.96552734 4.06960937 -28.96552734 4.06960937 -27.91015625 4.140625 C-21.72105079 4.37834098 -17.75638582 3.7075427 -12.28125 0.890625 C-8.28284683 -0.67039541 -4.2202608 -0.31718035 0 0 Z " fill="#EFF0EF" transform="translate(97,86)"/>
<path d="M0 0 C2.0245738 1.93254772 3.42105792 3.63158688 5 6 C8.06556598 6.73343428 8.06556598 6.73343428 11 7 C9.4198632 9.15473199 7.89353366 11.10646634 6 13 C5.54625 12.34 5.0925 11.68 4.625 11 C4.08875 10.34 3.5525 9.68 3 9 C2.34 9 1.68 9 1 9 C0.67 10.32 0.34 11.64 0 13 C-0.66 12.01 -1.32 11.02 -2 10 C-2.33 12.31 -2.66 14.62 -3 17 C-2.34 16.67 -1.68 16.34 -1 16 C-1.33 16.99 -1.66 17.98 -2 19 C-2.99 19 -3.98 19 -5 19 C-5.16321385 14.10358447 -5.18113141 11.36226282 -3 7 C-3.78309467 4.76529595 -3.78309467 4.76529595 -5 3 C-3.35 2.67 -1.7 2.34 0 2 C0 1.34 0 0.68 0 0 Z " fill="#BDC0BD" transform="translate(154,42)"/>
<path d="M0 0 C-2.45629182 6.63198791 -2.45629182 6.63198791 -4.7890625 8.2109375 C-7.35348043 9.12615379 -9.40591808 9.26623332 -12.125 9.25 C-13.42824219 9.25773438 -13.42824219 9.25773438 -14.7578125 9.265625 C-17 9 -17 9 -19 7 C-18.278125 6.7525 -17.55625 6.505 -16.8125 6.25 C-13.74942192 4.88863197 -11.58665661 3.11016723 -9 1 C-5.8035914 -0.06546953 -3.34252724 -0.07427838 0 0 Z " fill="#B0B3B0" transform="translate(140,126)"/>
<path d="M0 0 C2.59577131 0.96414363 4.91127261 1.94331306 7.25 3.4375 C9.72657861 4.84464694 11.79904048 5.61469114 14.5 6.4375 C18.37099473 7.65483445 20.96761339 9.2432849 24 12 C24.66 12.33 25.32 12.66 26 13 C25.67 13.33 25.34 13.66 25 14 C24.63239269 16.32817964 24.29758419 18.6618385 24 21 C22.68 20.67 21.36 20.34 20 20 C19.34 16.7 18.68 13.4 18 10 C16.494375 9.5875 14.98875 9.175 13.4375 8.75 C8.80930398 7.37404983 5.07413339 5.5684754 1 3 C1 4.98 1 6.96 1 9 C0.34 8.34 -0.32 7.68 -1 7 C-0.625 3.375 -0.625 3.375 0 0 Z " fill="#949795" transform="translate(79,50)"/>
<path d="M0 0 C1.89213369 2.38573379 3.02391783 4.07175348 4 7 C4.66 7.33 5.32 7.66 6 8 C6 8.66 6 9.32 6 10 C9.63 10 13.26 10 17 10 C14.27773234 12.72226766 11.63311582 13.78896139 8 15 C1.55555556 12.55555556 1.55555556 12.55555556 0 11 C-0.66 11.99 -1.32 12.98 -2 14 C-2.1799928 8.78020872 -1.97094808 4.92737019 0 0 Z " fill="#A0A3A1" transform="translate(67,76)"/>
<path d="M0 0 C-0.30630976 2.83336529 -0.62394159 4.56126519 -2.5 6.75 C-6.1910574 8.5955287 -9.92080486 8.74722936 -14 9 C-13.875 6.75 -13.875 6.75 -13 4 C-8.70151806 0.2132421 -5.65125964 -0.45210077 0 0 Z " fill="#B8BBB8" transform="translate(79,14)"/>
<path d="M0 0 C0.99 0 1.98 0 3 0 C3 3.63 3 7.26 3 11 C-4.6171875 11.9765625 -4.6171875 11.9765625 -7 12 C-9 10 -9 10 -9.125 6.875 C-9.08375 5.92625 -9.0425 4.9775 -9 4 C-8.34 4 -7.68 4 -7 4 C-7 5.98 -7 7.96 -7 10 C-6.01 10 -5.02 10 -4 10 C-4 8.02 -4 6.04 -4 4 C-2.68 4 -1.36 4 0 4 C0 2.68 0 1.36 0 0 Z " fill="#868886" transform="translate(89,158)"/>
<path d="M0 0 C0.61875 0.7425 0.61875 0.7425 1.25 1.5 C3.12202338 3.43386092 3.12202338 3.43386092 7 3 C5.68 4.32 4.36 5.64 3 7 C6.96 7 10.92 7 15 7 C15 6.34 15 5.68 15 5 C14.34 4.67 13.68 4.34 13 4 C14.32 4.33 15.64 4.66 17 5 C16 8 16 8 14 9 C10.65186916 9.03083805 7.31559587 8.93240033 3.96875 8.83984375 C0.87965924 8.67501482 0.87965924 8.67501482 -1 11 C-4.125 11.125 -4.125 11.125 -7 11 C-7.6875 8.75 -7.6875 8.75 -8 6 C-6.5625 3.6875 -6.5625 3.6875 -5 2 C-4.34 2.33 -3.68 2.66 -3 3 C-3.99 4.485 -3.99 4.485 -5 6 C-4.01 5.34 -3.02 4.68 -2 4 C-1.67 5.32 -1.34 6.64 -1 8 C-0.17361624 5.10765685 0 3.11257569 0 0 Z " fill="#ADB1AE" transform="translate(56,23)"/>
<path d="M0 0 C0.99 0.33 1.98 0.66 3 1 C3 1.99 3 2.98 3 4 C4.93784265 3.85879286 6.87526955 3.71187127 8.8125 3.5625 C10.43091797 3.44068359 10.43091797 3.44068359 12.08203125 3.31640625 C15.05989905 3.09787539 15.05989905 3.09787539 18 2 C20.6875 2.4375 20.6875 2.4375 23 3 C23 3.66 23 4.32 23 5 C18.05 5.33 13.1 5.66 8 6 C7.67 7.32 7.34 8.64 7 10 C6.01 9.34 5.02 8.68 4 8 C4 7.34 4 6.68 4 6 C2.56138706 6.08746284 1.12402492 6.19565348 -0.3125 6.3125 C-1.11300781 6.37050781 -1.91351563 6.42851562 -2.73828125 6.48828125 C-5.36272334 7.08206694 -6.30820672 7.95780294 -8 10 C-8.33 8.35 -8.66 6.7 -9 5 C-6.03 5 -3.06 5 0 5 C-0.33 4.01 -0.66 3.02 -1 2 C-0.67 1.34 -0.34 0.68 0 0 Z " fill="#888C88" transform="translate(100,131)"/>
<path d="M0 0 C0.33 0.99 0.66 1.98 1 3 C9.415 2.505 9.415 2.505 18 2 C18 1.67 18 1.34 18 1 C24.27 1 30.54 1 37 1 C37 1.99 37 2.98 37 4 C24.79 4 12.58 4 0 4 C0 2.68 0 1.36 0 0 Z " fill="#696C69" transform="translate(61,95)"/>
<path d="M0 0 C0.79921875 0.00644531 1.5984375 0.01289062 2.421875 0.01953125 C3.246875 0.03628906 4.071875 0.05304688 4.921875 0.0703125 C5.76234375 0.07933594 6.6028125 0.08835937 7.46875 0.09765625 C9.53658104 0.12115433 11.60426495 0.15702342 13.671875 0.1953125 C13.671875 0.5253125 13.671875 0.8553125 13.671875 1.1953125 C9.216875 1.6903125 9.216875 1.6903125 4.671875 2.1953125 C7.641875 2.5253125 10.611875 2.8553125 13.671875 3.1953125 C13.671875 3.5253125 13.671875 3.8553125 13.671875 4.1953125 C12.40730469 4.24429688 11.14273438 4.29328125 9.83984375 4.34375 C8.17966553 4.4187863 6.51951036 4.49433377 4.859375 4.5703125 C4.02599609 4.60125 3.19261719 4.6321875 2.33398438 4.6640625 C1.53154297 4.70273438 0.72910156 4.74140625 -0.09765625 4.78125 C-0.83604736 4.8126709 -1.57443848 4.8440918 -2.33520508 4.87646484 C-4.64162088 5.10365864 -4.64162088 5.10365864 -7.328125 7.1953125 C-8.318125 6.8653125 -9.308125 6.5353125 -10.328125 6.1953125 C-9.36737313 3.79343284 -8.75086476 2.45738375 -6.52050781 1.07470703 C-4.15595501 0.12625278 -2.53476783 -0.03621097 0 0 Z " fill="#8B8E8B" transform="translate(115.328125,81.8046875)"/>
<path d="M0 0 C-0.1141866 1.93816735 -0.24173423 3.87555099 -0.375 5.8125 C-0.44460937 6.89144531 -0.51421875 7.97039062 -0.5859375 9.08203125 C-1 12 -1 12 -3 15 C-4.19287411 11.12315913 -5 8.08378077 -5 4 C-5.66 3.67 -6.32 3.34 -7 3 C-7.03738281 3.60328125 -7.07476562 4.2065625 -7.11328125 4.828125 C-7.76625659 12.76625659 -7.76625659 12.76625659 -11 16 C-12.12214652 12.63356045 -11.9256268 12.17087872 -10.625 9.0625 C-9.52376629 6.39175095 -8.64327446 3.81905572 -8 1 C-1.125 0 -1.125 0 0 0 Z " fill="#828582" transform="translate(79,57)"/>
<path d="M0 0 C3.375 -0.125 3.375 -0.125 7 0 C7.66 0.66 8.32 1.32 9 2 C8.625 4.625 8.625 4.625 8 7 C6.68 7.33 5.36 7.66 4 8 C4 9.32 4 10.64 4 12 C3.01 12 2.02 12 1 12 C0.67 8.04 0.34 4.08 0 0 Z " fill="#9DA09D" transform="translate(106,179)"/>
<path d="M0 0 C2 2 2 2 4 5 C2.06833984 5.09087891 2.06833984 5.09087891 0.09765625 5.18359375 C-1.58074159 5.26798247 -3.25912636 5.3526313 -4.9375 5.4375 C-6.21270508 5.49647461 -6.21270508 5.49647461 -7.51367188 5.55664062 C-8.72700195 5.61948242 -8.72700195 5.61948242 -9.96484375 5.68359375 C-10.7137085 5.72025146 -11.46257324 5.75690918 -12.23413086 5.79467773 C-14.02461326 5.81771063 -14.02461326 5.81771063 -15 7 C-20.30621203 8.36902269 -25.50414765 9.28925539 -31 9 C-30.34 7.68 -29.68 6.36 -29 5 C-27.1746875 5.0309375 -27.1746875 5.0309375 -25.3125 5.0625 C-19.31223415 5.15908135 -19.31223415 5.15908135 -14.1875 2.4375 C-13.795625 1.963125 -13.40375 1.48875 -13 1 C-13 1.99 -13 2.98 -13 4 C-11.20741442 3.91306859 -9.41584856 3.80489496 -7.625 3.6875 C-6.62726563 3.62949219 -5.62953125 3.57148438 -4.6015625 3.51171875 C-3.74304688 3.34285156 -2.88453125 3.17398437 -2 3 C-1.34 2.01 -0.68 1.02 0 0 Z " fill="#828683" transform="translate(109,8)"/>
<path d="M0 0 C2.00720923 0.28674418 4.0085944 0.61866701 6 1 C6 4.63 6 8.26 6 12 C3.69 12 1.38 12 -1 12 C-1.02687279 10.18757948 -1.04633715 8.37504767 -1.0625 6.5625 C-1.07410156 5.55316406 -1.08570312 4.54382813 -1.09765625 3.50390625 C-1 1 -1 1 0 0 Z " fill="#8F918F" transform="translate(68,179)"/>
<path d="M0 0 C0.66 0.33 1.32 0.66 2 1 C4.62113708 1 6.50935112 0.68707555 9 0 C8.8125 2.3125 8.8125 2.3125 8 5 C3.8713153 8.32759662 0.84097039 8.21729602 -4.3125 7.6875 C-5.56675781 7.56761719 -6.82101563 7.44773437 -8.11328125 7.32421875 C-9.54220703 7.16373047 -9.54220703 7.16373047 -11 7 C-7.55549263 4.70366176 -5.06187717 4.45983515 -1 4 C-1.99 3.34 -2.98 2.68 -4 2 C-2.125 0.9375 -2.125 0.9375 0 0 Z " fill="#C6C8C6" transform="translate(128,78)"/>
<path d="M0 0 C3.55313263 0.98698129 4.98292632 1.9802996 7.4375 4.8125 C9 8 9 8 8.25 10.875 C7.8375 11.57625 7.425 12.2775 7 13 C4.43853811 11.54872786 2.12207474 10.05083002 0 8 C-1 4.25 -1 4.25 -1 1 C-0.67 0.67 -0.34 0.34 0 0 Z " fill="#D9DAD9" transform="translate(77,122)"/>
<path d="M0 0 C6.38342541 0.60220994 6.38342541 0.60220994 8.9375 2.25 C10.35440053 4.58371852 10.21718696 6.32136078 10 9 C7.3125 9.375 7.3125 9.375 4 9 C1.71933982 7.1858385 0.62415057 5.51005088 -1 3 C-0.67 2.01 -0.34 1.02 0 0 Z " fill="#D9DBD9" transform="translate(63,124)"/>
<path d="M0 0 C2.875 -0.125 2.875 -0.125 6 0 C6.66 0.66 7.32 1.32 8 2 C7.625 4.625 7.625 4.625 7 7 C5.35 7.33 3.7 7.66 2 8 C2 8.99 2 9.98 2 11 C1.34 11 0.68 11 0 11 C0 7.37 0 3.74 0 0 Z " fill="#949694" transform="translate(90,183)"/>
<path d="M0 0 C0.66 0.33 1.32 0.66 2 1 C1.40539047 2.91965309 0.79890739 4.83563079 0.1875 6.75 C-0.14894531 7.81734375 -0.48539063 8.8846875 -0.83203125 9.984375 C-1.91882377 12.79040787 -3.06852537 14.71986376 -5 17 C-5 16.01 -5 15.02 -5 14 C-5.66 13.67 -6.32 13.34 -7 13 C-5.68 11.68 -4.36 10.36 -3 9 C-4.65 8.67 -6.3 8.34 -8 8 C-7.9375 6.25 -7.9375 6.25 -7 4 C-4.74876994 2.27481113 -2.59865097 1.23093993 0 0 Z " fill="#C6C8C6" transform="translate(159,89)"/>
<path d="M0 0 C0.66 0.33 1.32 0.66 2 1 C2.375 4.1875 2.375 4.1875 2 8 C0.19771976 10.2472877 -1.54459733 11.37943424 -4 13 C-4.66 13 -5.32 13 -6 13 C-6.7230444 6.97463002 -6.7230444 6.97463002 -4.6640625 4.19921875 C-3.17261584 2.73227943 -1.59067631 1.35870269 0 0 Z " fill="#DEE0DE" transform="translate(46,76)"/>
<path d="M0 0 C0.433125 0.66 0.86625 1.32 1.3125 2 C2.1478125 2.99 2.1478125 2.99 3 4 C3.99 4 4.98 4 6 4 C7.6875 5.375 7.6875 5.375 9 7 C9 7.66 9 8.32 9 9 C6.40759181 10.8597711 3.85589153 12.57205423 1 14 C1 10.7 1 7.4 1 4 C0.34 4 -0.32 4 -1 4 C-1.33 5.32 -1.66 6.64 -2 8 C-2.33 7.34 -2.66 6.68 -3 6 C-2.67 5.01 -2.34 4.02 -2 3 C-1.34 3 -0.68 3 0 3 C0 2.01 0 1.02 0 0 Z " fill="#D5D6D5" transform="translate(102,74)"/>
<path d="M0 0 C0.66 0 1.32 0 2 0 C2.33 0.99 2.66 1.98 3 3 C7.49989732 4.73072974 10.36359574 5.05974955 15 4 C15.66 4.66 16.32 5.32 17 6 C16.625 8.125 16.625 8.125 16 10 C15.34 8.68 14.68 7.36 14 6 C13.34 6 12.68 6 12 6 C12 7.98 12 9.96 12 12 C11.01 11.67 10.02 11.34 9 11 C9 10.01 9 9.02 9 8 C8.34 8 7.68 8 7 8 C6.67 7.34 6.34 6.68 6 6 C5.34 6 4.68 6 4 6 C4.33 7.98 4.66 9.96 5 12 C3.046875 11.3203125 3.046875 11.3203125 1 10 C0.390625 7.6171875 0.390625 7.6171875 0.25 4.875 C0.19328125 3.96492187 0.1365625 3.05484375 0.078125 2.1171875 C0.05234375 1.41851562 0.0265625 0.71984375 0 0 Z " fill="#6E716F" transform="translate(104,157)"/>
<path d="M0 0 C-0.08746284 1.43861294 -0.19565348 2.87597508 -0.3125 4.3125 C-0.37050781 5.11300781 -0.42851562 5.91351563 -0.48828125 6.73828125 C-1.09301007 9.41109031 -1.80462248 10.38866591 -4 12 C-4.99 12 -5.98 12 -7 12 C-7.43684211 6.75789474 -7.43684211 6.75789474 -7 4 C-3.2 0 -3.2 0 0 0 Z " fill="#D0D2D0" transform="translate(162,60)"/>
<path d="M0 0 C1.84827434 3.6125362 3.55049545 7.2089881 5 11 C4.01 11.66 3.02 12.32 2 13 C1.01 9.37 0.02 5.74 -1 2 C-2.65 2.66 -4.3 3.32 -6 4 C-8.2199707 4.31884766 -8.2199707 4.31884766 -10.42578125 4.4140625 C-11.22177734 4.45273437 -12.01777344 4.49140625 -12.83789062 4.53125 C-13.65451172 4.5621875 -14.47113281 4.593125 -15.3125 4.625 C-16.56643555 4.68300781 -16.56643555 4.68300781 -17.84570312 4.7421875 C-19.89679259 4.83595159 -21.94836515 4.91904245 -24 5 C-21.19270401 2.19270401 -19.16748367 2.66529467 -15.25 2.5 C-10.00507069 2.27681152 -5.01932679 0 0 0 Z " fill="#969996" transform="translate(129,57)"/>
<path d="M0 0 C0.268125 0.639375 0.53625 1.27875 0.8125 1.9375 C1.88667752 4.33131686 1.88667752 4.33131686 5 5 C6.01765927 6.99107248 7.01577854 8.99218823 8 11 C10.74742882 14.38849554 12.65879768 15.51764419 17 16 C16.01 18.475 16.01 18.475 15 21 C13.85073734 20.04578192 12.70569459 19.08647955 11.5625 18.125 C10.92441406 17.59132813 10.28632813 17.05765625 9.62890625 16.5078125 C8 15 8 15 7 13 C6.01 13 5.02 13 4 13 C3.7525 12.113125 3.505 11.22625 3.25 10.3125 C1.96065232 6.89572865 0.40019871 4.7202252 -2 2 C-1.34 2 -0.68 2 0 2 C0 1.34 0 0.68 0 0 Z " fill="#6B6E6B" transform="translate(139,21)"/>
<path d="M0 0 C0.433125 0.495 0.86625 0.99 1.3125 1.5 C2.99740483 3.33218192 2.99740483 3.33218192 6 3 C5.67 3.66 5.34 4.32 5 5 C5.66 5.66 6.32 6.32 7 7 C5.35 7.66 3.7 8.32 2 9 C2 9.66 2 10.32 2 11 C0.35 10.67 -1.3 10.34 -3 10 C-2.49287967 6.28111761 -1.88391785 3.26545761 0 0 Z " fill="#ABAEAB" transform="translate(52,36)"/>
<path d="M0 0 C0.99 1.32 1.98 2.64 3 4 C2.67 4.66 2.34 5.32 2 6 C1.01 5.67 0.02 5.34 -1 5 C-1.391875 5.45375 -1.78375 5.9075 -2.1875 6.375 C-4.38987917 8.34954684 -6.15580008 9.18737145 -9 10 C-11.75 9.75 -11.75 9.75 -14 9 C-14.33 8.34 -14.66 7.68 -15 7 C-14.00419922 6.70996094 -14.00419922 6.70996094 -12.98828125 6.4140625 C-6.40210691 4.47248648 -6.40210691 4.47248648 0 2 C0 1.34 0 0.68 0 0 Z " fill="#E6E7E6" transform="translate(136,81)"/>
<path d="M0 0 C3.95820859 0.56545837 6.6659053 1.80902348 10 4 C9.67 4.99 9.34 5.98 9 7 C5.98731243 7.92054342 4.57270838 8.27861489 1.6875 6.875 C0 5 0 5 -0.25 2.3125 C-0.1675 1.549375 -0.085 0.78625 0 0 Z " fill="#E0E2E1" transform="translate(130,16)"/>
<path d="M0 0 C1.89510699 -0.08160748 3.79124504 -0.13946459 5.6875 -0.1875 C6.74324219 -0.22230469 7.79898438 -0.25710937 8.88671875 -0.29296875 C12.40070518 0.03770751 14.24843792 0.8099812 17 3 C17 3.99 17 4.98 17 6 C16.01 5.34 15.02 4.68 14 4 C11.48415109 3.75849227 11.48415109 3.75849227 8.8125 3.875 C7.46091797 3.90207031 7.46091797 3.90207031 6.08203125 3.9296875 C5.05142578 3.96449219 5.05142578 3.96449219 4 4 C3.67 3.01 3.34 2.02 3 1 C2.01 0.67 1.02 0.34 0 0 Z " fill="#848684" transform="translate(82,78)"/>
<path d="M0 0 C1.2684375 0.0309375 1.2684375 0.0309375 2.5625 0.0625 C3.2225 0.0625 3.8825 0.0625 4.5625 0.0625 C5.5525 0.0625 6.5425 0.0625 7.5625 0.0625 C7.8925 2.7025 8.2225 5.3425 8.5625 8.0625 C6.5625 7.0625 6.5625 7.0625 5.5625 4.0625 C5.2325 4.7225 4.9025 5.3825 4.5625 6.0625 C3.9025 6.0625 3.2425 6.0625 2.5625 6.0625 C2.2325 4.4125 1.9025 2.7625 1.5625 1.0625 C0.5725 1.0625 -0.4175 1.0625 -1.4375 1.0625 C-1.1075 3.3725 -0.7775 5.6825 -0.4375 8.0625 C-1.4275 7.7325 -2.4175 7.4025 -3.4375 7.0625 C-3.48004356 5.06295254 -3.47830783 3.06208364 -3.4375 1.0625 C-2.4375 0.0625 -2.4375 0.0625 0 0 Z " fill="#727472" transform="translate(137.4375,182.9375)"/>
<path d="M0 0 C0.99 0 1.98 0 3 0 C5.07375887 4.39148936 5.07375887 4.39148936 4.75 7.0625 C3.95403656 9.1187389 3.04100872 11.05678373 2 13 C1.34 13 0.68 13 0 13 C-1.57170996 9.85658007 -1.23175783 6.44228549 -1 3 C-0.67 2.01 -0.34 1.02 0 0 Z " fill="#E4E5E4" transform="translate(164,71)"/>
<path d="M0 0 C1.875 1.5625 1.875 1.5625 3 3 C1.375 4.5625 1.375 4.5625 -1 6 C-4.25 5.6875 -4.25 5.6875 -7 5 C-6.01 4.34 -5.02 3.68 -4 3 C-5.98 3.33 -7.96 3.66 -10 4 C-7.58657152 -1.34402021 -5.62540996 -1.37765142 0 0 Z " fill="#DEE0DE" transform="translate(130,7)"/>
<path d="M0 0 C0.99 0 1.98 0 3 0 C3 3.63 3 7.26 3 11 C4.65 10.67 6.3 10.34 8 10 C7.67 10.99 7.34 11.98 7 13 C4.69 12.67 2.38 12.34 0 12 C0 8.04 0 4.08 0 0 Z " fill="#8A8D8A" transform="translate(52,157)"/>
<path d="M0 0 C1.65 0 3.3 0 5 0 C5.66 2.31 6.32 4.62 7 7 C4 9 4 9 0.8125 8.625 C-0.5796875 8.315625 -0.5796875 8.315625 -2 8 C-0.25 4.125 -0.25 4.125 2 3 C1.34 2.01 0.68 1.02 0 0 Z " fill="#CFD1CF" transform="translate(86,135)"/>
<path d="M0 0 C0.99 0 1.98 0 3 0 C3.05395478 1.62463842 3.09277195 3.24978541 3.125 4.875 C3.14820313 5.77992187 3.17140625 6.68484375 3.1953125 7.6171875 C3 10 3 10 1 12 C0.34 12 -0.32 12 -1 12 C-3.31632653 5.78249194 -3.31632653 5.78249194 -1.8125 2.0625 C-0.9153125 1.0415625 -0.9153125 1.0415625 0 0 Z " fill="#E7E8E7" transform="translate(37,65)"/>
<path d="M0 0 C4.5220607 2.26103035 5.22520129 3.42288753 7 8 C6.67 8.99 6.34 9.98 6 11 C3.525 10.01 3.525 10.01 1 9 C0.67 6.03 0.34 3.06 0 0 Z " fill="#E5E6E5" transform="translate(118,14)"/>
<path d="M0 0 C-0.33 1.65 -0.66 3.3 -1 5 C-7.75 5.125 -7.75 5.125 -10 4 C-9 1 -9 1 -7.25 -0.25 C-4.47275102 -1.17574966 -2.78428335 -0.77341204 0 0 Z " fill="#D7D9D7" transform="translate(147,107)"/>
<path d="M0 0 C0.99 0 1.98 0 3 0 C4.3403676 6.33628319 4.3403676 6.33628319 2.75 9.4375 C1 11 1 11 -2 11 C-1.85892253 9.54119891 -1.71197585 8.08296449 -1.5625 6.625 C-1.48128906 5.81289062 -1.40007812 5.00078125 -1.31640625 4.1640625 C-1 2 -1 2 0 0 Z " fill="#F0F1F0" transform="translate(144,123)"/>
<path d="M0 0 C3.91402949 1.26941497 5.79072873 2.51167694 8 6 C7.67 6.66 7.34 7.32 7 8 C4.9375 8.625 4.9375 8.625 3 9 C0.90250005 6.64031256 0.03094296 5.45383006 -0.1875 2.25 C-0.125625 1.5075 -0.06375 0.765 0 0 Z " fill="#D7D9D7" transform="translate(89,123)"/>
<path d="M0 0 C-0.99 0.66 -1.98 1.32 -3 2 C-1.35 2 0.3 2 2 2 C2 2.66 2 3.32 2 4 C-3.61 4 -9.22 4 -15 4 C-14.34 3.67 -13.68 3.34 -13 3 C-13 2.34 -13 1.68 -13 1 C-8.60563789 0.14256349 -4.47427924 -0.08948558 0 0 Z " fill="#EEEFEE" transform="translate(95,92)"/>
<path d="M0 0 C1.75 0.125 1.75 0.125 4 1 C6.25 4.0625 6.25 4.0625 8 7 C7.67 7.66 7.34 8.32 7 9 C3.89448334 9 2.64738916 8.4606285 0 7 C0 4.69 0 2.38 0 0 Z " fill="#E0E1E0" transform="translate(29,78)"/>
<path d="M0 0 C2.64 0.33 5.28 0.66 8 1 C8.33 3.31 8.66 5.62 9 8 C7.0625 7.1875 7.0625 7.1875 5 6 C4.67 5.01 4.34 4.02 4 3 C3.34 2.67 2.68 2.34 2 2 C2 3.98 2 5.96 2 8 C1.34 8 0.68 8 0 8 C0 5.36 0 2.72 0 0 Z " fill="#676A67" transform="translate(123,161)"/>
<path d="M0 0 C0.66 0 1.32 0 2 0 C2 3.63 2 7.26 2 11 C-2.5 8.75 -2.5 8.75 -4 5 C-2.71937515 3.2925002 -1.38232443 1.62626404 0 0 Z " fill="#C7C9C7" transform="translate(57,107)"/>
<path d="M0 0 C4.29 0.33 8.58 0.66 13 1 C10.27773234 3.72226766 7.63311582 4.78896139 4 6 C0.8125 5.0625 0.8125 5.0625 -2 4 C-1.34 2.68 -0.68 1.36 0 0 Z " fill="#A8ABA8" transform="translate(71,85)"/>
<path d="M0 0 C4.08110856 2.0957044 5.79901179 4.01725944 8 8 C8.66 8.33 9.32 8.66 10 9 C11.88141079 11.90050829 13.50094109 14.88656995 15 18 C9.76708905 15.90683562 8.24023309 14.09143883 6 9 C3.78258196 5.9510502 2.15213668 4.10142446 -1 2 C-0.67 1.34 -0.34 0.68 0 0 Z " fill="#656A65" transform="translate(48,108)"/>
<path d="M0 0 C0.33 0.66 0.66 1.32 1 2 C0.01 2.33 -0.98 2.66 -2 3 C-2.144375 3.639375 -2.28875 4.27875 -2.4375 4.9375 C-3 7 -3 7 -5.0625 8.25 C-5.701875 8.4975 -6.34125 8.745 -7 9 C-6.67 6.69 -6.34 4.38 -6 2 C-8.475 3.485 -8.475 3.485 -11 5 C-8.45499142 -0.63537615 -5.97208347 -0.11059414 0 0 Z " fill="#999D9A" transform="translate(168,58)"/>
<path d="M0 0 C6.75 -0.125 6.75 -0.125 9 1 C8.67 1.99 8.34 2.98 8 4 C4.9375 5.1875 4.9375 5.1875 2 6 C1.01 5.01 0.02 4.02 -1 3 C-0.67 2.01 -0.34 1.02 0 0 Z " fill="#DFE0DF" transform="translate(57,37)"/>
<path d="M0 0 C1.45823212 -0.0270043 2.91660675 -0.04639787 4.375 -0.0625 C5.18710938 -0.07410156 5.99921875 -0.08570312 6.8359375 -0.09765625 C9 0 9 0 11 1 C11 1.66 11 2.32 11 3 C8.75487738 4.12256131 7.48543351 4.13413762 5 4.125 C3.948125 4.12886719 3.948125 4.12886719 2.875 4.1328125 C1 4 1 4 -1 3 C-0.67 2.01 -0.34 1.02 0 0 Z " fill="#E5E7E6" transform="translate(60,27)"/>
<path d="M0 0 C0.66 0 1.32 0 2 0 C3.2890625 1.75 3.2890625 1.75 4.625 4 C5.07101563 4.7425 5.51703125 5.485 5.9765625 6.25 C6.31429687 6.8275 6.65203125 7.405 7 8 C5.68 7.67 4.36 7.34 3 7 C2.67 7.66 2.34 8.32 2 9 C1.01 9 0.02 9 -1 9 C-1.09765625 2.84765625 -1.09765625 2.84765625 -1 1 C-0.67 0.67 -0.34 0.34 0 0 Z " fill="#838583" transform="translate(62,161)"/>
<path d="M0 0 C0.763125 0.20625 1.52625 0.4125 2.3125 0.625 C1.3125 3.625 1.3125 3.625 -0.4375 4.8125 C-2.98710574 5.73319096 -4.99673081 5.77448718 -7.6875 5.625 C-6.02612914 1.79106724 -4.59035464 -0.6405146 0 0 Z " fill="#E8E9E8" transform="translate(134.6875,128.375)"/>
<path d="M0 0 C2.31 0.33 4.62 0.66 7 1 C5.89300099 4.21029714 4.98396175 5.00968977 2 6.8125 C1.01 7.204375 0.02 7.59625 -1 8 C-1.66 7.67 -2.32 7.34 -3 7 C-2.01 4.69 -1.02 2.38 0 0 Z " fill="#D8DAD8" transform="translate(45,51)"/>
<path d="M0 0 C0 1.32 0 2.64 0 4 C-1.98 4.99 -3.96 5.98 -6 7 C-6.66 5.35 -7.32 3.7 -8 2 C-4.77208445 -0.1519437 -3.71599191 -0.20086443 0 0 Z " fill="#D3D5D3" transform="translate(117,5)"/>
<path d="M0 0 C4.75 1.875 4.75 1.875 7 3 C6.67 3.33 6.34 3.66 6 4 C5.63239269 6.32817964 5.29758419 8.6618385 5 11 C3.68 10.67 2.36 10.34 1 10 C0.67 6.7 0.34 3.4 0 0 Z " fill="#C4C6C4" transform="translate(98,60)"/>
<path d="M0 0 C0.66 0.33 1.32 0.66 2 1 C1.67 2.65 1.34 4.3 1 6 C-1.31 6.66 -3.62 7.32 -6 8 C-6.66 7.01 -7.32 6.02 -8 5 C-6.35 4.67 -4.7 4.34 -3 4 C-2.67 3.01 -2.34 2.02 -2 1 C-1.34 0.67 -0.68 0.34 0 0 Z " fill="#8F9290" transform="translate(135,85)"/>
<path d="M0 0 C0.05416188 1.60379341 0.09286638 3.20811406 0.125 4.8125 C0.14820312 5.70582031 0.17140625 6.59914063 0.1953125 7.51953125 C0 10 0 10 -2 13 C-2.33 11.35 -2.66 9.7 -3 8 C-3.99 8.495 -3.99 8.495 -5 9 C-4.67 6.36 -4.34 3.72 -4 1 C-1 0 -1 0 0 0 Z " fill="#6A6D6A" transform="translate(70,70)"/>
<path d="M0 0 C3.875 1.875 3.875 1.875 5 3 C5.04063832 4.66617115 5.042721 6.33388095 5 8 C4.34 7.01 3.68 6.02 3 5 C2.67 6.98 2.34 8.96 2 11 C1.67 11 1.34 11 1 11 C0.67 9.35 0.34 7.7 0 6 C-0.33 7.98 -0.66 9.96 -1 12 C-1.33 12 -1.66 12 -2 12 C-2.28571429 3.42857143 -2.28571429 3.42857143 0 0 Z " fill="#A7AAA7" transform="translate(164,68)"/>
<path d="M0 0 C1.32 0 2.64 0 4 0 C3.34 3.96 2.68 7.92 2 12 C0.04131238 8.08262477 -0.59339923 5.30996812 -1 1 C-0.67 0.67 -0.34 0.34 0 0 Z " fill="#9B9E9B" transform="translate(75,60)"/>
<path d="M0 0 C1.99954746 -0.04254356 4.00041636 -0.04080783 6 0 C7 1 7 1 7.0625 4.5625 C7.041875 5.696875 7.02125 6.83125 7 8 C6.34 7.67 5.68 7.34 5 7 C4.375 4.4375 4.375 4.4375 4 2 C3.67 2 3.34 2 3 2 C2.67 3.98 2.34 5.96 2 8 C1.34 8 0.68 8 0 8 C0 5.36 0 2.72 0 0 Z " fill="#606461" transform="translate(76,183)"/>
<path d="M0 0 C3 3.625 3 3.625 3 7 C0.69 7 -1.62 7 -4 7 C-4 4 -4 4 -3 1 C-2.01 0.67 -1.02 0.34 0 0 Z " fill="#A9ACAA" transform="translate(41,93)"/>
<path d="M0 0 C2.64 0 5.28 0 8 0 C8.33 0.99 8.66 1.98 9 3 C8.01 3.495 8.01 3.495 7 4 C7 4.99 7 5.98 7 7 C4.03 7 1.06 7 -2 7 C1 5 1 5 4 5 C3.24849977 1.72226496 3.24849977 1.72226496 0 0 Z " fill="#C2C5C3" transform="translate(91,88)"/>
<path d="M0 0 C1.67542976 0.28604898 3.34385343 0.61781233 5 1 C4.34 3.31 3.68 5.62 3 8 C2.01 8 1.02 8 0 8 C-0.38063221 5.6739143 -0.71269945 3.33944736 -1 1 C-0.67 0.67 -0.34 0.34 0 0 Z " fill="#E0E1E0" transform="translate(57,18)"/>
<path d="M0 0 C2 1.8125 2 1.8125 4 4 C4 4.99 4 5.98 4 7 C1.125 6.75 1.125 6.75 -2 6 C-3.375 3.9375 -3.375 3.9375 -4 2 C-2.68 1.34 -1.36 0.68 0 0 Z " fill="#D4D6D4" transform="translate(165,49)"/>
<path d="M0 0 C-0.625 1.9375 -0.625 1.9375 -2 4 C-5 4.875 -5 4.875 -8 5 C-8.66 4.34 -9.32 3.68 -10 3 C-6.68152292 -0.06320961 -4.44849969 -0.3033068 0 0 Z " fill="#EAEBEA" transform="translate(77,16)"/>
<path d="M0 0 C0.66 0 1.32 0 2 0 C2 2.97 2 5.94 2 9 C1.01 8.67 0.02 8.34 -1 8 C-1 7.01 -1 6.02 -1 5 C-1.66 5 -2.32 5 -3 5 C-3.66 3.68 -4.32 2.36 -5 1 C-3.68 1 -2.36 1 -1 1 C-0.67 0.67 -0.34 0.34 0 0 Z " fill="#7B7E7B" transform="translate(137,160)"/>
<path d="M0 0 C-1 2 -1 2 -4.1875 3.1875 C-7.96076983 3.99163947 -10.29472477 3.90372567 -14 3 C-9.7368213 0.15788087 -5.03577274 -2.0143091 0 0 Z " fill="#7E817E" transform="translate(129,92)"/>
<path d="M0 0 C-1.57725347 0.70133599 -3.16211333 1.385583 -4.75 2.0625 C-5.63171875 2.44535156 -6.5134375 2.82820313 -7.421875 3.22265625 C-10.15256309 4.04600008 -11.36901347 3.9773992 -14 3 C-14 2.01 -14 1.02 -14 0 C-12.2300132 -0.19532961 -10.45895721 -0.38098882 -8.6875 -0.5625 C-7.70136719 -0.66691406 -6.71523437 -0.77132812 -5.69921875 -0.87890625 C-3 -1 -3 -1 0 0 Z " fill="#F3F3F3" transform="translate(123,92)"/>
<path d="M0 0 C0.99 0.33 1.98 0.66 3 1 C4.2077558 4.62326739 3.54311128 5.64146369 2 9 C1.01 9 0.02 9 -1 9 C-1.09765625 2.84765625 -1.09765625 2.84765625 -1 1 C-0.67 0.67 -0.34 0.34 0 0 Z " fill="#CACDCA" transform="translate(144,33)"/>
<path d="M0 0 C0.99 0 1.98 0 3 0 C3.185625 1.2065625 3.185625 1.2065625 3.375 2.4375 C3.58125 3.283125 3.7875 4.12875 4 5 C4.66 5.33 5.32 5.66 6 6 C4.34385343 6.38218767 2.67542976 6.71395102 1 7 C0 6 0 6 -0.0625 2.9375 C-0.041875 1.968125 -0.02125 0.99875 0 0 Z M6 2 C6.99 2.495 6.99 2.495 8 3 C8 3.66 8 4.32 8 5 C7.34 5 6.68 5 6 5 C6 4.01 6 3.02 6 2 Z " fill="#EBECEB" transform="translate(136,184)"/>
<path d="M0 0 C1.32 0.66 2.64 1.32 4 2 C4 3.32 4 4.64 4 6 C2.35 6 0.7 6 -1 6 C-1.33 6.99 -1.66 7.98 -2 9 C-2.33 8.01 -2.66 7.02 -3 6 C-3.99 5.67 -4.98 5.34 -6 5 C-4.02 4.34 -2.04 3.68 0 3 C0 2.01 0 1.02 0 0 Z " fill="#939793" transform="translate(150,101)"/>
<path d="M0 0 C0.99 0.33 1.98 0.66 3 1 C4.1875 3.5625 4.1875 3.5625 5 6 C3.35 6.66 1.7 7.32 0 8 C-0.38063221 5.6739143 -0.71269945 3.33944736 -1 1 C-0.67 0.67 -0.34 0.34 0 0 Z " fill="#E4E5E4" transform="translate(116,162)"/>
<path d="M0 0 C1.8125 1.5 1.8125 1.5 3 3 C1.12356239 4.87643761 -1.49805701 4.17984987 -3.9921875 4.23046875 C-6 4 -6 4 -9 2 C-5.88578592 0.1545398 -3.61678684 -0.46369062 0 0 Z " fill="#EEEFEE" transform="translate(141,118)"/>
<path d="M0 0 C-1.87824891 1.87824891 -5.03935276 1.39102397 -7.5625 1.5625 C-8.76003906 1.64628906 -9.95757812 1.73007813 -11.19140625 1.81640625 C-12.11824219 1.87699219 -13.04507813 1.93757813 -14 2 C-14 2.66 -14 3.32 -14 4 C-15.65 3.67 -17.3 3.34 -19 3 C-15.74743428 1.21304823 -12.52235827 0.19174715 -8.9375 -0.75 C-7.89464844 -1.03359375 -6.85179688 -1.3171875 -5.77734375 -1.609375 C-3 -2 -3 -2 0 0 Z " fill="#D2D4D2" transform="translate(96,91)"/>
<path d="M0 0 C1.45823212 -0.0270043 2.91660675 -0.04639787 4.375 -0.0625 C5.18710938 -0.07410156 5.99921875 -0.08570313 6.8359375 -0.09765625 C9 0 9 0 11 1 C10.67 2.65 10.34 4.3 10 6 C8.35 6 6.7 6 5 6 C5.66 4.68 6.32 3.36 7 2 C4.69 1.67 2.38 1.34 0 1 C0 0.67 0 0.34 0 0 Z " fill="#CBCDCB" transform="translate(95,137)"/>
<path d="M0 0 C1.80462743 3.60925485 0.73260248 7.17418703 0 11 C-0.33 11.66 -0.66 12.32 -1 13 C-1.66 13 -2.32 13 -3 13 C-3.66 11.68 -4.32 10.36 -5 9 C-4.01 8.67 -3.02 8.34 -2 8 C-1.855625 6.865625 -1.71125 5.73125 -1.5625 4.5625 C-1 1 -1 1 0 0 Z " fill="#C6C9C6" transform="translate(49,90)"/>
<path d="M0 0 C2.0245738 1.93254772 3.42105792 3.63158688 5 6 C8.06556598 6.73343428 8.06556598 6.73343428 11 7 C9.4198632 9.15473199 7.89353366 11.10646634 6 13 C4.99491199 11.21118264 3.99607264 9.41885304 3 7.625 C2.1646875 6.12839844 2.1646875 6.12839844 1.3125 4.6015625 C0 2 0 2 0 0 Z " fill="#939793" transform="translate(154,42)"/>
<path d="M0 0 C0.66 0 1.32 0 2 0 C2.66 1.98 3.32 3.96 4 6 C2.02 6.99 2.02 6.99 0 8 C-0.66 7.34 -1.32 6.68 -2 6 C-1.44444444 1.44444444 -1.44444444 1.44444444 0 0 Z " fill="#CCCFCC" transform="translate(43,38)"/>
<path d="M0 0 C1.20272819 2.40545638 1.10071472 3.94996953 1.0625 6.625 C1.05347656 7.44226563 1.04445312 8.25953125 1.03515625 9.1015625 C1.02355469 9.72804688 1.01195312 10.35453125 1 11 C0.01 10.34 -0.98 9.68 -2 9 C-2 8.01 -2 7.02 -2 6 C-2.66 6 -3.32 6 -4 6 C-4 4.35 -4 2.7 -4 1 C-2.68 0.67 -1.36 0.34 0 0 Z " fill="#919491" transform="translate(147,117)"/>
<path d="M0 0 C3 0 3 0 4.6875 1.375 C6 3 6 3 6 5 C4.02 5.99 2.04 6.98 0 8 C0 5.36 0 2.72 0 0 Z " fill="#CFD1CF" transform="translate(105,78)"/>
<path d="M0 0 C1.32 0 2.64 0 4 0 C4 0.66 4 1.32 4 2 C3.34 2 2.68 2 2 2 C1.731875 2.53625 1.46375 3.0725 1.1875 3.625 C-0.20833333 6.41666667 -1.60416667 9.20833333 -3 12 C-3.66 10.68 -4.32 9.36 -5 8 C-4.34 8 -3.68 8 -3 8 C-3 6.68 -3 5.36 -3 4 C-2.01 4 -1.02 4 0 4 C0 2.68 0 1.36 0 0 Z " fill="#BEC0BE" transform="translate(150,179)"/>
<path d="M0 0 C2.31 0.33 4.62 0.66 7 1 C7 1.66 7 2.32 7 3 C7.66 3.66 8.32 4.32 9 5 C3.5 5.36666667 3.5 5.36666667 1.125 3.625 C0 2 0 2 0 0 Z " fill="#C2C5C2" transform="translate(41,107)"/>
<path d="M0 0 C0.66 0 1.32 0 2 0 C2.33 1.98 2.66 3.96 3 6 C-0.22791555 8.1519437 -1.28400809 8.20086443 -5 8 C-4.01 7.67 -3.02 7.34 -2 7 C-0.77030122 3.48809191 -0.77030122 3.48809191 0 0 Z " fill="#747774" transform="translate(139,82)"/>
<path d="M0 0 C1.65 0 3.3 0 5 0 C5.66 1.32 6.32 2.64 7 4 C5.68 4 4.36 4 3 4 C3.99 5.485 3.99 5.485 5 7 C3.0625 6.3125 3.0625 6.3125 1 5 C0.25 2.375 0.25 2.375 0 0 Z " fill="#B9BCB9" transform="translate(105,17)"/>
<path d="M0 0 C0.66 0.99 1.32 1.98 2 3 C1.21625 2.814375 0.4325 2.62875 -0.375 2.4375 C-2.97089775 1.74037734 -2.97089775 1.74037734 -5 3 C-5.33 3.66 -5.66 4.32 -6 5 C-6.99 3.35 -7.98 1.7 -9 0 C-5.46474216 -1.17841928 -3.5797952 -0.91399027 0 0 Z " fill="#A6A9A6" transform="translate(135,15)"/>
<path d="M0 0 C0 0.66 0 1.32 0 2 C-2.49409061 3.57035335 -3.70443416 4.0274945 -6.6875 3.75 C-7.8321875 3.37875 -7.8321875 3.37875 -9 3 C-9.33 2.34 -9.66 1.68 -10 1 C-6.61981469 -0.04005702 -3.5219721 -0.08004482 0 0 Z " fill="#F5F5F5" transform="translate(131,87)"/>
<path d="M0 0 C2 1 2 1 2.875 2.8125 C3 5 3 5 1.125 7.25 C-1 9 -1 9 -2 9 C-1.125 1.125 -1.125 1.125 0 0 Z " fill="#E3E4E3" transform="translate(152,51)"/>
<path d="M0 0 C1.32 0.66 2.64 1.32 4 2 C3.67 3.65 3.34 5.3 3 7 C2.01 7.33 1.02 7.66 0 8 C-0.38063221 5.6739143 -0.71269945 3.33944736 -1 1 C-0.67 0.67 -0.34 0.34 0 0 Z " fill="#9EA29F" transform="translate(100,14)"/>
<path d="M0 0 C0.66 0.33 1.32 0.66 2 1 C1.01 2.32 0.02 3.64 -1 5 C-0.34 5 0.32 5 1 5 C0.67 5.66 0.34 6.32 0 7 C-0.66 6.67 -1.32 6.34 -2 6 C-1.67 8.31 -1.34 10.62 -1 13 C-1.66 12.67 -2.32 12.34 -3 12 C-3.875 8.75 -3.875 8.75 -4 5 C-2.0625 2.0625 -2.0625 2.0625 0 0 Z " fill="#878B87" transform="translate(120,8)"/>
<path d="M0 0 C0.78375 0.04125 1.5675 0.0825 2.375 0.125 C1.32625002 2.74687494 0.72568687 3.91871361 -1.75 5.375 C-2.36875 5.6225 -2.9875 5.87 -3.625 6.125 C-4.25 4.25 -4.25 4.25 -4.625 2.125 C-2.625 0.125 -2.625 0.125 0 0 Z " fill="#C9CCCA" transform="translate(99.625,5.875)"/>
<path d="M0 0 C0.33 1.98 0.66 3.96 1 6 C-0.65 6 -2.3 6 -4 6 C-4.33 4.68 -4.66 3.36 -5 2 C-1.125 0 -1.125 0 0 0 Z " fill="#B1B3B1" transform="translate(120,185)"/>
<path d="M0 0 C0.66 0.33 1.32 0.66 2 1 C2 1.66 2 2.32 2 3 C2.66 3.33 3.32 3.66 4 4 C4 4.99 4 5.98 4 7 C2.68 7.33 1.36 7.66 0 8 C-0.38063221 5.6739143 -0.71269945 3.33944736 -1 1 C-0.67 0.67 -0.34 0.34 0 0 Z " fill="#E5E6E6" transform="translate(75,162)"/>
<path d="M0 0 C1.65 0.33 3.3 0.66 5 1 C5 1.99 5 2.98 5 4 C4.34 4 3.68 4 3 4 C2.34 3.34 1.68 2.68 1 2 C1.33 3.98 1.66 5.96 2 8 C1.01 8 0.02 8 -1 8 C-1.625 5.6875 -1.625 5.6875 -2 3 C-1.34 2.01 -0.68 1.02 0 0 Z " fill="#747875" transform="translate(74,161)"/>
<path d="M0 0 C0.309375 0.928125 0.309375 0.928125 0.625 1.875 C2.54775888 4.84653645 4.66594527 5.13024659 8 6 C4.3791799 7.01382963 0.72188582 7.49897691 -3 8 C-3 6.35 -3 4.7 -3 3 C-2.34 3 -1.68 3 -1 3 C-0.67 2.01 -0.34 1.02 0 0 Z " fill="#8D908D" transform="translate(67,84)"/>
<path d="M0 0 C0 0.99 0 1.98 0 3 C-0.639375 3.268125 -1.27875 3.53625 -1.9375 3.8125 C-4.33131686 4.88667752 -4.33131686 4.88667752 -5 8 C-5.33 7.34 -5.66 6.68 -6 6 C-8.01669827 4.86649466 -8.01669827 4.86649466 -10 4 C-9.01 4 -8.02 4 -7 4 C-7 3.01 -7 2.02 -7 1 C-6.34 1 -5.68 1 -5 1 C-5 1.99 -5 2.98 -5 4 C-3.35 2.68 -1.7 1.36 0 0 Z " fill="#858986" transform="translate(45,85)"/>
<path d="M0 0 C1.305239 3.91571701 0.32239848 5.03892997 -1.4375 8.6875 C-1.91058594 9.68136719 -2.38367187 10.67523438 -2.87109375 11.69921875 C-3.42990234 12.83810547 -3.42990234 12.83810547 -4 14 C-5.09375 10.234375 -5.09375 10.234375 -4.25 8.125 C-3.8375 7.42375 -3.425 6.7225 -3 6 C-2.46375 4.9275 -1.9275 3.855 -1.375 2.75 C-0.694375 1.38875 -0.694375 1.38875 0 0 Z " fill="#5C605D" transform="translate(43,52)"/>
<path d="M0 0 C1.9375 0.8125 1.9375 0.8125 4 2 C4.33 2.99 4.66 3.98 5 5 C2.69 5 0.38 5 -2 5 C-1.125 1.125 -1.125 1.125 0 0 Z " fill="#CBCECB" transform="translate(156,37)"/>
<path d="M0 0 C0.66 0 1.32 0 2 0 C2.33 0.99 2.66 1.98 3 3 C3.66 3.66 4.32 4.32 5 5 C4.70700977 6.67422986 4.37309899 8.34178227 4 10 C4.33 10.66 4.66 11.32 5 12 C3.046875 11.3203125 3.046875 11.3203125 1 10 C0.390625 7.6171875 0.390625 7.6171875 0.25 4.875 C0.19328125 3.96492187 0.1365625 3.05484375 0.078125 2.1171875 C0.05234375 1.41851562 0.0265625 0.71984375 0 0 Z " fill="#939593" transform="translate(104,157)"/>
<path d="M0 0 C0.8125 1.625 0.8125 1.625 1 4 C-0.45145896 6.29767635 -2.10430963 8.01403866 -4 10 C-4.33 10 -4.66 10 -5 10 C-4.67 7.69 -4.34 5.38 -4 3 C-3.34 3.33 -2.68 3.66 -2 4 C-1.34 2.68 -0.68 1.36 0 0 Z " fill="#F5F5F5" transform="translate(161,61)"/>
<path d="M0 0 C2.97 0.495 2.97 0.495 6 1 C6.33 2.65 6.66 4.3 7 6 C5.1875 5.8125 5.1875 5.8125 3 5 C1.25 2.4375 1.25 2.4375 0 0 Z " fill="#E4E6E5" transform="translate(107,20)"/>
<path d="M0 0 C3.3 0.33 6.6 0.66 10 1 C6.17936061 3.54709292 2.56711438 4 -2 4 C-1.34 2.68 -0.68 1.36 0 0 Z " fill="#5A5E5A" transform="translate(80,13)"/>
<path d="M0 0 C0.33 0 0.66 0 1 0 C1.33 2.64 1.66 5.28 2 8 C1.34 8 0.68 8 0 8 C-0.33 9.32 -0.66 10.64 -1 12 C-1.2226746 10.56465159 -1.42761906 9.12654475 -1.625 7.6875 C-1.74101562 6.88699219 -1.85703125 6.08648437 -1.9765625 5.26171875 C-2 3 -2 3 0 0 Z " fill="#F1F2F2" transform="translate(149,116)"/>
<path d="M0 0 C-0.66 1.98 -1.32 3.96 -2 6 C-2.33 5.01 -2.66 4.02 -3 3 C-5.31 3 -7.62 3 -10 3 C-6.68152292 -0.06320961 -4.44849969 -0.3033068 0 0 Z " fill="#DBDDDC" transform="translate(101,13)"/>
<path d="M0 0 C1.32 0.33 2.64 0.66 4 1 C3.88648483 2.81325551 3.75887039 4.62563357 3.625 6.4375 C3.55539063 7.44683594 3.48578125 8.45617187 3.4140625 9.49609375 C3.27742187 10.32238281 3.14078125 11.14867187 3 12 C2.01 12.495 2.01 12.495 1 13 C1.020625 11.783125 1.04125 10.56625 1.0625 9.3125 C1.06824116 6.08022678 0.78766315 3.15065259 0 0 Z " fill="#BBBEBB" transform="translate(140,122)"/>
<path d="M0 0 C6.0546875 -0.1953125 6.0546875 -0.1953125 8 0 C8.66 0.66 9.32 1.32 10 2 C5.545 2.495 5.545 2.495 1 3 C0.67 2.01 0.34 1.02 0 0 Z " fill="#A6AAA7" transform="translate(85,79)"/>
<path d="M0 0 C1.485 0.99 1.485 0.99 3 2 C4.65549531 2.38499891 6.3222433 2.72793135 8 3 C7.34 4.65 6.68 6.3 6 8 C3.69 6.02 1.38 4.04 -1 2 C-0.67 1.34 -0.34 0.68 0 0 Z " fill="#7E837E" transform="translate(148,34)"/>
<path d="M0 0 C0 0.66 0 1.32 0 2 C-3.96 2 -7.92 2 -12 2 C-6.88275349 -0.55862325 -5.57740723 -1.09123185 0 0 Z " fill="#505450" transform="translate(123,134)"/>
<path d="M0 0 C0.66 0.33 1.32 0.66 2 1 C2.625 4.0625 2.625 4.0625 3 7 C1.68 7 0.36 7 -1 7 C-1.66 5.35 -2.32 3.7 -3 2 C-2.01 2 -1.02 2 0 2 C0 1.34 0 0.68 0 0 Z " fill="#B3B6B3" transform="translate(96,129)"/>
<path d="M0 0 C1.9375 0.3125 1.9375 0.3125 4 1 C4.33 1.99 4.66 2.98 5 4 C4.67 4.66 4.34 5.32 4 6 C2.68 5.67 1.36 5.34 0 5 C0 3.35 0 1.7 0 0 Z " fill="#D7D9D7" transform="translate(34,92)"/>
<path d="M0 0 C0.99 0 1.98 0 3 0 C3.33 1.98 3.66 3.96 4 6 C1.03 5.505 1.03 5.505 -2 5 C-1.34 3.35 -0.68 1.7 0 0 Z " fill="#BBBEBB" transform="translate(163,88)"/>
<path d="M0 0 C2.375 0.3125 2.375 0.3125 5 1 C7 4 7 4 6.625 6.6875 C6.41875 7.450625 6.2125 8.21375 6 9 C5.67 9 5.34 9 5 9 C4.731875 8.071875 4.46375 7.14375 4.1875 6.1875 C3.08851629 3.23759634 2.37581439 1.94384814 0 0 Z " fill="#565956" transform="translate(59,179)"/>
<path d="M0 0 C1.65 0 3.3 0 5 0 C4.625 2.4375 4.625 2.4375 4 5 C3.01 5.495 3.01 5.495 2 6 C1.34 4.02 0.68 2.04 0 0 Z " fill="#CBCECB" transform="translate(157,104)"/>
<path d="M0 0 C0.99 0 1.98 0 3 0 C3.33 2.31 3.66 4.62 4 7 C2.68 6.34 1.36 5.68 0 5 C0 3.35 0 1.7 0 0 Z " fill="#898B89" transform="translate(128,162)"/>
<path d="M0 0 C1.98 0.495 1.98 0.495 4 1 C3.34 2.65 2.68 4.3 2 6 C1.01 6 0.02 6 -1 6 C-1 3.84365964 -0.5534764 2.07553648 0 0 Z " fill="#D5D7D5" transform="translate(144,127)"/>
<path d="M0 0 C2 2 2 2 2 5 C-0.97 4.505 -0.97 4.505 -4 4 C-4 3.34 -4 2.68 -4 2 C-2.68 1.34 -1.36 0.68 0 0 Z " fill="#C0C3C0" transform="translate(55,118)"/>
<path d="M0 0 C1.65 0.33 3.3 0.66 5 1 C2.82575883 3.50037734 1.26954202 4.43628586 -2 5 C-1.34 3.35 -0.68 1.7 0 0 Z " fill="#B3B7B4" transform="translate(44,54)"/>
<path d="M0 0 C-0.33 0.99 -0.66 1.98 -1 3 C-4.0625 4.1875 -4.0625 4.1875 -7 5 C-7.99 4.01 -8.98 3.02 -10 2 C-7.03 2.495 -7.03 2.495 -4 3 C-4 2.34 -4 1.68 -4 1 C-2 0 -2 0 0 0 Z " fill="#CFD1CF" transform="translate(66,38)"/>
<path d="M0 0 C1.2065625 0.0309375 1.2065625 0.0309375 2.4375 0.0625 C0.7875 1.7125 -0.8625 3.3625 -2.5625 5.0625 C-3.125 3.125 -3.125 3.125 -3.5625 1.0625 C-2.5625 0.0625 -2.5625 0.0625 0 0 Z " fill="#C1C4C1" transform="translate(120.5625,135.9375)"/>
<path d="M0 0 C1 3 1 3 -0.4375 6.1875 C-1.2109375 7.5796875 -1.2109375 7.5796875 -2 9 C-2.33 8.01 -2.66 7.02 -3 6 C-3.66 5.67 -4.32 5.34 -5 5 C-3.35 3.35 -1.7 1.7 0 0 Z " fill="#D0D2D0" transform="translate(157,97)"/>
<path d="M0 0 C2.97 0.495 2.97 0.495 6 1 C5.67 1.99 5.34 2.98 5 4 C2.03 3.505 2.03 3.505 -1 3 C-0.67 2.01 -0.34 1.02 0 0 Z " fill="#B6B9B6" transform="translate(102,87)"/>
<path d="M0 0 C1.32 0 2.64 0 4 0 C4 1.32 4 2.64 4 4 C2.68 4.33 1.36 4.66 0 5 C-0.5625 3.0625 -0.5625 3.0625 -1 1 C-0.67 0.67 -0.34 0.34 0 0 Z " fill="#8F9390" transform="translate(150,44)"/>
<path d="M0 0 C2.99324263 1.0975223 3.84610901 1.67682892 5.25 4.625 C5.4975 5.40875 5.745 6.1925 6 7 C5.01 7 4.02 7 3 7 C2.01 4.69 1.02 2.38 0 0 Z " fill="#CFD1CF" transform="translate(148,37)"/>
<path d="M0 0 C2.97 0.495 2.97 0.495 6 1 C6 1.66 6 2.32 6 3 C4.35 3.66 2.7 4.32 1 5 C0.67 3.35 0.34 1.7 0 0 Z " fill="#C2C4C2" transform="translate(144,26)"/>
<path d="M0 0 C0.99 0 1.98 0 3 0 C3 1.32 3 2.64 3 4 C1.02 4 -0.96 4 -3 4 C-1.6875 2 -1.6875 2 0 0 Z " fill="#D5D7D5" transform="translate(61,14)"/>
<path d="M0 0 C0.99 0.33 1.98 0.66 3 1 C4.1875 4.5625 4.1875 4.5625 5 8 C4.01 7.67 3.02 7.34 2 7 C0.8125 3.4375 0.8125 3.4375 0 0 Z " fill="#585B58" transform="translate(84,183)"/>
<path d="M0 0 C0.99 0 1.98 0 3 0 C2.42655063 2.86724686 2.1385485 3.8614515 0 6 C-0.38218767 4.34385343 -0.71395102 2.67542976 -1 1 C-0.67 0.67 -0.34 0.34 0 0 Z " fill="#D0D2D0" transform="translate(53,98)"/>
<path d="M0 0 C0.66 0 1.32 0 2 0 C1.67 2.31 1.34 4.62 1 7 C0.01 6.67 -0.98 6.34 -2 6 C-1.34 4.02 -0.68 2.04 0 0 Z " fill="#ECEDEC" transform="translate(50,90)"/>
<path d="M0 0 C2 1 2 1 3 3 C0.69 3.33 -1.62 3.66 -4 4 C-4.33 3.34 -4.66 2.68 -5 2 C-2.625 0.9375 -2.625 0.9375 0 0 Z " fill="#DDDFDE" transform="translate(85,87)"/>
<path d="M0 0 C1.98 0.99 1.98 0.99 4 2 C4 2.99 4 3.98 4 5 C3.01 5.66 2.02 6.32 1 7 C0.67 4.69 0.34 2.38 0 0 Z " fill="#B9BCB9" transform="translate(36,54)"/>
<path d="M0 0 C0.66 0.33 1.32 0.66 2 1 C1.67 2.65 1.34 4.3 1 6 C0.01 6 -0.98 6 -2 6 C-1.49396008 3.83125748 -1.00016187 2.00032373 0 0 Z " fill="#CDD0CD" transform="translate(148,45)"/>
</svg>
