<?xml version="1.0" encoding="UTF-8"?>
<svg version="1.1" xmlns="http://www.w3.org/2000/svg" width="200" height="200">
<path d="M0 0 C66 0 132 0 200 0 C200 66 200 132 200 200 C134 200 68 200 0 200 C0 134 0 68 0 0 Z " fill="#FEFEFE" transform="translate(0,0)"/>
<path d="M0 0 C3.25014444 0.55321607 5.25978886 1.60985096 7.9375 3.5 C5.58472731 6.22426311 3.31253669 7.3141763 -0.0625 8.5 C0.60136719 8.58636719 1.26523438 8.67273437 1.94921875 8.76171875 C7.75326806 9.6852828 11.31698828 10.52179638 14.9375 15.5 C15.65158334 17.48356483 16.32367742 19.48315437 16.9375 21.5 C17.89991206 22.53622537 18.90675317 23.53172268 19.9375 24.5 C21.17917302 25.84270852 22.40793426 27.19744724 23.625 28.5625 C24.55892578 29.60083984 24.55892578 29.60083984 25.51171875 30.66015625 C26.9375 32.5 26.9375 32.5 26.9375 34.5 C29.5775 34.5 32.2175 34.5 34.9375 34.5 C33.6175 35.16 32.2975 35.82 30.9375 36.5 C31.370625 37.33144531 31.370625 37.33144531 31.8125 38.1796875 C32.18375 38.90414062 32.555 39.62859375 32.9375 40.375 C33.30875 41.09429687 33.68 41.81359375 34.0625 42.5546875 C34.9375 44.5 34.9375 44.5 34.9375 46.5 C35.85982422 46.53867188 35.85982422 46.53867188 36.80078125 46.578125 C43.43559886 47.04372624 43.43559886 47.04372624 46 49.375 C46.9375 51.5 46.9375 51.5 46.9375 54.5 C43.22150809 54.70086443 42.16541555 54.6519437 38.9375 52.5 C39.44006112 54.51432266 39.44006112 54.51432266 40.9375 56.5 C43.26421854 57.18939809 45.59817594 57.85466922 47.9375 58.5 C50.3125 60.0625 50.3125 60.0625 51.9375 62.5 C52.54769027 65.49406921 52.80715892 68.45001862 52.9375 71.5 C49.47824837 70.2508258 46.79056797 68.82472205 43.9375 66.5 C44.4325 67.139375 44.9275 67.77875 45.4375 68.4375 C47.45016011 72.54668106 47.55620054 75.99813946 46.9375 80.5 C45.5625 83.5625 45.5625 83.5625 43.9375 85.5 C43.2775 85.5 42.6175 85.5 41.9375 85.5 C41.6075 88.14 41.2775 90.78 40.9375 93.5 C40.2775 93.5 39.6175 93.5 38.9375 93.5 C36.91550261 100.01192298 36.91550261 100.01192298 38.375 106.3125 C38.890625 107.034375 39.40625 107.75625 39.9375 108.5 C39.625 111.3125 39.625 111.3125 38.9375 113.5 C37.9475 113.83 36.9575 114.16 35.9375 114.5 C35.6075 112.85 35.2775 111.2 34.9375 109.5 C32.21323689 111.85277269 31.1233237 114.12496331 29.9375 117.5 C30.5975 118.16 31.2575 118.82 31.9375 119.5 C32.50160256 125.70512821 32.50160256 125.70512821 30.5625 128.4375 C28.9375 129.5 28.9375 129.5 26.9375 129.5 C26.2775 127.52 25.6175 125.54 24.9375 123.5 C23.88735222 126.41707716 24.00987334 127.96640599 24.5 131.125 C24.644375 132.23875 24.78875 133.3525 24.9375 134.5 C24.2775 135.16 23.6175 135.82 22.9375 136.5 C22.6075 135.51 22.2775 134.52 21.9375 133.5 C21.2775 134.82 20.6175 136.14 19.9375 137.5 C18.9475 137.5 17.9575 137.5 16.9375 137.5 C16.9375 138.49 16.9375 139.48 16.9375 140.5 C17.5975 140.83 18.2575 141.16 18.9375 141.5 C17.9475 141.83 16.9575 142.16 15.9375 142.5 C15.9375 139.16666667 15.9375 135.83333333 15.9375 132.5 C15.59976563 133.06589844 15.26203125 133.63179687 14.9140625 134.21484375 C14.46804687 134.94832031 14.02203125 135.68179688 13.5625 136.4375 C12.90121094 137.53384766 12.90121094 137.53384766 12.2265625 138.65234375 C10.9375 140.5 10.9375 140.5 8.9375 141.5 C6.89694995 141.57065617 4.85415743 141.58421976 2.8125 141.5625 C1.71679688 141.55347656 0.62109375 141.54445312 -0.5078125 141.53515625 C-1.35085937 141.52355469 -2.19390625 141.51195312 -3.0625 141.5 C-3.3615625 142.12390625 -3.660625 142.7478125 -3.96875 143.390625 C-5.09870766 145.56982906 -6.18283834 146.93361528 -8.0625 148.5 C-8.7225 148.5 -9.3825 148.5 -10.0625 148.5 C-10.0625 146.85 -10.0625 145.2 -10.0625 143.5 C-11.52197705 143.56006078 -12.98029272 143.6488689 -14.4375 143.75 C-15.24960938 143.79640625 -16.06171875 143.8428125 -16.8984375 143.890625 C-19.25088927 144.2922092 -19.25088927 144.2922092 -20.3515625 146.546875 C-20.58617188 147.19140625 -20.82078125 147.8359375 -21.0625 148.5 C-21.7225 147.51 -22.3825 146.52 -23.0625 145.5 C-25.62144585 145.02092824 -25.62144585 145.02092824 -28.5 145.125 C-29.46808594 145.11726562 -30.43617187 145.10953125 -31.43359375 145.1015625 C-34.38310756 145.54859134 -35.2594369 146.1896344 -37.0625 148.5 C-38.08354551 147.52149805 -39.0831121 146.52019573 -40.0625 145.5 C-40.0625 145.17 -40.0625 144.84 -40.0625 144.5 C-42.0425 144.17 -44.0225 143.84 -46.0625 143.5 C-46.43375 144.428125 -46.43375 144.428125 -46.8125 145.375 C-48.33471172 147.96275992 -49.23027975 148.55592658 -52.0625 149.5 C-56.73710102 149.99729798 -59.23821334 149.19949646 -63.0625 146.5 C-60.70972731 143.77573689 -58.43753669 142.6858237 -55.0625 141.5 C-55.72636719 141.42523438 -56.39023438 141.35046875 -57.07421875 141.2734375 C-65.18520655 140.06566997 -65.18520655 140.06566997 -68.0625 136.5625 C-68.7225 135.551875 -69.3825 134.54125 -70.0625 133.5 C-72.39535443 130.00071836 -73.27045069 129.8670902 -77.1875 128.8125 C-78.09757812 128.56113281 -79.00765625 128.30976563 -79.9453125 128.05078125 C-80.64398438 127.86902344 -81.34265625 127.68726563 -82.0625 127.5 C-81.5675 126.015 -81.5675 126.015 -81.0625 124.5 C-79.5775 124.005 -79.5775 124.005 -78.0625 123.5 C-81.08755386 119.23952281 -81.08755386 119.23952281 -85.375 116.625 C-85.931875 116.58375 -86.48875 116.5425 -87.0625 116.5 C-87.18625 115.406875 -87.31 114.31375 -87.4375 113.1875 C-87.81714801 109.42618198 -87.81714801 109.42618198 -90.0625 106.5 C-90.0625 105.51 -90.0625 104.52 -90.0625 103.5 C-91.67125 103.5928125 -91.67125 103.5928125 -93.3125 103.6875 C-97.0625 103.5 -97.0625 103.5 -99.4375 102.375 C-101.60906687 99.86934592 -101.7736841 97.74917885 -102.0625 94.5 C-99.7525 95.16 -97.4425 95.82 -95.0625 96.5 C-95.0625 95.18 -95.0625 93.86 -95.0625 92.5 C-96.7640625 92.314375 -96.7640625 92.314375 -98.5 92.125 C-99.675625 91.91875 -100.85125 91.7125 -102.0625 91.5 C-102.3925 90.84 -102.7225 90.18 -103.0625 89.5 C-100.7525 90.16 -98.4425 90.82 -96.0625 91.5 C-96.371875 90.778125 -96.68125 90.05625 -97 89.3125 C-98.0625 86.5 -98.0625 86.5 -98.5625 83.875 C-98.96191503 81.24853756 -98.96191503 81.24853756 -101.0625 78.5 C-101.68723246 72.14855332 -100.80854096 69.7678701 -97.0625 64.5 C-97.02375079 62.83378384 -97.0174714 61.16605828 -97.0625 59.5 C-96.06671639 58.49580132 -95.06613853 57.49634818 -94.0625 56.5 C-93.0372746 54.6099213 -93.0372746 54.6099213 -92.3125 52.5625 C-91.91804688 51.55896484 -91.91804688 51.55896484 -91.515625 50.53515625 C-90.9868332 48.16015169 -91.25636129 46.7758672 -92.0625 44.5 C-92.3925 44.17 -92.7225 43.84 -93.0625 43.5 C-93.3125 40.5625 -93.3125 40.5625 -93.0625 37.5 C-92.0725 36.84 -91.0825 36.18 -90.0625 35.5 C-89.0725 37.15 -88.0825 38.8 -87.0625 40.5 C-84.88476498 37.97382737 -84.01819739 36.213061 -84.2265625 32.859375 C-84.42378906 31.41304687 -84.42378906 31.41304687 -84.625 29.9375 C-85.28802986 24.81283174 -85.28802986 24.81283174 -83.125 21.8125 C-82.444375 21.379375 -81.76375 20.94625 -81.0625 20.5 C-78.70296906 22.85953094 -78.57108587 24.27895617 -78.0625 27.5 C-77.27682376 24.35729505 -77.09424659 21.70105005 -77.3125 18.5 C-77.36548135 14.99660846 -77.11333287 14.56636513 -74.8125 11.5625 C-72.0625 9.5 -72.0625 9.5 -68.0625 8.5 C-68.3925 11.47 -68.7225 14.44 -69.0625 17.5 C-68.485 16.736875 -67.9075 15.97375 -67.3125 15.1875 C-64.01712331 11.25135562 -62.48775635 9.66434078 -57.234375 9.05859375 C-55.76086172 9.00436211 -54.28676514 8.96442136 -52.8125 8.9375 C-42.84342659 8.88507609 -42.84342659 8.88507609 -34.0625 4.875 C-33.7325 4.42125 -33.4025 3.9675 -33.0625 3.5 C-33.0625 4.49 -33.0625 5.48 -33.0625 6.5 C-31.12416004 6.41284983 -29.1867571 6.30467036 -27.25 6.1875 C-26.17105469 6.12949219 -25.09210938 6.07148438 -23.98046875 6.01171875 C-20.88752483 5.46931493 -19.93227097 4.94710376 -18.0625 2.5 C-16.0625 4.5 -16.0625 4.5 -16.0625 5.5 C-11.45297751 5.96095225 -9.66909373 5.99517855 -6 3 C-3.0625 0.5 -3.0625 0.5 0 0 Z " fill="#FCFCFC" transform="translate(127.0625,24.5)"/>
<path d="M0 0 C1.134375 0.598125 2.26875 1.19625 3.4375 1.8125 C7.26267773 3.75241156 11.08678244 5.0514099 15.21484375 6.19140625 C15.80394531 6.45824219 16.39304688 6.72507812 17 7 C18.1577506 10.47325181 18.06866652 13.36067448 18 17 C19.32 17.33 20.64 17.66 22 18 C22 17.34 22 16.68 22 16 C22.99 15.34 23.98 14.68 25 14 C25.33 13.01 25.66 12.02 26 11 C25.34 10.34 24.68 9.68 24 9 C28.4270441 7.64131639 33.01026422 7.63213876 37.59960938 7.39453125 C40.61456203 7.22087956 43.1179293 6.96069023 46 6 C46.25394531 6.72445312 46.50789063 7.44890625 46.76953125 8.1953125 C49.00083712 14.46302561 51.52500011 20.26851871 54.6875 26.125 C56 29 56 29 56 33 C54.8553125 32.9071875 54.8553125 32.9071875 53.6875 32.8125 C50.41402741 33.04088181 50.21749094 33.7649917 48 36 C46.14648438 36.89135742 46.14648438 36.89135742 44.09375 37.60546875 C43.34996094 37.86650391 42.60617188 38.12753906 41.83984375 38.39648438 C41.06769531 38.65751953 40.29554687 38.91855469 39.5 39.1875 C38.72785156 39.46013672 37.95570312 39.73277344 37.16015625 40.01367188 C31.41523731 42 31.41523731 42 28 42 C28 41.34 28 40.68 28 40 C26.37536158 39.94604522 24.75021459 39.90722805 23.125 39.875 C21.76761719 39.84019531 21.76761719 39.84019531 20.3828125 39.8046875 C17.81193006 39.75675164 17.81193006 39.75675164 16 42 C13.56255103 42.17488254 11.2406392 42.23177405 8.8046875 42.1953125 C8.09724396 42.1924826 7.38980042 42.18965271 6.66091919 42.18673706 C4.3987749 42.17553137 2.13702485 42.15042679 -0.125 42.125 C-1.65754637 42.11497067 -3.19009894 42.10584474 -4.72265625 42.09765625 C-8.48192301 42.07559086 -12.24089464 42.04105896 -16 42 C-15.13623047 40.04296875 -15.13623047 40.04296875 -14 38 C-11.8203125 37.3125 -11.8203125 37.3125 -9.125 37 C-4.76693815 36.37088346 -0.89359615 35.3675296 3.25 33.875 C9.71269585 31.63437582 14.6789405 30.93524388 21 34 C21 30.7 21 27.4 21 24 C20.34 24 19.68 24 19 24 C19.495 25.485 19.495 25.485 20 27 C17.23723823 26.47731534 14.6739124 25.89130413 12 25 C9.60745424 24.77439324 7.21071877 24.59151405 4.8125 24.4375 C3.54019531 24.35371094 2.26789063 24.26992187 0.95703125 24.18359375 C-0.50669922 24.09271484 -0.50669922 24.09271484 -2 24 C0.31 24.66 2.62 25.32 5 26 C5 26.66 5 27.32 5 28 C5.68707031 27.96519531 6.37414062 27.93039063 7.08203125 27.89453125 C7.98308594 27.86746094 8.88414063 27.84039062 9.8125 27.8125 C11.15248047 27.76029297 11.15248047 27.76029297 12.51953125 27.70703125 C15.47493883 28.05609514 16.06032669 28.86315532 18 31 C13.91672643 31.0580772 9.83355917 31.09362249 5.75 31.125 C4.01169922 31.15013672 4.01169922 31.15013672 2.23828125 31.17578125 C1.12324219 31.18222656 0.00820312 31.18867187 -1.140625 31.1953125 C-2.16704102 31.20578613 -3.19345703 31.21625977 -4.25097656 31.22705078 C-7.01984288 30.99836111 -8.64418792 30.4243299 -11 29 C-10.59722507 21.45326965 -10.17808026 14.26026753 -8 7 C-7.01 7.33 -6.02 7.66 -5 8 C-4.67 11.3 -4.34 14.6 -4 18 C-3.79503906 16.95199219 -3.59007813 15.90398437 -3.37890625 14.82421875 C-3.10687314 13.44529231 -2.83473209 12.06638717 -2.5625 10.6875 C-2.42779297 9.99720703 -2.29308594 9.30691406 -2.15429688 8.59570312 C-1.57225668 5.65710993 -0.94847772 2.84543315 0 0 Z " fill="#FAFAFA" transform="translate(80,70)"/>
<path d="M0 0 C0.66 0 1.32 0 2 0 C2.57878906 0.61875 3.15757813 1.2375 3.75390625 1.875 C6.40527893 4.38342911 8.4473476 5.01413097 11.9375 6 C16.38175504 7.36746309 19.64314206 8.64314206 23 12 C23.50660156 11.6803125 24.01320312 11.360625 24.53515625 11.03125 C27.86275035 9.63903947 30.84137226 9.64256205 34.4375 9.5 C39.09415994 9.3150284 42.77143623 9.02058539 47 7 C60.98829166 30.68068665 60.98829166 30.68068665 61.0078125 36.21484375 C59.42307212 39.02192263 57.30595177 39.39394444 54.3125 40.4375 C53.14332031 40.85257813 51.97414063 41.26765625 50.76953125 41.6953125 C49.52558594 42.12585938 48.28164062 42.55640625 47 43 C45.73164451 43.47274773 44.46470254 43.94930555 43.19921875 44.4296875 C32.29334722 48.50643356 32.29334722 48.50643356 28 48 C27.34 47.34 26.68 46.68 26 46 C23.5 45.66666667 23.5 45.66666667 21 46 C20.34 46.66 19.68 47.32 19 48 C16.20315203 48.17525055 13.5067192 48.23143189 10.7109375 48.1953125 C9.48330185 48.19106766 9.48330185 48.19106766 8.23086548 48.18673706 C5.61209607 48.17552532 2.99366636 48.15041929 0.375 48.125 C-1.39843257 48.11497147 -3.17187049 48.1058454 -4.9453125 48.09765625 C-9.29700626 48.07558278 -13.6484455 48.04104644 -18 48 C-17.58379572 40.88945009 -17.12725143 34.14565852 -15.0625 27.3125 C-14.72347656 26.15363281 -14.38445312 24.99476562 -14.03515625 23.80078125 C-13 21 -13 21 -11 19 C-10.39286197 17.14516546 -9.85868948 15.26578615 -9.375 13.375 C-9.11460938 12.37210938 -8.85421875 11.36921875 -8.5859375 10.3359375 C-8.39257812 9.56507812 -8.19921875 8.79421875 -8 8 C-6.02 8 -4.04 8 -2 8 C-1.34 5.36 -0.68 2.72 0 0 Z M1 3 C-1.09448302 8.53541942 -2.02782755 14.18764979 -3 20 C-3.33 16.7 -3.66 13.4 -4 10 C-4.99 10 -5.98 10 -7 10 C-9.17808026 17.26026753 -9.59722507 24.45326965 -10 32 C-6.62301212 34.04173535 -4.05453777 34.23525039 -0.140625 34.1953125 C0.97441406 34.18886719 2.08945313 34.18242188 3.23828125 34.17578125 C4.97658203 34.15064453 4.97658203 34.15064453 6.75 34.125 C7.92433594 34.11597656 9.09867188 34.10695313 10.30859375 34.09765625 C13.20593536 34.07410063 16.10286441 34.04120652 19 34 C16.76763276 31.45962523 16.76763276 31.45962523 13.51953125 30.70703125 C12.17955078 30.75923828 12.17955078 30.75923828 10.8125 30.8125 C9.91144531 30.83957031 9.01039062 30.86664063 8.08203125 30.89453125 C7.05142578 30.94673828 7.05142578 30.94673828 6 31 C6 30.34 6 29.68 6 29 C4.35 28.34 2.7 27.68 1 27 C2.91731918 27.11455681 4.8338675 27.24206258 6.75 27.375 C7.81734375 27.44460937 8.8846875 27.51421875 9.984375 27.5859375 C12.83160733 27.97687873 14.51066844 28.66642952 17 30 C19.19747131 29.70194993 19.19747131 29.70194993 21 29 C20.505 28.01 20.505 28.01 20 27 C20.66 27 21.32 27 22 27 C22 30.3 22 33.6 22 37 C21.319375 36.67 20.63875 36.34 19.9375 36 C13.68647713 33.87199221 8.60129955 35.21929371 2.5625 37.4375 C-1.54535643 38.91511342 -5.42573512 40.25719402 -9.8125 40.5625 C-10.864375 40.706875 -11.91625 40.85125 -13 41 C-14.23221028 42.9689963 -14.23221028 42.9689963 -15 45 C-10.47934572 45.049377 -5.95884783 45.08570823 -1.43798828 45.10986328 C0.10045098 45.11993118 1.63887107 45.13358646 3.17724609 45.15087891 C5.38644133 45.17509317 7.59538395 45.18647491 9.8046875 45.1953125 C10.83914505 45.21079636 10.83914505 45.21079636 11.89450073 45.22659302 C13.59800906 45.22699478 15.30085943 45.12191026 17 45 C17.66 44.34 18.32 43.68 19 43 C21.3828125 42.8046875 21.3828125 42.8046875 24.125 42.875 C25.03507812 42.89304688 25.94515625 42.91109375 26.8828125 42.9296875 C27.58148438 42.95289063 28.28015625 42.97609375 29 43 C29 43.66 29 44.32 29 45 C36.64923245 43.57387192 43.92931711 41.28281706 51 38 C51.495 37.01 51.495 37.01 52 36 C53.65 36 55.3 36 57 36 C56.4580276 31.12224843 54.86735775 27.32953808 52.5625 23.0625 C50.07760268 18.3780276 48.29791947 14.10688916 47 9 C46.01 9.33 45.02 9.66 44 10 C40.8452163 10.22611078 37.69709637 10.39264132 34.53710938 10.51757812 C30.90123228 10.70856077 28.10864521 11.03622669 25 13 C25.66 13.33 26.32 13.66 27 14 C26.6875 15.9375 26.6875 15.9375 26 18 C25.01 18.33 24.02 18.66 23 19 C23 19.66 23 20.32 23 21 C21.68 20.67 20.36 20.34 19 20 C19.04125 18.9275 19.0825 17.855 19.125 16.75 C19.00692362 13.20770859 18.95109174 11.82021443 17 9 C14.80614896 7.97521825 14.80614896 7.97521825 12.25 7.4375 C8.19769646 6.36863153 4.68850371 5.03838363 1 3 Z " fill="#747874" transform="translate(79,67)"/>
<path d="M0 0 C2.64 0 5.28 0 8 0 C6.02 0.99 6.02 0.99 4 2 C4.28875 2.55429687 4.5775 3.10859375 4.875 3.6796875 C5.431875 4.76636719 5.431875 4.76636719 6 5.875 C6.37125 6.59429687 6.7425 7.31359375 7.125 8.0546875 C8 10 8 10 8 12 C8.61488281 12.02578125 9.22976562 12.0515625 9.86328125 12.078125 C16.49809886 12.54372624 16.49809886 12.54372624 19.0625 14.875 C20 17 20 17 20 20 C16.28400809 20.20086443 15.22791555 20.1519437 12 18 C12.50256112 20.01432266 12.50256112 20.01432266 14 22 C16.32671854 22.68939809 18.66067594 23.35466922 21 24 C23.375 25.5625 23.375 25.5625 25 28 C25.61019027 30.99406921 25.86965892 33.95001862 26 37 C22.54074837 35.7508258 19.85306797 34.32472205 17 32 C17.495 32.639375 17.99 33.27875 18.5 33.9375 C20.51266011 38.04668106 20.61870054 41.49813946 20 46 C18.625 49.0625 18.625 49.0625 17 51 C16.34 51 15.68 51 15 51 C14.67 53.64 14.34 56.28 14 59 C13.34 59 12.68 59 12 59 C9.97800261 65.51192298 9.97800261 65.51192298 11.4375 71.8125 C11.953125 72.534375 12.46875 73.25625 13 74 C12.6875 76.8125 12.6875 76.8125 12 79 C10.515 79.495 10.515 79.495 9 80 C8.67 78.35 8.34 76.7 8 75 C5.27573689 77.35277269 4.1858237 79.62496331 3 83 C3.66 83.66 4.32 84.32 5 85 C5.56410256 91.20512821 5.56410256 91.20512821 3.625 93.9375 C2 95 2 95 0 95 C-0.39036513 93.39950296 -0.76178619 91.79437629 -1.125 90.1875 C-1.33382812 89.29417969 -1.54265625 88.40085937 -1.7578125 87.48046875 C-2 85 -2 85 0 82 C-0.66 81.01 -1.32 80.02 -2 79 C-2.99 79.495 -2.99 79.495 -4 80 C-4 79.01 -4 78.02 -4 77 C-5.65 77 -7.3 77 -9 77 C-9 76.67 -9 76.34 -9 76 C-5.535 75.505 -5.535 75.505 -2 75 C-3.65 74.01 -5.3 73.02 -7 72 C-6.505 71.01 -6.505 71.01 -6 70 C-2.7 70 0.6 70 4 70 C4.66 68.68 5.32 67.36 6 66 C4.02 65.67 2.04 65.34 0 65 C0 64.34 0 63.68 0 63 C2.1171875 61.4921875 2.1171875 61.4921875 4.875 59.875 C5.77992188 59.33617187 6.68484375 58.79734375 7.6171875 58.2421875 C10 57 10 57 12 57 C12.66 54.36 13.32 51.72 14 49 C14.99 49 15.98 49 17 49 C18.17571451 45.32589215 18.07366746 41.83070817 18 38 C17.67 40.64 17.34 43.28 17 46 C16.67 46 16.34 46 16 46 C15.67 43.69 15.34 41.38 15 39 C14.34 39.66 13.68 40.32 13 41 C13.33 37.7 13.66 34.4 14 31 C11.69 33.64 9.38 36.28 7 39 C6.34 38.67 5.68 38.34 5 38 C4.69095849 35.06410568 4.46822756 32.86650668 5 30 C6.44140625 28.2265625 6.44140625 28.2265625 8.1875 26.5625 C9.91530105 24.9546392 9.91530105 24.9546392 11 23 C10.6342064 19.69195349 9.48896175 16.95780239 8 14 C7.01 14.33 6.02 14.66 5 15 C5 16.65 5 18.3 5 20 C2.5 18.6875 2.5 18.6875 0 17 C0 16.01 0 15.02 0 14 C-1.65 14.33 -3.3 14.66 -5 15 C-4.45712148 11.19985035 -2.88535357 9.46103687 0 7 C0.99 6.67 1.98 6.34 3 6 C1.515 3.03 1.515 3.03 0 0 Z " fill="#AEB2AF" transform="translate(154,59)"/>
<path d="M0 0 C4.875 4.75 4.875 4.75 6 7 C5.0625 9.125 5.0625 9.125 4 11 C5.32 11.33 6.64 11.66 8 12 C8 12.99 8 13.98 8 15 C9.32 15.33 10.64 15.66 12 16 C10.02 16 8.04 16 6 16 C6.33 16.66 6.66 17.32 7 18 C6.01 18 5.02 18 4 18 C4.33 18.99 4.66 19.98 5 21 C3.35 20.67 1.7 20.34 0 20 C-0.4640625 20.928125 -0.4640625 20.928125 -0.9375 21.875 C-1.625 23.25 -2.3125 24.625 -3 26 C-1.02 26 0.96 26 3 26 C3.33 26.66 3.66 27.32 4 28 C2.35 28 0.7 28 -1 28 C-1.04125 28.61875 -1.0825 29.2375 -1.125 29.875 C-1.41375 30.57625 -1.7025 31.2775 -2 32 C-5.0625 33.25 -5.0625 33.25 -8 34 C-8.19491452 35.45736087 -8.38069358 36.91594593 -8.5625 38.375 C-8.71912109 39.59316406 -8.71912109 39.59316406 -8.87890625 40.8359375 C-9.18237328 43.04899186 -9.18237328 43.04899186 -8 45 C-8.0859375 47.12890625 -8.0859375 47.12890625 -8.375 49.5625 C-8.46523438 50.36816406 -8.55546875 51.17382812 -8.6484375 52.00390625 C-9 54 -9 54 -10 55 C-10.04063832 56.66617115 -10.042721 58.33388095 -10 60 C-9.01 59.505 -9.01 59.505 -8 59 C-8 60.32 -8 61.64 -8 63 C-7.01 62.505 -7.01 62.505 -6 62 C-5 64 -5 64 -5 67 C-5.99 67.495 -5.99 67.495 -7 68 C-6.5020163 71.73487777 -6.12508244 73.81237635 -4 77 C-3.01 76.505 -3.01 76.505 -2 76 C-1.34227572 72.97065509 -1.34227572 72.97065509 -1 70 C-0.566875 70.9590625 -0.566875 70.9590625 -0.125 71.9375 C0.82823451 74.15206079 0.82823451 74.15206079 3 75 C2.79375 75.7425 2.5875 76.485 2.375 77.25 C1.95591249 80.32330841 2.38050989 81.42786866 4 84 C3.34 84 2.68 84 2 84 C2.3609375 84.77085937 2.721875 85.54171875 3.09375 86.3359375 C3.5578125 87.33882813 4.021875 88.34171875 4.5 89.375 C4.9640625 90.37273437 5.428125 91.37046875 5.90625 92.3984375 C7 95 7 95 7 97 C8.485 97.495 8.485 97.495 10 98 C11.04644066 99.63790712 12.0398183 101.31008021 13 103 C16.92363708 108.23151611 20.59065819 112.98563543 27 115 C26.67 113.35 26.34 111.7 26 110 C27.32 111.32 28.64 112.64 30 114 C28 116 28 116 25.25 116.4375 C20.86118082 115.84669742 19.0987702 114.0987702 16 111 C15.5875 110.13375 15.175 109.2675 14.75 108.375 C11.90080073 104.50822956 7.5306769 104.04554082 3 103 C3.495 101.515 3.495 101.515 4 100 C5.485 99.505 5.485 99.505 7 99 C3.97494614 94.73952281 3.97494614 94.73952281 -0.3125 92.125 C-0.869375 92.08375 -1.42625 92.0425 -2 92 C-2.12375 90.906875 -2.2475 89.81375 -2.375 88.6875 C-2.75464801 84.92618198 -2.75464801 84.92618198 -5 82 C-5 81.01 -5 80.02 -5 79 C-6.60875 79.0928125 -6.60875 79.0928125 -8.25 79.1875 C-12 79 -12 79 -14.375 77.875 C-16.54656687 75.36934592 -16.7111841 73.24917885 -17 70 C-14.69 70.66 -12.38 71.32 -10 72 C-10 70.68 -10 69.36 -10 68 C-11.7015625 67.814375 -11.7015625 67.814375 -13.4375 67.625 C-14.613125 67.41875 -15.78875 67.2125 -17 67 C-17.33 66.34 -17.66 65.68 -18 65 C-15.69 65.66 -13.38 66.32 -11 67 C-11.309375 66.278125 -11.61875 65.55625 -11.9375 64.8125 C-13 62 -13 62 -13.5 59.375 C-13.89941503 56.74853756 -13.89941503 56.74853756 -16 54 C-16.62473246 47.64855332 -15.74604096 45.2678701 -12 40 C-11.96125079 38.33378384 -11.9549714 36.66605828 -12 35 C-11.00421639 33.99580132 -10.00363853 32.99634818 -9 32 C-7.9747746 30.1099213 -7.9747746 30.1099213 -7.25 28.0625 C-6.85554688 27.05896484 -6.85554688 27.05896484 -6.453125 26.03515625 C-5.9243332 23.66015169 -6.19386129 22.2758672 -7 20 C-7.33 19.67 -7.66 19.34 -8 19 C-8.25 16.0625 -8.25 16.0625 -8 13 C-7.01 12.34 -6.02 11.68 -5 11 C-4.01 12.65 -3.02 14.3 -2 16 C0.20322937 13.44425393 1.00506076 11.60054377 0.9765625 8.21875 C0.71410051 5.46644592 0.3976833 2.73586945 0 0 Z " fill="#C9CCC9" transform="translate(42,49)"/>
<path d="M0 0 C3.25014444 0.55321607 5.25978886 1.60985096 7.9375 3.5 C5.58472731 6.22426311 3.31253669 7.3141763 -0.0625 8.5 C0.60136719 8.58636719 1.26523438 8.67273437 1.94921875 8.76171875 C7.75326806 9.6852828 11.31698828 10.52179638 14.9375 15.5 C15.65158334 17.48356483 16.32367742 19.48315437 16.9375 21.5 C18.28088356 22.98972543 18.28088356 22.98972543 19.9375 24.5 C21.20297935 25.81865075 22.45251683 27.15274563 23.6875 28.5 C24.32171875 29.180625 24.9559375 29.86125 25.609375 30.5625 C26.26679688 31.5215625 26.26679688 31.5215625 26.9375 32.5 C25.81160807 35.8776758 24.61806948 37.21363192 21.9375 39.5 C20.9475 39.5 19.9575 39.5 18.9375 39.5 C17.87877764 36.32383292 17.98832835 34.42943872 18.1875 31.125 C18.21389354 27.12373885 18.20281947 25.88591924 15.875 22.5 C12.95729756 20.37613894 12.95729756 20.37613894 9.4375 19 C5.64672387 17.37538166 3.74272165 15.4610673 0.9375 12.5 C-0.0525 12.17 -1.0425 11.84 -2.0625 11.5 C-1.0725 14.8 -0.0825 18.1 0.9375 21.5 C-0.5475 21.995 -0.5475 21.995 -2.0625 22.5 C-3.0525 21.51 -4.0425 20.52 -5.0625 19.5 C-3.0825 19.995 -3.0825 19.995 -1.0625 20.5 C-3.60765209 13.38135825 -3.60765209 13.38135825 -9.0625 8.5 C-8.0725 12.955 -8.0725 12.955 -7.0625 17.5 C-10.0625 14.5 -10.0625 14.5 -11.0625 8.5 C-16.0125 8.5 -20.9625 8.5 -26.0625 8.5 C-25.5675 9.985 -25.5675 9.985 -25.0625 11.5 C-25.7225 12.16 -26.3825 12.82 -27.0625 13.5 C-28.0525 13.5 -29.0425 13.5 -30.0625 13.5 C-29.1875 9.625 -29.1875 9.625 -28.0625 8.5 C-29.54218324 8.64049518 -31.02124516 8.78754826 -32.5 8.9375 C-33.73556641 9.05931641 -33.73556641 9.05931641 -34.99609375 9.18359375 C-37.04912025 9.28930815 -37.04912025 9.28930815 -38.0625 10.5 C-40.58445967 10.89943176 -43.09213656 11.25079848 -45.625 11.5625 C-46.69137695 11.69881836 -46.69137695 11.69881836 -47.77929688 11.83789062 C-49.53988403 12.06239503 -51.30113478 12.28168397 -53.0625 12.5 C-53.0625 11.84 -53.0625 11.18 -53.0625 10.5 C-56.0325 11.16 -59.0025 11.82 -62.0625 12.5 C-62.0625 12.83 -62.0625 13.16 -62.0625 13.5 C-60.7425 13.17 -59.4225 12.84 -58.0625 12.5 C-59.0525 13.49 -60.0425 14.48 -61.0625 15.5 C-60.0725 16.16 -59.0825 16.82 -58.0625 17.5 C-63.5075 18.985 -63.5075 18.985 -69.0625 20.5 C-65.4325 21.49 -61.8025 22.48 -58.0625 23.5 C-58.3925 24.82 -58.7225 26.14 -59.0625 27.5 C-60.0525 27.17 -61.0425 26.84 -62.0625 26.5 C-61.4025 26.5 -60.7425 26.5 -60.0625 26.5 C-60.0625 25.84 -60.0625 25.18 -60.0625 24.5 C-64.3525 24.5 -68.6425 24.5 -73.0625 24.5 C-71.7425 25.82 -70.4225 27.14 -69.0625 28.5 C-73.8125 27.625 -73.8125 27.625 -76.0625 26.5 C-77.55423993 22.77065017 -77.7650403 18.43422568 -77.0625 14.5 C-74.16309819 10.71466986 -72.72741015 9.66622754 -68.0625 8.5 C-68.3925 11.47 -68.7225 14.44 -69.0625 17.5 C-68.485 16.736875 -67.9075 15.97375 -67.3125 15.1875 C-64.01712331 11.25135562 -62.48775635 9.66434078 -57.234375 9.05859375 C-55.76086172 9.00436211 -54.28676514 8.96442136 -52.8125 8.9375 C-42.84342659 8.88507609 -42.84342659 8.88507609 -34.0625 4.875 C-33.7325 4.42125 -33.4025 3.9675 -33.0625 3.5 C-33.0625 4.49 -33.0625 5.48 -33.0625 6.5 C-31.12416004 6.41284983 -29.1867571 6.30467036 -27.25 6.1875 C-26.17105469 6.12949219 -25.09210938 6.07148438 -23.98046875 6.01171875 C-20.88752483 5.46931493 -19.93227097 4.94710376 -18.0625 2.5 C-16.0625 4.5 -16.0625 4.5 -16.0625 5.5 C-11.45297751 5.96095225 -9.66909373 5.99517855 -6 3 C-3.0625 0.5 -3.0625 0.5 0 0 Z " fill="#D2D4D2" transform="translate(127.0625,24.5)"/>
<path d="M0 0 C2 1 2 1 3.125 3.3125 C4 6 4 6 4 10 C3.236875 9.938125 2.47375 9.87625 1.6875 9.8125 C-1.58597259 10.04088181 -1.78250906 10.7649917 -4 13 C-5.85351562 13.89135742 -5.85351562 13.89135742 -7.90625 14.60546875 C-8.65003906 14.86650391 -9.39382812 15.12753906 -10.16015625 15.39648438 C-10.93230469 15.65751953 -11.70445313 15.91855469 -12.5 16.1875 C-13.27214844 16.46013672 -14.04429688 16.73277344 -14.83984375 17.01367188 C-20.58476269 19 -20.58476269 19 -24 19 C-24 18.34 -24 17.68 -24 17 C-25.62463842 16.94604522 -27.24978541 16.90722805 -28.875 16.875 C-29.77992187 16.85179688 -30.68484375 16.82859375 -31.6171875 16.8046875 C-34.18806994 16.75675164 -34.18806994 16.75675164 -36 19 C-38.43744897 19.17488254 -40.7593608 19.23177405 -43.1953125 19.1953125 C-43.90275604 19.1924826 -44.61019958 19.18965271 -45.33908081 19.18673706 C-47.6012251 19.17553137 -49.86297515 19.15042679 -52.125 19.125 C-53.65754637 19.11497067 -55.19009894 19.10584474 -56.72265625 19.09765625 C-60.48192301 19.07559086 -64.24089464 19.04105896 -68 19 C-67.13623047 17.04296875 -67.13623047 17.04296875 -66 15 C-63.8203125 14.3125 -63.8203125 14.3125 -61.125 14 C-56.76693815 13.37088346 -52.89359615 12.3675296 -48.75 10.875 C-42.28730415 8.63437582 -37.3210595 7.93524388 -31 11 C-30.67 8.36 -30.34 5.72 -30 3 C-28.68 2.67 -27.36 2.34 -26 2 C-26 2.99 -26 3.98 -26 5 C-22.41548691 4.94810241 -18.83337949 4.85302216 -15.25 4.75 C-13.72632812 4.72873047 -13.72632812 4.72873047 -12.171875 4.70703125 C-6.317854 4.63008465 -6.317854 4.63008465 -1.296875 1.953125 C-0.86890625 1.30859375 -0.4409375 0.6640625 0 0 Z " fill="#E8E9E9" transform="translate(132,93)"/>
<path d="M0 0 C3.93846154 3.32307692 3.93846154 3.32307692 4.25 6.75 C4.1675 7.4925 4.085 8.235 4 9 C6.31 9 8.62 9 11 9 C10.505 6.03 10.505 6.03 10 3 C13.94120709 3.56302958 16.7508723 4.6791945 20 7 C20 7.66 20 8.32 20 9 C26.35015862 8.15777924 26.35015862 8.15777924 31.375 4.5 C35.30718502 0.75506189 39.74217706 0.61694245 45 0 C44.40606618 1.29640378 43.79942011 2.58698839 43.1875 3.875 C42.85105469 4.59429687 42.51460938 5.31359375 42.16796875 6.0546875 C41 8 41 8 38 10 C35.08203125 10.1953125 35.08203125 10.1953125 31.8125 10.125 C30.18248047 10.09792969 30.18248047 10.09792969 28.51953125 10.0703125 C27.27236328 10.03550781 27.27236328 10.03550781 26 10 C25.7009375 10.62390625 25.401875 11.2478125 25.09375 11.890625 C23.96379234 14.06982906 22.87966166 15.43361528 21 17 C20.34 17 19.68 17 19 17 C19 15.35 19 13.7 19 12 C17.54052295 12.06006078 16.08220728 12.1488689 14.625 12.25 C13.81289062 12.29640625 13.00078125 12.3428125 12.1640625 12.390625 C9.81161073 12.7922092 9.81161073 12.7922092 8.7109375 15.046875 C8.47632813 15.69140625 8.24171875 16.3359375 8 17 C7.34 16.01 6.68 15.02 6 14 C3.44105415 13.52092824 3.44105415 13.52092824 0.5625 13.625 C-0.88962891 13.61339844 -0.88962891 13.61339844 -2.37109375 13.6015625 C-5.32060756 14.04859134 -6.1969369 14.6896344 -8 17 C-9.02104551 16.02149805 -10.0206121 15.02019573 -11 14 C-11 13.67 -11 13.34 -11 13 C-13.97 12.505 -13.97 12.505 -17 12 C-17.2475 12.61875 -17.495 13.2375 -17.75 13.875 C-19.27221172 16.46275992 -20.16777975 17.05592658 -23 18 C-27.67460102 18.49729798 -30.17571334 17.69949646 -34 15 C-33.67 14.34 -33.34 13.68 -33 13 C-31 14 -31 14 -30 15 C-24.28047797 15.63873872 -24.28047797 15.63873872 -19.5 13 C-19.005 12.34 -18.51 11.68 -18 11 C-18.99 11 -19.98 11 -21 11 C-21 10.34 -21 9.68 -21 9 C-20.01 8.67 -19.02 8.34 -18 8 C-16.79117904 5.99983534 -16.79117904 5.99983534 -16 4 C-15.67 6.31 -15.34 8.62 -15 11 C-11.7 11 -8.4 11 -5 11 C-5.66 9.35 -6.32 7.7 -7 6 C-6.01 6 -5.02 6 -4 6 C-3.67 5.01 -3.34 4.02 -3 3 C-2.67 4.32 -2.34 5.64 -2 7 C-1.67 6.67 -1.34 6.34 -1 6 C-1 5.175 -1 4.35 -1 3.5 C-1 1 -1 1 0 0 Z " fill="#A9ACA9" transform="translate(98,156)"/>
<path d="M0 0 C2.87029869 1.79393668 4.49131638 2.98263276 6 6 C6.57538625 13.01971231 6.57538625 13.01971231 4.3125 16.875 C0.66185639 20.22964548 -1.58623806 21.04960568 -6.5625 20.875 C-10.47218861 19.87980654 -11.80654399 19.3745477 -14 16 C-15.41917633 11.15268345 -15.53718243 8.03731779 -13.1875 3.5 C-9.41819422 -0.80777804 -5.47117707 -0.70870169 0 0 Z " fill="#EFF0EF" transform="translate(112,122)"/>
<path d="M0 0 C0.33 0 0.66 0 1 0 C0.67 3.3 0.34 6.6 0 10 C-0.66 10 -1.32 10 -2 10 C-4.02199739 16.51192298 -4.02199739 16.51192298 -2.5625 22.8125 C-1.7890625 23.8953125 -1.7890625 23.8953125 -1 25 C-1.3125 27.8125 -1.3125 27.8125 -2 30 C-2.99 30.33 -3.98 30.66 -5 31 C-5.495 28.525 -5.495 28.525 -6 26 C-8.72426311 28.35277269 -9.8141763 30.62496331 -11 34 C-10.34 34.66 -9.68 35.32 -9 36 C-8.43589744 42.20512821 -8.43589744 42.20512821 -10.375 44.9375 C-12 46 -12 46 -14 46 C-14.39036513 44.39950296 -14.76178619 42.79437629 -15.125 41.1875 C-15.43824219 39.84751953 -15.43824219 39.84751953 -15.7578125 38.48046875 C-16 36 -16 36 -14 33 C-14.66 32.01 -15.32 31.02 -16 30 C-16.66 30.33 -17.32 30.66 -18 31 C-18 30.01 -18 29.02 -18 28 C-19.65 28 -21.3 28 -23 28 C-23 27.67 -23 27.34 -23 27 C-19.535 26.505 -19.535 26.505 -16 26 C-17.65 25.01 -19.3 24.02 -21 23 C-20.67 22.34 -20.34 21.68 -20 21 C-16.7 21 -13.4 21 -10 21 C-9.34 19.68 -8.68 18.36 -8 17 C-9.98 16.67 -11.96 16.34 -14 16 C-14 15.34 -14 14.68 -14 14 C-11.8828125 12.4921875 -11.8828125 12.4921875 -9.125 10.875 C-8.22007812 10.33617188 -7.31515625 9.79734375 -6.3828125 9.2421875 C-4 8 -4 8 -2 8 C-1.34 5.36 -0.68 2.72 0 0 Z " fill="#C8CBC9" transform="translate(168,108)"/>
<path d="M0 0 C2.875 1.5 2.875 1.5 5 3 C2.64722731 5.72426311 0.37503669 6.8141763 -3 8 C-2.33613281 8.08636719 -1.67226562 8.17273437 -0.98828125 8.26171875 C4.81576806 9.1852828 8.37948828 10.02179638 12 15 C12.71408334 16.98356483 13.38617742 18.98315437 14 21 C15.34338356 22.48972543 15.34338356 22.48972543 17 24 C18.26547935 25.31865075 19.51501683 26.65274563 20.75 28 C21.38421875 28.680625 22.0184375 29.36125 22.671875 30.0625 C23.11015625 30.701875 23.5484375 31.34125 24 32 C22.87410807 35.3776758 21.68056948 36.71363192 19 39 C18.01 39 17.02 39 16 39 C14.94127764 35.82383292 15.05082835 33.92943872 15.25 30.625 C15.27639354 26.62373885 15.26531947 25.38591924 12.9375 22 C10.01979756 19.87613894 10.01979756 19.87613894 6.5 18.5 C2.70922387 16.87538166 0.80522165 14.9610673 -2 12 C-2.99 11.67 -3.98 11.34 -5 11 C-4.01 14.3 -3.02 17.6 -2 21 C-2.99 21.33 -3.98 21.66 -5 22 C-5.99 21.01 -6.98 20.02 -8 19 C-6.68 19.33 -5.36 19.66 -4 20 C-4.2165625 19.46890625 -4.433125 18.9378125 -4.65625 18.390625 C-4.9346875 17.68421875 -5.213125 16.9778125 -5.5 16.25 C-5.7784375 15.55390625 -6.056875 14.8578125 -6.34375 14.140625 C-7 12 -7 12 -7 8 C-9.475 7.01 -9.475 7.01 -12 6 C-8.11423772 0.94850904 -6.4955368 -0.50945387 0 0 Z " fill="#C0C3C1" transform="translate(130,25)"/>
<path d="M0 0 C0.33 0 0.66 0 1 0 C1 3.96 1 7.92 1 12 C0.34 12.33 -0.32 12.66 -1 13 C-1.8353125 12.5359375 -1.8353125 12.5359375 -2.6875 12.0625 C-7.67701534 9.77001998 -12.56433482 10.94597074 -17.54467773 12.77856445 C-18.16930908 13.01663818 -18.79394043 13.25471191 -19.4375 13.5 C-24.8141755 15.4356563 -29.27333775 16.58435329 -35 16 C-36.86987216 12.26025568 -36.30641834 7.53209172 -35.5 3.5 C-35.335 3.005 -35.17 2.51 -35 2 C-34.34 2 -33.68 2 -33 2 C-33.14107747 3.45880109 -33.28802415 4.91703551 -33.4375 6.375 C-33.51871094 7.18710938 -33.59992188 7.99921875 -33.68359375 8.8359375 C-34 11 -34 11 -35 13 C-32.11785113 12.11785113 -32.11785113 12.11785113 -30 11 C-30 10.01 -30 9.02 -30 8 C-21.42 8 -12.84 8 -4 8 C-6.43387753 6.78306124 -8.41838846 6.68040104 -11.125 6.4375 C-12.03507812 6.35371094 -12.94515625 6.26992187 -13.8828125 6.18359375 C-14.58148438 6.12300781 -15.28015625 6.06242187 -16 6 C-16 5.34 -16 4.68 -16 4 C-17.134375 3.87625 -18.26875 3.7525 -19.4375 3.625 C-20.613125 3.41875 -21.78875 3.2125 -23 3 C-23.33 2.34 -23.66 1.68 -24 1 C-21.58239124 1.11426509 -19.16652782 1.24099661 -16.75 1.375 C-16.06808594 1.4059375 -15.38617188 1.436875 -14.68359375 1.46875 C-10.94944776 1.68627307 -8.24886835 2.1669229 -5 4 C-4.01 4 -3.02 4 -2 4 C-2 3.34 -2 2.68 -2 2 C-1.34 2 -0.68 2 0 2 C0 1.34 0 0.68 0 0 Z " fill="#A1A4A1" transform="translate(101,92)"/>
<path d="M0 0 C4.875 4.75 4.875 4.75 6 7 C5.0625 9.125 5.0625 9.125 4 11 C5.32 11.33 6.64 11.66 8 12 C8 12.99 8 13.98 8 15 C9.32 15.33 10.64 15.66 12 16 C10.02 16 8.04 16 6 16 C6.33 16.66 6.66 17.32 7 18 C6.01 18 5.02 18 4 18 C4.33 18.99 4.66 19.98 5 21 C3.35 20.67 1.7 20.34 0 20 C-0.309375 20.61875 -0.61875 21.2375 -0.9375 21.875 C-1.625 23.25 -2.3125 24.625 -3 26 C-1.02 26 0.96 26 3 26 C3.33 26.66 3.66 27.32 4 28 C2.35 28 0.7 28 -1 28 C-1.04125 28.61875 -1.0825 29.2375 -1.125 29.875 C-1.41375 30.57625 -1.7025 31.2775 -2 32 C-2.969375 32.268125 -3.93875 32.53625 -4.9375 32.8125 C-6.4534375 33.4003125 -6.4534375 33.4003125 -8 34 C-9.46022435 37.52451159 -9.46022435 37.52451159 -10 41 C-10.66 40.67 -11.32 40.34 -12 40 C-12.1875 37.6875 -12.1875 37.6875 -12 35 C-11.00693938 33.99310845 -10.00613103 32.99383114 -9 32 C-7.9747746 30.1099213 -7.9747746 30.1099213 -7.25 28.0625 C-6.98703125 27.39347656 -6.7240625 26.72445312 -6.453125 26.03515625 C-5.9243332 23.66015169 -6.19386129 22.2758672 -7 20 C-7.33 19.67 -7.66 19.34 -8 19 C-8.25 16.0625 -8.25 16.0625 -8 13 C-7.01 12.34 -6.02 11.68 -5 11 C-4.01 12.65 -3.02 14.3 -2 16 C0.20322937 13.44425393 1.00506076 11.60054377 0.9765625 8.21875 C0.71410051 5.46644592 0.3976833 2.73586945 0 0 Z " fill="#BEC1BE" transform="translate(42,49)"/>
<path d="M0 0 C11.47897324 -0.37028946 11.47897324 -0.37028946 13.86328125 1.32421875 C15.63321345 3.93350024 15.38278316 5.9377347 15 9 C13.9375 10.875 13.9375 10.875 12 12 C8.3125 12.1875 8.3125 12.1875 5 12 C5 14.64 5 17.28 5 20 C3.68 20 2.36 20 1 20 C0.67 13.4 0.34 6.8 0 0 Z " fill="#B1B3B1" transform="translate(121,122)"/>
<path d="M0 0 C2 1.625 2 1.625 4 4 C4.3125 7.1875 4.3125 7.1875 4 10 C3.67 10.33 3.34 10.66 3 11 C5.31 11.33 7.62 11.66 10 12 C9.34 13.65 8.68 15.3 8 17 C7.34 16.01 6.68 15.02 6 14 C3.44105415 13.52092824 3.44105415 13.52092824 0.5625 13.625 C-0.88962891 13.61339844 -0.88962891 13.61339844 -2.37109375 13.6015625 C-5.32060756 14.04859134 -6.1969369 14.6896344 -8 17 C-9.02104551 16.02149805 -10.0206121 15.02019573 -11 14 C-11 13.67 -11 13.34 -11 13 C-13.97 12.505 -13.97 12.505 -17 12 C-17.2475 12.61875 -17.495 13.2375 -17.75 13.875 C-19.27221172 16.46275992 -20.16777975 17.05592658 -23 18 C-27.67460102 18.49729798 -30.17571334 17.69949646 -34 15 C-33.67 14.34 -33.34 13.68 -33 13 C-31 14 -31 14 -30 15 C-24.28047797 15.63873872 -24.28047797 15.63873872 -19.5 13 C-19.005 12.34 -18.51 11.68 -18 11 C-18.99 11 -19.98 11 -21 11 C-21 10.34 -21 9.68 -21 9 C-20.01 8.67 -19.02 8.34 -18 8 C-16.79117904 5.99983534 -16.79117904 5.99983534 -16 4 C-15.67 6.31 -15.34 8.62 -15 11 C-11.7 11 -8.4 11 -5 11 C-5.66 9.35 -6.32 7.7 -7 6 C-6.01 6 -5.02 6 -4 6 C-3.67 5.01 -3.34 4.02 -3 3 C-2.67 4.32 -2.34 5.64 -2 7 C-1.67 6.67 -1.34 6.34 -1 6 C-1 5.175 -1 4.35 -1 3.5 C-1 1 -1 1 0 0 Z " fill="#B2B6B2" transform="translate(98,156)"/>
<path d="M0 0 C0.66 -0.33 1.32 -0.66 2 -1 C1.814375 -0.154375 1.62875 0.69125 1.4375 1.5625 C0.83453601 5.05578638 0.83453601 5.05578638 1.5625 8.75 C1.706875 9.8225 1.85125 10.895 2 12 C1.34 12.66 0.68 13.32 0 14 C-0.33 13.01 -0.66 12.02 -1 11 C-1.66 12.32 -2.32 13.64 -3 15 C-3.99 15 -4.98 15 -6 15 C-6 15.99 -6 16.98 -6 18 C-5.34 18.33 -4.68 18.66 -4 19 C-4.99 19.33 -5.98 19.66 -7 20 C-7 16 -7 12 -7 8 C-10.63 7.01 -14.26 6.02 -18 5 C-16 1 -16 1 -14.3125 -0.25 C-9.46372466 -1.82257579 -4.87722037 -0.97544407 0 0 Z " fill="#C7CAC8" transform="translate(150,147)"/>
<path d="M0 0 C3.30266863 3.06213487 5.00512601 6.67920424 6.9375 10.6875 C7.27201172 11.37005859 7.60652344 12.05261719 7.95117188 12.75585938 C8.62752328 14.13592901 9.29858531 15.51860336 9.96435547 16.90380859 C10.67318246 18.3385065 11.41360474 19.75790459 12.18017578 21.16259766 C12.55513184 21.85788574 12.93008789 22.55317383 13.31640625 23.26953125 C13.6626001 23.89061768 14.00879395 24.5117041 14.36547852 25.15161133 C15.17883279 27.52094768 14.96778445 28.70640506 14 31 C11.12890625 32.484375 11.12890625 32.484375 7.5625 33.75 C6.38816406 34.17796875 5.21382812 34.6059375 4.00390625 35.046875 C1 36 1 36 -1 36 C-1.33 35.01 -1.66 34.02 -2 33 C-0.865625 32.731875 0.26875 32.46375 1.4375 32.1875 C2.613125 31.795625 3.78875 31.40375 5 31 C5.33 30.01 5.66 29.02 6 28 C7.65 28.33 9.3 28.66 11 29 C9.01494059 23.78783284 6.9201319 18.74729177 4.3125 13.8125 C2.23231783 9.77337328 1.29481832 6.5205476 1 2 C0.01 2.66 -0.98 3.32 -2 4 C-4.0847168 4.31884766 -4.0847168 4.31884766 -6.44921875 4.4140625 C-7.29677734 4.45273438 -8.14433594 4.49140625 -9.01757812 4.53125 C-10.33918945 4.57765625 -10.33918945 4.57765625 -11.6875 4.625 C-12.58017578 4.66367188 -13.47285156 4.70234375 -14.39257812 4.7421875 C-16.5948462 4.83640218 -18.79710722 4.92201588 -21 5 C-18.19151163 2.19151163 -15.39200125 2.62128603 -11.625 2.5 C-5.53679931 2.35373861 -5.53679931 2.35373861 0 0 Z " fill="#818481" transform="translate(125,74)"/>
<path d="M0 0 C0.66 0 1.32 0 2 0 C2.57878906 0.61875 3.15757813 1.2375 3.75390625 1.875 C6.40527893 4.38342911 8.4473476 5.01413097 11.9375 6 C16.47462964 7.393075 19.40900064 8.84427329 23 12 C25.68507329 12.78946609 25.68507329 12.78946609 28 13 C27.34 14.98 26.68 16.96 26 19 C25.01 19 24.02 19 23 19 C23 19.66 23 20.32 23 21 C21.68 20.67 20.36 20.34 19 20 C18.34 16.7 17.68 13.4 17 10 C15.453125 9.566875 13.90625 9.13375 12.3125 8.6875 C8.49976666 7.5517922 5.28751333 6.30125933 2 4 C-0.09221447 8.71620011 -0.73621046 13.27738107 -1.4375 18.35546875 C-2 21 -2 21 -4 23 C-4.04898438 22.14535156 -4.09796875 21.29070312 -4.1484375 20.41015625 C-4.22320312 19.30542969 -4.29796875 18.20070313 -4.375 17.0625 C-4.47941406 15.40927734 -4.47941406 15.40927734 -4.5859375 13.72265625 C-4.72257812 12.82417969 -4.85921875 11.92570312 -5 11 C-5.66 10.67 -6.32 10.34 -7 10 C-7.33 12.64 -7.66 15.28 -8 18 C-8.66 18 -9.32 18 -10 18 C-9.34 14.7 -8.68 11.4 -8 8 C-6.02 8 -4.04 8 -2 8 C-1.34 5.36 -0.68 2.72 0 0 Z " fill="#808380" transform="translate(79,67)"/>
<path d="M0 0 C2 1 2 1 3.125 3.3125 C4 6 4 6 4 10 C3.236875 9.938125 2.47375 9.87625 1.6875 9.8125 C-1.58597259 10.04088181 -1.78250906 10.7649917 -4 13 C-5.85351562 13.89135742 -5.85351562 13.89135742 -7.90625 14.60546875 C-8.65003906 14.86650391 -9.39382812 15.12753906 -10.16015625 15.39648438 C-10.93230469 15.65751953 -11.70445313 15.91855469 -12.5 16.1875 C-13.27214844 16.46013672 -14.04429688 16.73277344 -14.83984375 17.01367188 C-20.58476269 19 -20.58476269 19 -24 19 C-24.33 18.01 -24.66 17.02 -25 16 C-23.43694509 14.43694509 -21.72321782 14.69360032 -19.5625 14.5 C-16.15502495 14.20853056 -16.15502495 14.20853056 -13 13 C-13.33 12.34 -13.66 11.68 -14 11 C-11.36 10.34 -8.72 9.68 -6 9 C-6.74765625 8.96261719 -7.4953125 8.92523438 -8.265625 8.88671875 C-9.74289063 8.78810547 -9.74289063 8.78810547 -11.25 8.6875 C-12.22453125 8.62949219 -13.1990625 8.57148437 -14.203125 8.51171875 C-17.25341611 7.95363476 -18.70711276 7.03630224 -21 5 C-19.81921875 4.97421875 -18.6384375 4.9484375 -17.421875 4.921875 C-15.86454677 4.86558603 -14.30725653 4.80823886 -12.75 4.75 C-11.97269531 4.73582031 -11.19539063 4.72164063 -10.39453125 4.70703125 C-5.53383509 4.50650929 -5.53383509 4.50650929 -1.453125 1.953125 C-0.73382813 0.98632812 -0.73382813 0.98632812 0 0 Z " fill="#EDEEEE" transform="translate(132,93)"/>
<path d="M0 0 C0.33 0 0.66 0 1 0 C0.98839844 0.96421875 0.97679688 1.9284375 0.96484375 2.921875 C0.95582031 4.18515625 0.94679688 5.4484375 0.9375 6.75 C0.92589844 8.00296875 0.91429688 9.2559375 0.90234375 10.546875 C1.0000188 14.37285804 1.0000188 14.37285804 2 18 C2.66 18.33 3.32 18.66 4 19 C3.34 19.66 2.68 20.32 2 21 C0.35 20.67 -1.3 20.34 -3 20 C-2.34 16.37 -1.68 12.74 -1 9 C-1.66 9 -2.32 9 -3 9 C-2.98839844 10.05960938 -2.97679688 11.11921875 -2.96484375 12.2109375 C-2.95546524 13.59895658 -2.94636511 14.98697755 -2.9375 16.375 C-2.92912109 17.07367188 -2.92074219 17.77234375 -2.91210938 18.4921875 C-2.88671875 23.7734375 -2.88671875 23.7734375 -4 26 C-2.94039063 26.04898438 -1.88078125 26.09796875 -0.7890625 26.1484375 C0.59898497 26.22346709 1.98700451 26.29901485 3.375 26.375 C4.07367188 26.4059375 4.77234375 26.436875 5.4921875 26.46875 C10.7734375 26.7734375 10.7734375 26.7734375 13 29 C6.4 29 -0.2 29 -7 29 C-8.00419993 22.9748004 -7.63336444 19.66751336 -6.3125 13.9375 C-6.15072266 13.14794922 -5.98894531 12.35839844 -5.82226562 11.54492188 C-4.75898261 6.79399813 -3.51854055 3.56153697 0 0 Z " fill="#717572" transform="translate(69,85)"/>
<path d="M0 0 C2.75 0.125 2.75 0.125 6 1 C8.5 3.75 8.5 3.75 10 7 C9.25 9.875 9.25 9.875 8 12 C7.01 12 6.02 12 5 12 C5 12.66 5 13.32 5 14 C5.99 14 6.98 14 8 14 C6.25 17.875 6.25 17.875 4 19 C2.125 19.16796875 2.125 19.16796875 0 19.1875 C-1.051875 19.20876953 -1.051875 19.20876953 -2.125 19.23046875 C-4 19 -4 19 -6 17 C-3.94766315 14.7522025 -2.99332739 13.9977758 0 13 C-0.66 12.34 -1.32 11.68 -2 11 C-0.35 11 1.3 11 3 11 C2.7834375 10.45730469 2.566875 9.91460937 2.34375 9.35546875 C2.0653125 8.64003906 1.786875 7.92460937 1.5 7.1875 C1.2215625 6.47980469 0.943125 5.77210938 0.65625 5.04296875 C0 3 0 3 0 0 Z " fill="#E3E5E4" transform="translate(72,153)"/>
<path d="M0 0 C2.64 0 5.28 0 8 0 C6.02 0.99 6.02 0.99 4 2 C4.28875 2.55429687 4.5775 3.10859375 4.875 3.6796875 C5.431875 4.76636719 5.431875 4.76636719 6 5.875 C6.37125 6.59429687 6.7425 7.31359375 7.125 8.0546875 C8 10 8 10 8 12 C8.63808594 12.04898438 9.27617187 12.09796875 9.93359375 12.1484375 C10.75988281 12.22320312 11.58617187 12.29796875 12.4375 12.375 C13.26121094 12.44460937 14.08492187 12.51421875 14.93359375 12.5859375 C15.61550781 12.72257812 16.29742187 12.85921875 17 13 C17.33 13.66 17.66 14.32 18 15 C15.69 15 13.38 15 11 15 C10.67 15.99 10.34 16.98 10 18 C9.34 16.68 8.68 15.36 8 14 C7.01 14.33 6.02 14.66 5 15 C5 16.65 5 18.3 5 20 C2.5 18.6875 2.5 18.6875 0 17 C0 16.01 0 15.02 0 14 C-1.65 14.33 -3.3 14.66 -5 15 C-4.45712148 11.19985035 -2.88535357 9.46103687 0 7 C0.99 6.67 1.98 6.34 3 6 C1.515 3.03 1.515 3.03 0 0 Z " fill="#A7ABA7" transform="translate(154,59)"/>
<path d="M0 0 C0.99 0.66 1.98 1.32 3 2 C3 2.33 3 2.66 3 3 C3.85464844 3.12117188 4.70929688 3.24234375 5.58984375 3.3671875 C6.69457031 3.53476562 7.79929688 3.70234375 8.9375 3.875 C10.59072266 4.11863281 10.59072266 4.11863281 12.27734375 4.3671875 C13.17582031 4.57601563 14.07429688 4.78484375 15 5 C15.495 5.99 15.495 5.99 16 7 C15.34 7.66 14.68 8.32 14 9 C12.68 8.01 11.36 7.02 10 6 C10.66 8.97 11.32 11.94 12 15 C9 12 9 12 8 6 C3.05 6 -1.9 6 -7 6 C-6.67 6.99 -6.34 7.98 -6 9 C-6.66 9.66 -7.32 10.32 -8 11 C-8.99 11 -9.98 11 -11 11 C-10.125 7.125 -10.125 7.125 -9 6 C-10.47968324 6.14049518 -11.95874516 6.28754826 -13.4375 6.4375 C-14.67306641 6.55931641 -14.67306641 6.55931641 -15.93359375 6.68359375 C-17.98662025 6.78930815 -17.98662025 6.78930815 -19 8 C-21.34987262 8.23527773 -23.70556039 8.41386417 -26.0625 8.5625 C-27.99802734 8.68818359 -27.99802734 8.68818359 -29.97265625 8.81640625 C-30.97167969 8.87699219 -31.97070312 8.93757813 -33 9 C-32.67 8.01 -32.34 7.02 -32 6 C-31.01 6.04125 -30.02 6.0825 -29 6.125 C-24.07314518 6.11498607 -18.92164712 5.56133828 -15 2.375 C-14.67 1.92125 -14.34 1.4675 -14 1 C-14 1.99 -14 2.98 -14 4 C-12.04082341 3.9131252 -10.08258129 3.80495488 -8.125 3.6875 C-7.03445312 3.62949219 -5.94390625 3.57148438 -4.8203125 3.51171875 C-3.88960937 3.34285156 -2.95890625 3.17398437 -2 3 C-1.34 2.01 -0.68 1.02 0 0 Z " fill="#787E79" transform="translate(108,27)"/>
<path d="M0 0 C0.77214844 -0.01611328 1.54429688 -0.03222656 2.33984375 -0.04882812 C4.59375 -0.05078125 4.59375 -0.05078125 8.5 0.3125 C9.49 1.3025 10.48 2.2925 11.5 3.3125 C8.53 4.3025 5.56 5.2925 2.5 6.3125 C3.49 6.9725 4.48 7.6325 5.5 8.3125 C4.51257813 8.44527344 3.52515625 8.57804687 2.5078125 8.71484375 C1.22648437 8.89144531 -0.05484375 9.06804687 -1.375 9.25 C-2.65117188 9.42402344 -3.92734375 9.59804687 -5.2421875 9.77734375 C-8.37559454 10.12683227 -8.37559454 10.12683227 -10.5 11.3125 C-12.8400417 11.03008117 -15.17504723 10.69999213 -17.5 10.3125 C-17.5 9.9825 -17.5 9.6525 -17.5 9.3125 C-16.2625 9.209375 -15.025 9.10625 -13.75 9 C-10.2207134 8.57448318 -8.12839034 7.83137408 -5.5 5.3125 C-8.14 5.6425 -10.78 5.9725 -13.5 6.3125 C-10.69654311 -0.1570159 -6.41901575 -0.02679055 0 0 Z " fill="#C7CAC8" transform="translate(116.5,98.6875)"/>
<path d="M0 0 C1.65 0 3.3 0 5 0 C5 6.27 5 12.54 5 19 C8.465 18.505 8.465 18.505 12 18 C12.66 16.02 13.32 14.04 14 12 C14.33 12 14.66 12 15 12 C15.09765625 18.15234375 15.09765625 18.15234375 15 20 C14 21 14 21 10.83984375 21.09765625 C7.2265625 21.06510417 3.61328125 21.03255208 0 21 C0 14.07 0 7.14 0 0 Z " fill="#646764" transform="translate(65,122)"/>
<path d="M0 0 C2.15357027 2.1147672 4.20025378 4.29066049 6.1875 6.5625 C6.71730469 7.16191406 7.24710938 7.76132813 7.79296875 8.37890625 C9 10 9 10 9 12 C9.99 12.33 10.98 12.66 12 13 C13.04644066 14.63790712 14.0398183 16.31008021 15 18 C18.92363708 23.23151611 22.59065819 27.98563543 29 30 C28.505 27.525 28.505 27.525 28 25 C29.32 26.32 30.64 27.64 32 29 C30 31 30 31 27.25 31.4375 C22.86118082 30.84669742 21.0987702 29.0987702 18 26 C17.5875 25.13375 17.175 24.2675 16.75 23.375 C13.90080073 19.50822956 9.5306769 19.04554082 5 18 C5.33 17.01 5.66 16.02 6 15 C6.99 14.67 7.98 14.34 9 14 C5.97494614 9.73952281 5.97494614 9.73952281 1.6875 7.125 C1.130625 7.08375 0.57375 7.0425 0 7 C0 4.69 0 2.38 0 0 Z " fill="#A5A9A6" transform="translate(40,134)"/>
<path d="M0 0 C0.28875 0.639375 0.5775 1.27875 0.875 1.9375 C1.82823451 4.15206079 1.82823451 4.15206079 4 5 C3.79375 5.7425 3.5875 6.485 3.375 7.25 C2.95591249 10.32330841 3.38050989 11.42786866 5 14 C4.34 14 3.68 14 3 14 C3.99 16.64 4.98 19.28 6 22 C2.47130219 20.58852088 1.58544049 19.36906104 0 16 C-0.70125 15.319375 -1.4025 14.63875 -2.125 13.9375 C-4 12 -4 12 -4 9 C-6.31 9 -8.62 9 -11 9 C-11 8.01 -11 7.02 -11 6 C-7.58900832 6 -4.36911686 6.49145406 -1 7 C-0.67 4.69 -0.34 2.38 0 0 Z " fill="#C5C8C5" transform="translate(41,119)"/>
<path d="M0 0 C0.99 0 1.98 0 3 0 C4.8291543 3.08845668 5.2064877 5.01270749 4.75 8.5625 C4.66234375 9.32691406 4.5746875 10.09132813 4.484375 10.87890625 C4 13 4 13 2 16 C0.0625 15.625 0.0625 15.625 -2 15 C-3.59598236 11.80803528 -3.3785159 8.47304937 -3 5 C-1.6875 2 -1.6875 2 0 0 Z " fill="#B2B5B2" transform="translate(29,90)"/>
<path d="M0 0 C0.268125 0.598125 0.53625 1.19625 0.8125 1.8125 C2.01890616 4.03482713 3.19828317 5.24915518 5 7 C6.26547935 8.31865075 7.51501683 9.65274563 8.75 11 C9.38421875 11.680625 10.0184375 12.36125 10.671875 13.0625 C11.11015625 13.701875 11.5484375 14.34125 12 15 C10.87410807 18.3776758 9.68056948 19.71363192 7 22 C6.01 22 5.02 22 4 22 C2.94209218 18.82627653 3.07796424 17.04269813 3.3125 13.75 C3.38836769 9.35551005 2.90788153 7.1426032 0 3.8125 C-0.97487914 2.84890418 -1.96689675 1.90089063 -3 1 C-2.01 0.67 -1.02 0.34 0 0 Z " fill="#C8CBC9" transform="translate(142,42)"/>
<path d="M0 0 C-0.66 0.99 -1.32 1.98 -2 3 C-4.48340903 3.26727014 -6.71472068 3.34866334 -9.1953125 3.29296875 C-9.90275604 3.28872391 -10.61019958 3.28447906 -11.33908081 3.28010559 C-13.60143905 3.26329547 -15.86291048 3.22564128 -18.125 3.1875 C-19.65753923 3.17245607 -21.1900924 3.15876716 -22.72265625 3.14648438 C-26.48211318 3.11338462 -30.24090618 3.06158825 -34 3 C-33.67 2.01 -33.34 1.02 -33 0 C-27.39 0 -21.78 0 -16 0 C-16 0.66 -16 1.32 -16 2 C-14.64455078 1.65775391 -14.64455078 1.65775391 -13.26171875 1.30859375 C-12.08222656 1.02113281 -10.90273437 0.73367187 -9.6875 0.4375 C-7.92986328 0.00244141 -7.92986328 0.00244141 -6.13671875 -0.44140625 C-3 -1 -3 -1 0 0 Z " fill="#D9DBD9" transform="translate(98,109)"/>
<path d="M0 0 C4.875 4.75 4.875 4.75 6 7 C5.0625 9.125 5.0625 9.125 4 11 C5.32 11.33 6.64 11.66 8 12 C8 12.99 8 13.98 8 15 C9.32 15.33 10.64 15.66 12 16 C10.02 16 8.04 16 6 16 C6.33 16.66 6.66 17.32 7 18 C6.01 18 5.02 18 4 18 C4.33 18.99 4.66 19.98 5 21 C2.13680145 19.95016053 1.1500572 19.26601048 -0.375 16.5625 C-0.58125 15.716875 -0.7875 14.87125 -1 14 C-0.34 13.01 0.32 12.02 1 11 C1.02477359 8.24612373 1.02477359 8.24612373 0.625 5.3125 C0.51414063 4.31863281 0.40328125 3.32476562 0.2890625 2.30078125 C0.19367187 1.54152344 0.09828125 0.78226563 0 0 Z " fill="#A0A4A0" transform="translate(42,49)"/>
<path d="M0 0 C3.44527661 1.24412767 6.25391752 2.54814064 9 5 C9.89130413 7.6739124 10.47731534 10.23723823 11 13 C9.72125 12.896875 8.4425 12.79375 7.125 12.6875 C6.04605469 12.60048828 6.04605469 12.60048828 4.9453125 12.51171875 C3 12 3 12 1 9 C0.5859375 6.73828125 0.5859375 6.73828125 0.375 4.3125 C0.30023437 3.50425781 0.22546875 2.69601563 0.1484375 1.86328125 C0.09945313 1.24839844 0.05046875 0.63351563 0 0 Z " fill="#D3D5D3" transform="translate(20,103)"/>
<path d="M0 0 C0.33 0.99 0.66 1.98 1 3 C2.65532623 4.01866229 4.32260138 5.01810813 6 6 C8.29013653 9.4352048 8.17842973 10.985331 8 15 C3.45115605 13.03572648 0.76309442 11.14464164 -2 7 C-2 6.34 -2 5.68 -2 5 C-2.66 4.67 -3.32 4.34 -4 4 C-4 3.01 -4 2.02 -4 1 C-2.68 0.67 -1.36 0.34 0 0 Z " fill="#BABDBA" transform="translate(105,32)"/>
<path d="M0 0 C4.40114397 0.50298788 6.71195019 2.08772731 10 5 C3.4744757 8.41106952 -0.73818209 9.1210303 -8 9 C-7.34 8.01 -6.68 7.02 -6 6 C-2.375 5.8125 -2.375 5.8125 1 6 C0.67 4.02 0.34 2.04 0 0 Z " fill="#CACDCA" transform="translate(108,159)"/>
<path d="M0 0 C0.33 1.32 0.66 2.64 1 4 C6.94 3.67 12.88 3.34 19 3 C19 2.67 19 2.34 19 2 C24.61 2 30.22 2 36 2 C36 2.99 36 3.98 36 5 C24.12 5 12.24 5 0 5 C0 3.35 0 1.7 0 0 Z " fill="#656865" transform="translate(61,110)"/>
<path d="M0 0 C0.99 0.33 1.98 0.66 3 1 C4.125 6.75 4.125 6.75 3 9 C4.05960937 9.04898438 5.11921875 9.09796875 6.2109375 9.1484375 C7.59898497 9.22346709 8.98700451 9.29901485 10.375 9.375 C11.07367188 9.4059375 11.77234375 9.436875 12.4921875 9.46875 C17.7734375 9.7734375 17.7734375 9.7734375 20 12 C13.4 12 6.8 12 0 12 C-0.82783144 7.03301135 -1.00001003 4.66671349 0 0 Z " fill="#808380" transform="translate(62,102)"/>
<path d="M0 0 C3.67176009 -0.34155908 5.58028931 -0.24249951 8.8125 1.625 C11.40674134 4.44160489 11.74327938 6.2347642 12 10 C7.59124045 9.49614177 5.17449034 8.0886933 2 5 C0.6875 2.25 0.6875 2.25 0 0 Z " fill="#DFE0DF" transform="translate(57,154)"/>
<path d="M0 0 C0.66 0.33 1.32 0.66 2 1 C2.625 3.0625 2.625 3.0625 3 5 C-0.14392573 8.05145732 -1.92510215 8.9527244 -6.375 9.1484375 C-17.1402647 8.54289136 -17.1402647 8.54289136 -21 5 C-19.81921875 4.97421875 -18.6384375 4.9484375 -17.421875 4.921875 C-15.86454677 4.86558603 -14.30725653 4.80823886 -12.75 4.75 C-11.97269531 4.73582031 -11.19539063 4.72164063 -10.39453125 4.70703125 C-5.53383509 4.50650929 -5.53383509 4.50650929 -1.453125 1.953125 C-0.73382813 0.98632812 -0.73382813 0.98632812 0 0 Z " fill="#CED0CE" transform="translate(132,93)"/>
<path d="M0 0 C0.77214844 -0.01611328 1.54429688 -0.03222656 2.33984375 -0.04882812 C8.08042873 -0.05380264 8.08042873 -0.05380264 10.24414062 1.83520508 C10.65857422 2.3227124 11.07300781 2.81021973 11.5 3.3125 C9.7984375 3.38597656 9.7984375 3.38597656 8.0625 3.4609375 C6.54164602 3.5360414 5.02081375 3.61158584 3.5 3.6875 C2.75621094 3.7184375 2.01242188 3.749375 1.24609375 3.78125 C-3.90567483 4.05003793 -8.52992756 4.92313884 -13.5 6.3125 C-10.69654311 -0.1570159 -6.41901575 -0.02679055 0 0 Z " fill="#888B88" transform="translate(116.5,98.6875)"/>
<path d="M0 0 C0.99 0 1.98 0 3 0 C3.66 0.66 4.32 1.32 5 2 C7.57061311 2.64767793 7.57061311 2.64767793 10 3 C9.34 4.98 8.68 6.96 8 9 C7.01 9 6.02 9 5 9 C5 9.66 5 10.32 5 11 C3.68 10.67 2.36 10.34 1 10 C0.67 6.7 0.34 3.4 0 0 Z " fill="#C1C4C1" transform="translate(97,77)"/>
<path d="M0 0 C5.875 0.875 5.875 0.875 7 2 C7.1875 4.9375 7.1875 4.9375 7 8 C6.34 8.66 5.68 9.32 5 10 C3.35 10 1.7 10 0 10 C0 6.7 0 3.4 0 0 Z " fill="#FAFBFA" transform="translate(126,123)"/>
<path d="M0 0 C0.49230769 7.38461538 0.49230769 7.38461538 -2 10.5 C-2.66 10.995 -3.32 11.49 -4 12 C-4.66 11.67 -5.32 11.34 -6 11 C-6.99 11.495 -6.99 11.495 -8 12 C-7.63243243 4.64864865 -7.63243243 4.64864865 -4.5625 1.5 C-2 0 -2 0 0 0 Z " fill="#F1F2F2" transform="translate(41,102)"/>
<path d="M0 0 C0.99 0 1.98 0 3 0 C3 0.99 3 1.98 3 3 C3.66 3 4.32 3 5 3 C5 5 5 5 2.5 7.625 C1.675 8.40875 0.85 9.1925 0 10 C1.65 9.67 3.3 9.34 5 9 C4.01 10.485 4.01 10.485 3 12 C0.6875 12.36328125 0.6875 12.36328125 -2 12.3125 C-2.886875 12.30863281 -3.77375 12.30476563 -4.6875 12.30078125 C-7 12 -7 12 -9 10 C-5.535 9.505 -5.535 9.505 -2 9 C-1.855625 7.700625 -1.71125 6.40125 -1.5625 5.0625 C-1.125 1.125 -1.125 1.125 0 0 Z " fill="#D7D9D7" transform="translate(103,95)"/>
<path d="M0 0 C0.99 0 1.98 0 3 0 C3.33 6.6 3.66 13.2 4 20 C2.35 20 0.7 20 -1 20 C-0.67 13.4 -0.34 6.8 0 0 Z " fill="#262A26" transform="translate(85,122)"/>
<path d="M0 0 C1.32 0 2.64 0 4 0 C4.33 6.6 4.66 13.2 5 20 C3.68 20 2.36 20 1 20 C0.67 13.4 0.34 6.8 0 0 Z " fill="#292B29" transform="translate(121,122)"/>
<path d="M0 0 C1.48693359 0.00386719 1.48693359 0.00386719 3.00390625 0.0078125 C3.99261719 0.00523438 4.98132813 0.00265625 6 0 C8.56640625 0.1328125 8.56640625 0.1328125 10.56640625 1.1328125 C10.56640625 1.7928125 10.56640625 2.4528125 10.56640625 3.1328125 C9.90640625 3.1328125 9.24640625 3.1328125 8.56640625 3.1328125 C8.56640625 3.7928125 8.56640625 4.4528125 8.56640625 5.1328125 C3.28143216 6.27789022 3.28143216 6.27789022 0.56640625 6.1328125 C-1.93359375 3.6953125 -1.93359375 3.6953125 -3.43359375 1.1328125 C-2.43359375 0.1328125 -2.43359375 0.1328125 0 0 Z " fill="#E6E8E6" transform="translate(56.43359375,47.8671875)"/>
<path d="M0 0 C7.45475911 0.48883666 7.45475911 0.48883666 10 2.875 C11 5 11 5 11 8 C8.1875 8.625 8.1875 8.625 5 9 C4.01 8.34 3.02 7.68 2 7 C2.226875 6.401875 2.45375 5.80375 2.6875 5.1875 C2.790625 4.465625 2.89375 3.74375 3 3 C1.64555699 1.22809091 1.64555699 1.22809091 0 0 Z " fill="#E3E5E3" transform="translate(131,35)"/>
<path d="M0 0 C7.23186925 -0.49029622 7.23186925 -0.49029622 10.9375 1.875 C13.64488744 4.66442948 14.1664688 6.21325228 14.25 10 C14.28867188 11.051875 14.28867188 11.051875 14.328125 12.125 C14.21984375 12.74375 14.1115625 13.3625 14 14 C13.01 14.66 12.02 15.32 11 16 C10.98582031 15.40832031 10.97164062 14.81664062 10.95703125 14.20703125 C10.69549026 9.87393323 10.41585466 7.55447288 7.75 4 C5.00691925 2.00503218 3.3429554 1.28653903 0 1 C0 0.67 0 0.34 0 0 Z " fill="#242724" transform="translate(104,122)"/>
<path d="M0 0 C2.34917898 2.15341406 3.82443004 4.21667937 5.25 7.0625 C5.78367188 8.10083984 5.78367188 8.10083984 6.328125 9.16015625 C6.54984375 9.76730469 6.7715625 10.37445313 7 11 C6.67 11.66 6.34 12.32 6 13 C5.34 13 4.68 13 4 13 C3.49384702 11.73160474 2.99530901 10.46016898 2.5 9.1875 C2.2215625 8.47980469 1.943125 7.77210937 1.65625 7.04296875 C1 5 1 5 1 2 C0.01 2.66 -0.98 3.32 -2 4 C-4.0847168 4.31884766 -4.0847168 4.31884766 -6.44921875 4.4140625 C-7.29677734 4.45273438 -8.14433594 4.49140625 -9.01757812 4.53125 C-10.33918945 4.57765625 -10.33918945 4.57765625 -11.6875 4.625 C-12.58017578 4.66367188 -13.47285156 4.70234375 -14.39257812 4.7421875 C-16.5948462 4.83640218 -18.79710722 4.92201588 -21 5 C-18.19151163 2.19151163 -15.39200125 2.62128603 -11.625 2.5 C-5.53679931 2.35373861 -5.53679931 2.35373861 0 0 Z " fill="#999C99" transform="translate(125,74)"/>
<path d="M0 0 C0.3669579 6.48292295 0.3669579 6.48292295 -1.375 8.9375 C-3 10 -3 10 -5 10 C-5.66 6.7 -6.32 3.4 -7 0 C-2 -1 -2 -1 0 0 Z " fill="#CCCECC" transform="translate(159,144)"/>
<path d="M0 0 C2 2 2 2 2.25 5.375 C2.02515633 8.63523324 1.7239511 10.30632641 0 13 C-1.32 12.67 -2.64 12.34 -4 12 C-4.33 9.69 -4.66 7.38 -5 5 C-4.34 5 -3.68 5 -3 5 C-2.5359375 4.0409375 -2.5359375 4.0409375 -2.0625 3.0625 C-1 1 -1 1 0 0 Z " fill="#E9EAEA" transform="translate(171,95)"/>
<path d="M0 0 C4.24822374 0.47202486 6.19989709 2.96655518 9 6 C8.67 6.99 8.34 7.98 8 9 C5.9375 9.6875 5.9375 9.6875 4 10 C0 4.5 0 4.5 0 0 Z " fill="#E2E3E2" transform="translate(86,153)"/>
<path d="M0 0 C0.33 0 0.66 0 1 0 C0.67 3.3 0.34 6.6 0 10 C-0.66 10 -1.32 10 -2 10 C-2.36368892 11.60203467 -2.71561952 13.20674203 -3.0625 14.8125 C-3.25972656 15.70582031 -3.45695313 16.59914063 -3.66015625 17.51953125 C-4.20349463 20.12630779 -4.20349463 20.12630779 -3 23 C-4.32 23 -5.64 23 -7 23 C-6.88490339 21.58249437 -6.75746342 20.16598831 -6.625 18.75 C-6.55539063 17.96109375 -6.48578125 17.1721875 -6.4140625 16.359375 C-5.98492887 13.914123 -5.21399362 12.15163097 -4 10 C-4.66 9.67 -5.32 9.34 -6 9 C-4.68 8.67 -3.36 8.34 -2 8 C-1.34 5.36 -0.68 2.72 0 0 Z " fill="#656A65" transform="translate(168,108)"/>
<path d="M0 0 C0.66 0 1.32 0 2 0 C2.33 0.99 2.66 1.98 3 3 C3.66 2.67 4.32 2.34 5 2 C5 3.32 5 4.64 5 6 C5.66 5.67 6.32 5.34 7 5 C8 7 8 7 8 10 C4.82975235 11.58512383 1.45332972 11.42372144 -2 11 C-4 9.5 -4 9.5 -5 8 C-2.69 8.66 -0.38 9.32 2 10 C1.505 8.9171875 1.505 8.9171875 1 7.8125 C-0.00603529 4.98302573 -0.16977402 2.97104534 0 0 Z " fill="#9DA19D" transform="translate(29,106)"/>
<path d="M0 0 C3.8480063 1.4595886 5.21206544 3.33899114 7 7 C7.6875 9.8125 7.6875 9.8125 8 12 C5.03 11.505 5.03 11.505 2 11 C0.57741188 7.17679443 -0.24042276 4.08718695 0 0 Z " fill="#D9DAD9" transform="translate(118,33)"/>
<path d="M0 0 C0.33 0 0.66 0 1 0 C1.02578125 0.59167969 1.0515625 1.18335937 1.078125 1.79296875 C1.45809381 7.08662511 2.10607857 10.10607857 6 14 C6.66 14.66 7.32 15.32 8 16 C4.91200013 16.3431111 3.40015029 16.25565158 0.75 14.5625 C-1.70169461 10.97251861 -2.2390078 7.32604115 -2 3 C-1.34 2.01 -0.68 1.02 0 0 Z " fill="#242824" transform="translate(99,126)"/>
<path d="M0 0 C2.97 0 5.94 0 9 0 C9 1.32 9 2.64 9 4 C2.71428571 6.42857143 2.71428571 6.42857143 -1 5 C-0.67 3.35 -0.34 1.7 0 0 Z " fill="#D4D6D4" transform="translate(51,59)"/>
<path d="M0 0 C0.33 0.99 0.66 1.98 1 3 C0.34 3 -0.32 3 -1 3 C-1 2.34 -1 1.68 -1 1 C-3.97 1.66 -6.94 2.32 -10 3 C-10 3.33 -10 3.66 -10 4 C-8.68 3.67 -7.36 3.34 -6 3 C-6.99 3.99 -7.98 4.98 -9 6 C-8.01 6.66 -7.02 7.32 -6 8 C-8.95664519 9.4783226 -11.74229737 9.06032783 -15 9 C-14.72608098 5.7129718 -14.18168017 4.21006769 -12 1.6875 C-7.92905632 -0.60240582 -4.56618517 -0.35813217 0 0 Z " fill="#A6AAA6" transform="translate(75,34)"/>
<path d="M0 0 C1.485 0.99 1.485 0.99 3 2 C3 2.33 3 2.66 3 3 C3.85464844 3.12117188 4.70929688 3.24234375 5.58984375 3.3671875 C7.24693359 3.61855469 7.24693359 3.61855469 8.9375 3.875 C10.59072266 4.11863281 10.59072266 4.11863281 12.27734375 4.3671875 C13.17582031 4.57601563 14.07429688 4.78484375 15 5 C15.33 5.66 15.66 6.32 16 7 C15.34 7.66 14.68 8.32 14 9 C12.68 8.01 11.36 7.02 10 6 C10.66 8.97 11.32 11.94 12 15 C8.68987756 11.68987756 8.49648935 10.46840411 8 6 C6.02 6 4.04 6 2 6 C1.87625 5.360625 1.7525 4.72125 1.625 4.0625 C1.315625 3.0415625 1.315625 3.0415625 1 2 C0.34 1.67 -0.32 1.34 -1 1 C-0.67 0.67 -0.34 0.34 0 0 Z " fill="#B4B7B4" transform="translate(108,27)"/>
<path d="M0 0 C-0.33 1.65 -0.66 3.3 -1 5 C-8.75 5.125 -8.75 5.125 -11 4 C-10 1 -10 1 -8.3125 -0.25 C-5.26772958 -1.23749311 -3.08088616 -0.7002014 0 0 Z " fill="#CACDCA" transform="translate(150,136)"/>
<path d="M0 0 C1.5778125 0.1546875 1.5778125 0.1546875 3.1875 0.3125 C2.9375 2.6875 2.9375 2.6875 2.1875 5.3125 C0.375 6.75 0.375 6.75 -1.8125 7.3125 C-4.0625 6.4375 -4.0625 6.4375 -5.8125 5.3125 C-5.1525 4.6525 -4.4925 3.9925 -3.8125 3.3125 C-5.4625 3.9725 -7.1125 4.6325 -8.8125 5.3125 C-5.88314862 1.76177106 -4.6956049 0.38488565 0 0 Z " fill="#EAEBEB" transform="translate(70.8125,34.6875)"/>
<path d="M0 0 C0.99 0 1.98 0 3 0 C3 3.96 3 7.92 3 12 C-1 10 -1 10 -2.4375 7.6875 C-3 5 -3 5 -1.8125 2.1875 C-1.214375 1.465625 -0.61625 0.74375 0 0 Z " fill="#C3C6C3" transform="translate(50,136)"/>
<path d="M0 0 C3.3125 -0.25 3.3125 -0.25 7 0 C8.9375 1.8125 8.9375 1.8125 10 4 C10 4.99 10 5.98 10 7 C5.48521602 6.46884894 2.65333143 4.63379708 -1 2 C-0.67 1.34 -0.34 0.68 0 0 Z " fill="#C3C6C3" transform="translate(82,35)"/>
<path d="M0 0 C-1.75 3.875 -1.75 3.875 -4 5 C-5.875 5.16796875 -5.875 5.16796875 -8 5.1875 C-9.051875 5.20876953 -9.051875 5.20876953 -10.125 5.23046875 C-12 5 -12 5 -14 3 C-4.58997722 -0.44419134 -4.58997722 -0.44419134 0 0 Z " fill="#DBDDDB" transform="translate(80,167)"/>
<path d="M0 0 C3.10096781 0.34455198 4.79937138 0.84817294 7.3125 2.75 C9.30929204 5.41238939 9.36116409 6.74952319 9 10 C5.17647894 8.4422692 2.70794407 6.08404742 0 3 C0 2.01 0 1.02 0 0 Z " fill="#DADCDA" transform="translate(169,83)"/>
<path d="M0 0 C3 1 3 1 3.9375 2.75 C4 5 4 5 2.25 7.75 C1.5075 8.4925 0.765 9.235 0 10 C-0.99 10 -1.98 10 -3 10 C-3.36923077 3.47692308 -3.36923077 3.47692308 -1.5 1.0625 C-1.005 0.711875 -0.51 0.36125 0 0 Z " fill="#E5E6E5" transform="translate(155,75)"/>
<path d="M0 0 C-0.61277612 2.96175123 -1.25372522 4.38058783 -3 7 C-5.31 6.67 -7.62 6.34 -10 6 C-10 5.34 -10 4.68 -10 4 C-6.32547562 1.1605948 -4.73113419 0 0 0 Z " fill="#CDD0CE" transform="translate(164,118)"/>
<path d="M0 0 C1.9375 0.375 1.9375 0.375 4 1 C5.72209646 4.44419293 5.37733795 8.22662047 5 12 C3.625 15.0625 3.625 15.0625 2 17 C1.34 17 0.68 17 0 17 C0 16.34 0 15.68 0 15 C0.66 15 1.32 15 2 15 C3.17571451 11.32589215 3.07366746 7.83070817 3 4 C2.67 6.64 2.34 9.28 2 12 C1.67 12 1.34 12 1 12 C0.67 9.69 0.34 7.38 0 5 C-0.66 5.66 -1.32 6.32 -2 7 C-1.125 2.25 -1.125 2.25 0 0 Z " fill="#A5A9A5" transform="translate(169,93)"/>
<path d="M0 0 C0.33 1.65 0.66 3.3 1 5 C-2.71599191 5.20086443 -3.77208445 5.1519437 -7 3 C-6.34 4.65 -5.68 6.3 -5 8 C-5.66 8 -6.32 8 -7 8 C-8.35439668 5.29120665 -8.06501451 2.99066732 -8 0 C-4.71023192 -1.09658936 -3.28696233 -0.79953138 0 0 Z " fill="#CCCFCD" transform="translate(173,74)"/>
<path d="M0 0 C0.66 0.33 1.32 0.66 2 1 C1.01 2.485 1.01 2.485 0 4 C0 4.99 0 5.98 0 7 C0.99 5.35 1.98 3.7 3 2 C3 5.38023517 2.12544378 7.83468937 1 11 C1.66 11.33 2.32 11.66 3 12 C2.67 12.66 2.34 13.32 2 14 C3.32 14.99 4.64 15.98 6 17 C1.25 16.125 1.25 16.125 -1 15 C-2.52657208 11.18356979 -2.19181831 7.02818444 -2 3 C-1.34 2.01 -0.68 1.02 0 0 Z " fill="#9EA29E" transform="translate(52,36)"/>
<path d="M0 0 C2.75383923 1.37691962 3.51483101 3.36720042 5 6 C1.1496895 8.56687367 -0.58569763 7.83288724 -5 7 C-4.1875 5.0625 -4.1875 5.0625 -3 3 C-2.01 2.67 -1.02 2.34 0 2 C0 1.34 0 0.68 0 0 Z " fill="#D3D5D3" transform="translate(86,168)"/>
<path d="M0 0 C0.928125 0.20625 1.85625 0.4125 2.8125 0.625 C1.0625 4.5 1.0625 4.5 -1.1875 5.625 C-3.5204866 5.66522391 -5.85456666 5.66820247 -8.1875 5.625 C-6.37307853 1.43787353 -4.89236161 -0.57557195 0 0 Z " fill="#F7F7F7" transform="translate(136.1875,159.375)"/>
<path d="M0 0 C2.35953094 2.35953094 2.49141413 3.77895617 3 7 C3.66 6.67 4.32 6.34 5 6 C4.34 7.32 3.68 8.64 3 10 C1.68 10 0.36 10 -1 10 C-3 8 -3 8 -3.3125 5 C-3.209375 4.01 -3.10625 3.02 -3 2 C-2.01 1.34 -1.02 0.68 0 0 Z " fill="#C2C6C3" transform="translate(46,45)"/>
<path d="M0 0 C1.32 0.33 2.64 0.66 4 1 C3.34 1 2.68 1 2 1 C2.47730838 2.4589426 2.95691042 3.91713496 3.4375 5.375 C3.83775391 6.59316406 3.83775391 6.59316406 4.24609375 7.8359375 C4.95179729 10.01031799 4.95179729 10.01031799 6 12 C4.58480285 14.0343459 3.45017877 14.90410393 1.01953125 15.421875 C-0.98176954 15.66273952 -2.9909944 15.83532741 -5 16 C-3 14 -3 14 0 13 C-0.66 12.34 -1.32 11.68 -2 11 C-0.35 11 1.3 11 3 11 C2.7834375 10.45730469 2.566875 9.91460937 2.34375 9.35546875 C1.92609375 8.28232422 1.92609375 8.28232422 1.5 7.1875 C1.2215625 6.47980469 0.943125 5.77210938 0.65625 5.04296875 C0 3 0 3 0 0 Z " fill="#C3C6C3" transform="translate(72,153)"/>
<path d="M0 0 C1.21236328 0.02707031 1.21236328 0.02707031 2.44921875 0.0546875 C3.37154297 0.08949219 3.37154297 0.08949219 4.3125 0.125 C4.3125 1.445 4.3125 2.765 4.3125 4.125 C2.8754191 4.17922947 1.43774538 4.21789723 0 4.25 C-0.80050781 4.27320313 -1.60101563 4.29640625 -2.42578125 4.3203125 C-4.6875 4.125 -4.6875 4.125 -7.6875 2.125 C-4.48369983 -0.01086678 -3.66810033 -0.10632175 0 0 Z " fill="#EBECEB" transform="translate(141.6875,147.875)"/>
<path d="M0 0 C2.15357027 2.1147672 4.20025378 4.29066049 6.1875 6.5625 C6.71730469 7.16191406 7.24710938 7.76132813 7.79296875 8.37890625 C9 10 9 10 9 12 C9.99 12.33 10.98 12.66 12 13 C13.1875 16.0625 13.1875 16.0625 14 19 C13.34 19 12.68 19 12 19 C10.5625 17.1015625 10.5625 17.1015625 9 14.625 C6.3166743 9.97222558 6.3166743 9.97222558 1.875 7.375 C1.25625 7.25125 0.6375 7.1275 0 7 C0 4.69 0 2.38 0 0 Z " fill="#7B817B" transform="translate(40,134)"/>
<path d="M0 0 C5.61 0 11.22 0 17 0 C17.33 2.64 17.66 5.28 18 8 C16 7 16 7 14 2 C10.04 2 6.08 2 2 2 C1.34 3.32 0.68 4.64 0 6 C0 4.02 0 2.04 0 0 Z " fill="#A0A4A0" transform="translate(78,121)"/>
<path d="M0 0 C0.25 7.625 0.25 7.625 -2 11 C-2.66 11 -3.32 11 -4 11 C-4 10.34 -4 9.68 -4 9 C-4.66 8.67 -5.32 8.34 -6 8 C-3.73913043 0 -3.73913043 0 0 0 Z " fill="#D9DBD9" transform="translate(47,114)"/>
<path d="M0 0 C1.09969293 3.29907878 0.90192008 4.70906261 0.25 8.0625 C0.01023437 9.37927734 0.01023437 9.37927734 -0.234375 10.72265625 C-1 13 -1 13 -4 15 C-5.2188121 18.55672179 -5.2188121 18.55672179 -6 22 C-6.66 21.67 -7.32 21.34 -8 21 C-8.1875 18.6875 -8.1875 18.6875 -8 16 C-7.54496094 15.57589844 -7.08992188 15.15179688 -6.62109375 14.71484375 C-4.38756517 12.35214725 -3.82108514 9.96653805 -2.875 6.875 C-1.08333333 1.08333333 -1.08333333 1.08333333 0 0 Z " fill="#5A605A" transform="translate(38,68)"/>
<path d="M0 0 C0 1.32 0 2.64 0 4 C-1.98 4.99 -3.96 5.98 -6 7 C-6.99 5.35 -7.98 3.7 -9 2 C-5.5647952 -0.29013653 -4.014669 -0.17842973 0 0 Z " fill="#D0D3D1" transform="translate(117,24)"/>
<path d="M0 0 C0.66 0 1.32 0 2 0 C2.57363281 0.61617188 3.14726563 1.23234375 3.73828125 1.8671875 C6.44430301 4.41898004 8.6361266 5.09549102 12.1875 6.125 C14.14137617 6.69675095 16.08456689 7.31032817 18 8 C18.33 8.66 18.66 9.32 19 10 C17.10174715 9.57312017 15.20646817 9.13300518 13.3125 8.6875 C12.25675781 8.44386719 11.20101562 8.20023438 10.11328125 7.94921875 C7.02424372 7.00739175 4.68182036 5.77627063 2 4 C1.34 4.66 0.68 5.32 0 6 C-1.125 2.25 -1.125 2.25 0 0 Z " fill="#959895" transform="translate(79,67)"/>
<path d="M0 0 C2.53552912 1.26776456 2.84919575 2.46823065 4 5 C4.33 5.66 4.66 6.32 5 7 C3 9 3 9 0 10 C-2 8 -2 8 -2.25 5 C-2 2 -2 2 0 0 Z " fill="#B8BBB8" transform="translate(36,60)"/>
<path d="M0 0 C0.268125 0.598125 0.53625 1.19625 0.8125 1.8125 C2.01890616 4.03482713 3.19828317 5.24915518 5 7 C6.26547935 8.31865075 7.51501683 9.65274563 8.75 11 C9.38421875 11.680625 10.0184375 12.36125 10.671875 13.0625 C11.11015625 13.701875 11.5484375 14.34125 12 15 C11.67 15.99 11.34 16.98 11 18 C10.401875 17.21625 9.80375 16.4325 9.1875 15.625 C7.08914751 12.85425677 7.08914751 12.85425677 4 11 C2.97388051 9.34928604 1.97691857 7.68029994 1 6 C-0.31037934 4.31522656 -1.63823078 2.64351457 -3 1 C-2.01 0.67 -1.02 0.34 0 0 Z " fill="#656B65" transform="translate(142,42)"/>
<path d="M0 0 C6.0546875 -0.1953125 6.0546875 -0.1953125 8 0 C8.66 0.66 9.32 1.32 10 2 C8.75579353 2.5345256 7.50429064 3.05208611 6.25 3.5625 C5.55390625 3.85253906 4.8578125 4.14257812 4.140625 4.44140625 C1.69987216 5.07831803 0.3596345 4.80248831 -2 4 C-1.34 2.68 -0.68 1.36 0 0 Z " fill="#E4E5E4" transform="translate(123,27)"/>
<path d="M0 0 C0.66 0.33 1.32 0.66 2 1 C3.19150921 5.36886712 3.021829 7.95634201 1 12 C0.01 12 -0.98 12 -2 12 C-2.05422947 10.5629191 -2.09289723 9.12524538 -2.125 7.6875 C-2.14820312 6.88699219 -2.17140625 6.08648437 -2.1953125 5.26171875 C-2 3 -2 3 0 0 Z " fill="#F2F2F2" transform="translate(30,91)"/>
<path d="M0 0 C1.1875 1.6875 1.1875 1.6875 2 4 C0.625 6.5 0.625 6.5 -1 9 C-1 10.32 -1 11.64 -1 13 C-2.32 12.67 -3.64 12.34 -5 12 C-4.34 10.35 -3.68 8.7 -3 7 C-2.34 7 -1.68 7 -1 7 C-1 6.01 -1 5.02 -1 4 C-1.99 4 -2.98 4 -4 4 C-4 3.01 -4 2.02 -4 1 C-2 0 -2 0 0 0 Z " fill="#7D837E" transform="translate(158,131)"/>
<path d="M0 0 C1.32 0 2.64 0 4 0 C4 0.99 4 1.98 4 3 C4.99 3 5.98 3 7 3 C7 3.99 7 4.98 7 6 C6.34 6 5.68 6 5 6 C5 6.66 5 7.32 5 8 C4.34 8 3.68 8 3 8 C2.67 7.34 2.34 6.68 2 6 C1.01 6.495 1.01 6.495 0 7 C0 6.01 0 5.02 0 4 C-1.65 4 -3.3 4 -5 4 C-5 3.67 -5 3.34 -5 3 C-1.535 2.505 -1.535 2.505 2 2 C1.34 1.34 0.68 0.68 0 0 Z " fill="#B0B3B0" transform="translate(150,132)"/>
<path d="M0 0 C1.98 0 3.96 0 6 0 C6.625 2.3125 6.625 2.3125 7 5 C6.01 6.485 6.01 6.485 5 8 C4.34 8 3.68 8 3 8 C2.67 6.35 2.34 4.7 2 3 C1.34 3 0.68 3 0 3 C0 2.01 0 1.02 0 0 Z " fill="#C3C6C3" transform="translate(160,131)"/>
<path d="M0 0 C0.99 0 1.98 0 3 0 C3.625 3.375 3.625 3.375 4 7 C3.34 7.66 2.68 8.32 2 9 C1.67 8.01 1.34 7.02 1 6 C0.01 6.99 -0.98 7.98 -2 9 C-3 6 -3 6 -1.5625 2.8125 C-1.046875 1.884375 -0.53125 0.95625 0 0 Z " fill="#CACDCB" transform="translate(148,152)"/>
<path d="M0 0 C0.66 0 1.32 0 2 0 C1.85892253 1.45880109 1.71197585 2.91703551 1.5625 4.375 C1.48128906 5.18710938 1.40007812 5.99921875 1.31640625 6.8359375 C1 9 1 9 0 11 C2.64 11.66 5.28 12.32 8 13 C8 13.33 8 13.66 8 14 C5.36 14 2.72 14 0 14 C-1.86987216 10.26025568 -1.30641834 5.53209172 -0.5 1.5 C-0.335 1.005 -0.17 0.51 0 0 Z " fill="#B3B7B3" transform="translate(66,94)"/>
<path d="M0 0 C0.66 0.66 1.32 1.32 2 2 C0.9275 2.12375 -0.145 2.2475 -1.25 2.375 C-4.84683029 2.7855624 -4.84683029 2.7855624 -7.25 4.125 C-7.8275 4.41375 -8.405 4.7025 -9 5 C-12 4 -12 4 -14 3 C-9.08953041 0.59487204 -5.59608536 -0.54863582 0 0 Z " fill="#F2F3F2" transform="translate(96,102)"/>
<path d="M0 0 C0.99 0 1.98 0 3 0 C3 0.66 3 1.32 3 2 C2.01 2 1.02 2 0 2 C0.33 3.32 0.66 4.64 1 6 C-1.64 6.66 -4.28 7.32 -7 8 C-7.33 7.01 -7.66 6.02 -8 5 C-6.865625 4.731875 -5.73125 4.46375 -4.5625 4.1875 C-3.386875 3.795625 -2.21125 3.40375 -1 3 C-0.67 2.01 -0.34 1.02 0 0 Z " fill="#8F9390" transform="translate(131,102)"/>
<path d="M0 0 C0.6796875 1.765625 0.6796875 1.765625 1 4 C-0.1796875 5.921875 -0.1796875 5.921875 -1.875 7.75 C-2.70644531 8.67039062 -2.70644531 8.67039062 -3.5546875 9.609375 C-5 11 -5 11 -6 11 C-6.36923077 5.46153846 -6.36923077 5.46153846 -4.5 3.125 C-4.005 2.75375 -3.51 2.3825 -3 2 C-3 3.32 -3 4.64 -3 6 C-2.01 4.02 -1.02 2.04 0 0 Z " fill="#F5F6F6" transform="translate(166,85)"/>
<path d="M0 0 C6.27 0 12.54 0 19 0 C18.34 1.65 17.68 3.3 17 5 C16.34 4.01 15.68 3.02 15 2 C12.43712888 1.59681752 12.43712888 1.59681752 9.5625 1.75 C8.59441406 1.76546875 7.62632813 1.7809375 6.62890625 1.796875 C3.89142546 1.90163323 3.89142546 1.90163323 1 3 C0.67 2.01 0.34 1.02 0 0 Z " fill="#727873" transform="translate(89,168)"/>
<path d="M0 0 C1.93798521 0.30947671 3.87537426 0.62268834 5.8125 0.9375 C6.89144531 1.11152344 7.97039063 1.28554688 9.08203125 1.46484375 C12 2 12 2 15 3 C14.67 4.32 14.34 5.64 14 7 C13.01 6.67 12.02 6.34 11 6 C11.66 6 12.32 6 13 6 C13 5.34 13 4.68 13 4 C9.04 3.67 5.08 3.34 1 3 C0.67 2.01 0.34 1.02 0 0 Z " fill="#BFC2BF" transform="translate(54,45)"/>
<path d="M0 0 C3.0625 0.1875 3.0625 0.1875 5.0625 2.1875 C3.4125 2.1875 1.7625 2.1875 0.0625 2.1875 C1.3825 3.1775 2.7025 4.1675 4.0625 5.1875 C3.0725 5.1875 2.0825 5.1875 1.0625 5.1875 C1.0625 5.8475 1.0625 6.5075 1.0625 7.1875 C0.0725 6.8575 -0.9175 6.5275 -1.9375 6.1875 C-3.125 3.625 -3.125 3.625 -3.9375 1.1875 C-2.9375 0.1875 -2.9375 0.1875 0 0 Z " fill="#A3A6A3" transform="translate(131.9375,33.8125)"/>
<path d="M0 0 C2.31 0.33 4.62 0.66 7 1 C6.67 2.65 6.34 4.3 6 6 C4.35 5.67 2.7 5.34 1 5 C0.67 3.35 0.34 1.7 0 0 Z " fill="#C7CAC7" transform="translate(34,135)"/>
<path d="M0 0 C-3.79163027 2.52775351 -6.80874031 2.22443035 -11.1875 2.125 C-11.93708984 2.11597656 -12.68667969 2.10695313 -13.45898438 2.09765625 C-15.30612654 2.07412578 -17.15310412 2.03825561 -19 2 C-19 1.67 -19 1.34 -19 1 C-12.31349436 -0.48725585 -6.76106962 -1.27567351 0 0 Z " fill="#F4F5F5" transform="translate(85,107)"/>
<path d="M0 0 C0.66 0.33 1.32 0.66 2 1 C2.625 3.0625 2.625 3.0625 3 5 C0 7 0 7 -4 7 C-3.43628586 3.73045798 -2.50037734 2.17424117 0 0 Z " fill="#CCCECC" transform="translate(103,169)"/>
<path d="M0 0 C0.33 0 0.66 0 1 0 C1.05395478 1.62463842 1.09277195 3.24978541 1.125 4.875 C1.14820313 5.77992188 1.17140625 6.68484375 1.1953125 7.6171875 C1 10 1 10 -1 12 C-2.32 12 -3.64 12 -5 12 C-5 11.01 -5 10.02 -5 9 C-4.01 9 -3.02 9 -2 9 C-1.34 6.03 -0.68 3.06 0 0 Z " fill="#E9EAE9" transform="translate(149,153)"/>
<path d="M0 0 C0.36923077 7.50769231 0.36923077 7.50769231 -1.5 10 C-1.995 10.33 -2.49 10.66 -3 11 C-2.67 9.35 -2.34 7.7 -2 6 C-2.99 6.495 -2.99 6.495 -4 7 C-4 6.34 -4 5.68 -4 5 C-4.99 5.33 -5.98 5.66 -7 6 C-5.81636731 2.44910192 -3.99368042 0 0 0 Z " fill="#CACCCA" transform="translate(41,102)"/>
<path d="M0 0 C1.09570312 0.00902344 2.19140625 0.01804687 3.3203125 0.02734375 C4.16335937 0.03894531 5.00640625 0.05054687 5.875 0.0625 C4.885 1.5475 4.885 1.5475 3.875 3.0625 C1.5625 3.42578125 1.5625 3.42578125 -1.125 3.375 C-2.011875 3.37113281 -2.89875 3.36726563 -3.8125 3.36328125 C-6.125 3.0625 -6.125 3.0625 -8.125 1.0625 C-5.36047967 -0.31976016 -3.0788637 -0.03275387 0 0 Z " fill="#BFC2BF" transform="translate(102.125,103.9375)"/>
<path d="M0 0 C1.0828125 0.4640625 1.0828125 0.4640625 2.1875 0.9375 C4.80307309 1.92560539 7.25118982 2.5287754 10 3 C7.75502779 5.24497221 7.03972651 5.37003419 4 5.75 C3.29875 5.84796875 2.5975 5.9459375 1.875 6.046875 C0 6 0 6 -2 4 C-1.34 3.67 -0.68 3.34 0 3 C0 2.01 0 1.02 0 0 Z " fill="#A8ACA8" transform="translate(71,100)"/>
<path d="M0 0 C2.64 0 5.28 0 8 0 C6.02 0.99 6.02 0.99 4 2 C4.30035156 2.55429687 4.60070312 3.10859375 4.91015625 3.6796875 C5.29042969 4.40414062 5.67070312 5.12859375 6.0625 5.875 C6.63677734 6.95394531 6.63677734 6.95394531 7.22265625 8.0546875 C7.47917969 8.69664063 7.73570312 9.33859375 8 10 C7.67 10.66 7.34 11.32 7 12 C5.83061933 10.18924982 4.66456267 8.37635257 3.5 6.5625 C2.8503125 5.55316406 2.200625 4.54382812 1.53125 3.50390625 C0 1 0 1 0 0 Z " fill="#878C88" transform="translate(154,59)"/>
<path d="M0 0 C2.97 0 5.94 0 9 0 C7.38405168 2.04119788 5.7143618 4.04072937 4 6 C3.34 6 2.68 6 2 6 C2 4.35 2 2.7 2 1 C1.34 0.67 0.68 0.34 0 0 Z " fill="#BCC0BD" transform="translate(115,167)"/>
<path d="M0 0 C0 0.66 0 1.32 0 2 C-7.92 2.495 -7.92 2.495 -16 3 C-14.68 2.34 -13.36 1.68 -12 1 C-11.236875 0.608125 -10.47375 0.21625 -9.6875 -0.1875 C-6.19321224 -1.24391258 -3.54262105 -0.69463158 0 0 Z " fill="#515851" transform="translate(124,165)"/>
<path d="M0 0 C2 3 2 3 2 7 C3.65 7 5.3 7 7 7 C7 7.33 7 7.66 7 8 C4.36 8.33 1.72 8.66 -1 9 C-1 8.34 -1 7.68 -1 7 C-1.99 7 -2.98 7 -4 7 C-4 6.34 -4 5.68 -4 5 C-3.01 4.67 -2.02 4.34 -1 4 C-0.26676204 1.98491642 -0.26676204 1.98491642 0 0 Z " fill="#858A85" transform="translate(81,160)"/>
<path d="M0 0 C3.875 0.875 3.875 0.875 5 2 C5.04080783 3.99958364 5.04254356 6.00045254 5 8 C3.02 8.99 3.02 8.99 1 10 C1.03255208 7.98177083 1.06510417 5.96354167 1.09765625 3.9453125 C1.12649242 1.91814596 1.12649242 1.91814596 0 0 Z " fill="#202421" transform="translate(131,123)"/>
<path d="M0 0 C0 3 0 3 -1 6 C-3.5625 7.1875 -3.5625 7.1875 -6 8 C-6.33 7.34 -6.66 6.68 -7 6 C-6.34 5.67 -5.68 5.34 -5 5 C-5 4.34 -5 3.68 -5 3 C-5.99 2.34 -6.98 1.68 -8 1 C-6.865625 1.020625 -5.73125 1.04125 -4.5625 1.0625 C-1.18424326 1.41577477 -1.18424326 1.41577477 0 0 Z " fill="#838883" transform="translate(151,146)"/>
<path d="M0 0 C1.32 0.66 2.64 1.32 4 2 C4 2.99 4 3.98 4 5 C4.66 5.33 5.32 5.66 6 6 C5.34 6.66 4.68 7.32 4 8 C1.375 7.625 1.375 7.625 -1 7 C-0.67 4.69 -0.34 2.38 0 0 Z " fill="#8A8E8B" transform="translate(67,98)"/>
<path d="M0 0 C0.99 0.33 1.98 0.66 3 1 C2.88601335 2.62580966 2.75844341 4.25067157 2.625 5.875 C2.52058594 7.23238281 2.52058594 7.23238281 2.4140625 8.6171875 C2 11 2 11 0 13 C-0.19397476 11.02145742 -0.38001321 9.0421352 -0.5625 7.0625 C-0.66691406 5.96035156 -0.77132812 4.85820313 -0.87890625 3.72265625 C-0.91886719 2.82417969 -0.95882812 1.92570312 -1 1 C-0.67 0.67 -0.34 0.34 0 0 Z " fill="#969996" transform="translate(75,77)"/>
<path d="M0 0 C5.75 0.875 5.75 0.875 8 2 C7.67 2.99 7.34 3.98 7 5 C4.9375 5.6875 4.9375 5.6875 3 6 C2.01 4.02 1.02 2.04 0 0 Z " fill="#B2B5B2" transform="translate(145,46)"/>
<path d="M0 0 C0.78375 0.04125 1.5675 0.0825 2.375 0.125 C2.1875 2 2.1875 2 1.375 4.125 C-1.1875 5.375 -1.1875 5.375 -3.625 6.125 C-4.25 4.25 -4.25 4.25 -4.625 2.125 C-2.625 0.125 -2.625 0.125 0 0 Z " fill="#C6C9C6" transform="translate(97.625,24.875)"/>
<path d="M0 0 C1.4800841 0.11362262 2.95910074 0.24122908 4.4375 0.375 C5.26121094 0.44460937 6.08492187 0.51421875 6.93359375 0.5859375 C7.95646484 0.79089844 7.95646484 0.79089844 9 1 C9.33 1.66 9.66 2.32 10 3 C7.69 3 5.38 3 3 3 C2.67 3.99 2.34 4.98 2 6 C1.34 4.02 0.68 2.04 0 0 Z " fill="#959A96" transform="translate(162,71)"/>
<path d="M0 0 C0.33 1.98 0.66 3.96 1 6 C-0.98 6 -2.96 6 -5 6 C-5 3 -5 3 -3.625 1.3125 C-2 0 -2 0 0 0 Z " fill="#C0C3C0" transform="translate(82,28)"/>
<path d="M0 0 C0.66 0.33 1.32 0.66 2 1 C2 2.32 2 3.64 2 5 C1.21625 4.95875 0.4325 4.9175 -0.375 4.875 C-3.16116119 4.71271266 -3.16116119 4.71271266 -5 7 C-5 6.34 -5 5.68 -5 5 C-5.99 4.67 -6.98 4.34 -8 4 C-6.71349294 3.30289269 -5.42059335 2.61757124 -4.125 1.9375 C-3.40570313 1.55464844 -2.68640625 1.17179687 -1.9453125 0.77734375 C-1.30335938 0.52082031 -0.66140625 0.26429687 0 0 Z " fill="#E2E3E2" transform="translate(134,98)"/>
<path d="M0 0 C0.66 0.33 1.32 0.66 2 1 C2.625 3.0625 2.625 3.0625 3 5 C0 7 0 7 -3 7 C-2.38722388 4.03824877 -1.74627478 2.61941217 0 0 Z " fill="#CBCDCB" transform="translate(152,67)"/>
<path d="M0 0 C3.96 0 7.92 0 12 0 C11.67 0.66 11.34 1.32 11 2 C7.01624339 3.17169312 3.12560776 3.08089427 -1 3 C-0.67 2.01 -0.34 1.02 0 0 Z " fill="#4D544D" transform="translate(76,33)"/>
<path d="M0 0 C1.98 0.66 3.96 1.32 6 2 C5.01 3.485 5.01 3.485 4 5 C2.68 4.01 1.36 3.02 0 2 C0.66 4.97 1.32 7.94 2 11 C-1 8 -1 8 -1.25 4.375 C-1 1 -1 1 0 0 Z " fill="#808681" transform="translate(118,31)"/>
<path d="M0 0 C1.890625 0.24609375 1.890625 0.24609375 4 1 C5.046875 2.84765625 5.046875 2.84765625 5.75 5.0625 C5.99234375 5.79597656 6.2346875 6.52945313 6.484375 7.28515625 C6.65453125 7.85105469 6.8246875 8.41695312 7 9 C3.17475764 7.549046 1.80909034 5.61818068 0 2 C0 1.34 0 0.68 0 0 Z " fill="#CCCECC" transform="translate(40,132)"/>
<path d="M0 0 C0.99 0.495 0.99 0.495 2 1 C2 1.66 2 2.32 2 3 C2.99 3 3.98 3 5 3 C5.33 2.34 5.66 1.68 6 1 C6.66 1 7.32 1 8 1 C8.33 2.32 8.66 3.64 9 5 C7.824375 4.9690625 7.824375 4.9690625 6.625 4.9375 C4.01885039 4.81315937 4.01885039 4.81315937 2 6 C0 3 0 3 0 0 Z " fill="#868B86" transform="translate(37,128)"/>
<path d="M0 0 C-0.56371414 3.26954202 -1.49962266 4.82575883 -4 7 C-4.66 5.35 -5.32 3.7 -6 2 C-3 0 -3 0 0 0 Z " fill="#C9CCC9" transform="translate(50,126)"/>
<path d="M0 0 C2.89932357 2.39509338 3.50168276 4.31245243 4 8 C3.01 8 2.02 8 1 8 C0.26919734 6.02253397 -0.39421747 4.01927511 -1 2 C-0.67 1.34 -0.34 0.68 0 0 Z " fill="#858986" transform="translate(131,85)"/>
<path d="M0 0 C0.99 0.66 1.98 1.32 3 2 C3 2.99 3 3.98 3 5 C0.69 4.67 -1.62 4.34 -4 4 C-4 3.34 -4 2.68 -4 2 C-2.68 1.34 -1.36 0.68 0 0 Z " fill="#CCCFCC" transform="translate(162,59)"/>
<path d="M0 0 C2.0625 0.4375 2.0625 0.4375 4 1 C4 2.98 4 4.96 4 7 C2.0625 6.25 2.0625 6.25 0 5 C-0.8125 2.9375 -0.8125 2.9375 -1 1 C-0.67 0.67 -0.34 0.34 0 0 Z " fill="#C7CAC7" transform="translate(98,37)"/>
<path d="M0 0 C0 1.65 0 3.3 0 5 C-0.99 5 -1.98 5 -3 5 C-3.66 6.98 -4.32 8.96 -5 11 C-5.33 11 -5.66 11 -6 11 C-6.3125 8.3125 -6.3125 8.3125 -6 5 C-1.76086957 0 -1.76086957 0 0 0 Z " fill="#F4F5F5" transform="translate(57,35)"/>
<path d="M0 0 C2.5654594 2.5654594 2.54046087 4.47686668 3 8 C0.13275314 7.42655063 -0.8614515 7.1385485 -3 5 C-2.34 5 -1.68 5 -1 5 C-0.67 3.35 -0.34 1.7 0 0 Z " fill="#B8BCB8" transform="translate(169,113)"/>
<path d="M0 0 C2.46800047 1.15173355 4.04783565 2.04783565 6 4 C4.35 5.32 2.7 6.64 1 8 C0.67 5.36 0.34 2.72 0 0 Z " fill="#B9BDB9" transform="translate(28,77)"/>
<path d="M0 0 C2.95183101 2.95183101 3.08663988 5.95511947 4 10 C3.01 10.33 2.02 10.66 1 11 C0.01 10.01 -0.98 9.02 -2 8 C-0.68 8.33 0.64 8.66 2 9 C1.67 8.2575 1.34 7.515 1 6.75 C0 4 0 4 0 0 Z " fill="#CED1CF" transform="translate(124,36)"/>
<path d="M0 0 C1.65 0 3.3 0 5 0 C5.33 1.65 5.66 3.3 6 5 C4.35 4.67 2.7 4.34 1 4 C0.67 2.68 0.34 1.36 0 0 Z " fill="#DDDFDE" transform="translate(133,39)"/>
<path d="M0 0 C0.33 0.99 0.66 1.98 1 3 C1.66 3.66 2.32 4.32 3 5 C1.68 5 0.36 5 -1 5 C-1.33 5.66 -1.66 6.32 -2 7 C-2 6.34 -2 5.68 -2 5 C-2.66 4.67 -3.32 4.34 -4 4 C-4 3.01 -4 2.02 -4 1 C-2.68 0.67 -1.36 0.34 0 0 Z " fill="#C0C3C0" transform="translate(105,32)"/>
<path d="M0 0 C1.32 0.66 2.64 1.32 4 2 C3.67 3.32 3.34 4.64 3 6 C1.68 6.33 0.36 6.66 -1 7 C-1.66 5.68 -2.32 4.36 -3 3 C-1.68 2.67 -0.36 2.34 1 2 C0.67 1.34 0.34 0.68 0 0 Z " fill="#C9CCC9" transform="translate(91,156)"/>
<path d="M0 0 C-0.33 0.99 -0.66 1.98 -1 3 C-4.5625 4.1875 -4.5625 4.1875 -8 5 C-7.6875 3.0625 -7.6875 3.0625 -7 1 C-4 0 -4 0 0 0 Z " fill="#777A77" transform="translate(124,108)"/>
<path d="M0 0 C1.27875 -0.061875 2.5575 -0.12375 3.875 -0.1875 C4.95394531 -0.23970703 4.95394531 -0.23970703 6.0546875 -0.29296875 C6.69664063 -0.19628906 7.33859375 -0.09960938 8 0 C8.66 0.99 9.32 1.98 10 3 C7.36 3.33 4.72 3.66 2 4 C1.34 2.68 0.68 1.36 0 0 Z " fill="#D3D6D3" transform="translate(80,105)"/>
<path d="M0 0 C-2 2 -2 2 -4.1640625 2.1953125 C-5.38222656 2.16050781 -5.38222656 2.16050781 -6.625 2.125 C-7.44226563 2.10695312 -8.25953125 2.08890625 -9.1015625 2.0703125 C-9.72804688 2.04710937 -10.35453125 2.02390625 -11 2 C-10.67 1.34 -10.34 0.68 -10 0 C-6.35526801 -0.89093449 -3.57257469 -1.23666047 0 0 Z " fill="#CFD1CF" transform="translate(100,33)"/>
<path d="M0 0 C3.63 0 7.26 0 11 0 C9.515 1.485 9.515 1.485 8 3 C5.15124622 2.79846293 2.74900747 1.85624823 0 1 C0 0.67 0 0.34 0 0 Z " fill="#737673" transform="translate(80,112)"/>
<path d="M0 0 C3 2 3 2 3.51171875 4.1640625 C3.56972656 4.97617188 3.62773437 5.78828125 3.6875 6.625 C3.75324219 7.44226563 3.81898438 8.25953125 3.88671875 9.1015625 C3.92410156 9.72804688 3.96148437 10.35453125 4 11 C3.01 10.67 2.02 10.34 1 10 C1.020625 8.906875 1.04125 7.81375 1.0625 6.6875 C1.18544452 3.05615809 1.18544452 3.05615809 0 0 Z " fill="#CCCECC" transform="translate(176,85)"/>
<path d="M0 0 C2.67576692 1.00617682 3.7785108 1.54214546 5.046875 4.1640625 C5.27890625 4.97617187 5.5109375 5.78828125 5.75 6.625 C5.99234375 7.44226562 6.2346875 8.25953125 6.484375 9.1015625 C6.73960938 10.04128906 6.73960938 10.04128906 7 11 C6.01 10.67 5.02 10.34 4 10 C3.896875 9.278125 3.79375 8.55625 3.6875 7.8125 C2.94013068 4.75508007 1.71954811 2.61670365 0 0 Z " fill="#F8F8F8" transform="translate(119,34)"/>
<path d="M0 0 C0.78375 0.04125 1.5675 0.0825 2.375 0.125 C1.055 0.455 -0.265 0.785 -1.625 1.125 C-1.295 2.115 -0.965 3.105 -0.625 4.125 C-1.285 4.785 -1.945 5.445 -2.625 6.125 C-3.615 6.125 -4.605 6.125 -5.625 6.125 C-4.86443086 2.32215429 -4.27658992 0.20364714 0 0 Z " fill="#888D88" transform="translate(102.625,31.875)"/>
<path d="M0 0 C0.99 0 1.98 0 3 0 C3 2.64 3 5.28 3 8 C3.66 8.33 4.32 8.66 5 9 C4.01 9.33 3.02 9.66 2 10 C1.34 6.7 0.68 3.4 0 0 Z " fill="#C1C3C1" transform="translate(152,144)"/>
<path d="M0 0 C2.31 0.66 4.62 1.32 7 2 C7 2.66 7 3.32 7 4 C4.69 4 2.38 4 0 4 C0 2.66666667 0 1.33333333 0 0 Z " fill="#8D928D" transform="translate(30,124)"/>
<path d="M0 0 C0.33 0 0.66 0 1 0 C0.67 3.3 0.34 6.6 0 10 C-1.32 9.34 -2.64 8.68 -4 8 C-3.34 8 -2.68 8 -2 8 C-1.34 5.36 -0.68 2.72 0 0 Z " fill="#6B706B" transform="translate(168,108)"/>
<path d="M0 0 C0.99 0.33 1.98 0.66 3 1 C2.67 1.66 2.34 2.32 2 3 C3.98 5.97 3.98 5.97 6 9 C3.525 8.01 3.525 8.01 1 7 C0.67 4.69 0.34 2.38 0 0 Z " fill="#F7F7F7" transform="translate(22,106)"/>
<path d="M0 0 C1.875 0.3125 1.875 0.3125 4 1 C6.1519437 4.22791555 6.20086443 5.28400809 6 9 C5.01 8.67 4.02 8.34 3 8 C2.814375 6.8553125 2.814375 6.8553125 2.625 5.6875 C2.11897208 2.79732864 2.11897208 2.79732864 0 0 Z " fill="#F6F7F7" transform="translate(172,84)"/>
<path d="M0 0 C0.99 0.495 0.99 0.495 2 1 C2 1.66 2 2.32 2 3 C2.99 3.33 3.98 3.66 5 4 C6.1875 7.0625 6.1875 7.0625 7 10 C6.34 10 5.68 10 5 10 C3.7109375 8.3203125 3.7109375 8.3203125 2.375 6.125 C1.92898437 5.40570313 1.48296875 4.68640625 1.0234375 3.9453125 C0 2 0 2 0 0 Z " fill="#3D463E" transform="translate(47,143)"/>
<path d="M0 0 C0.33 0 0.66 0 1 0 C1.29296875 6.0546875 1.29296875 6.0546875 1 8 C0.01 8.66 -0.98 9.32 -2 10 C-2 8.02 -2 6.04 -2 4 C-1.34 4 -0.68 4 0 4 C0 2.68 0 1.36 0 0 Z " fill="#3C413D" transform="translate(117,128)"/>
<path d="M0 0 C-0.33 0.66 -0.66 1.32 -1 2 C-4.0625 2.625 -4.0625 2.625 -7 3 C-7 2.01 -7 1.02 -7 0 C-3.86650268 -1.04449911 -3.01031744 -0.93423645 0 0 Z " fill="#767976" transform="translate(138,104)"/>
<path d="M0 0 C-0.33 0.99 -0.66 1.98 -1 3 C-3.64 2.67 -6.28 2.34 -9 2 C-5.5647952 -0.29013653 -4.014669 -0.17842973 0 0 Z " fill="#F7F7F7" transform="translate(129,103)"/>
<path d="M0 0 C0.33 0 0.66 0 1 0 C1 2.31 1 4.62 1 7 C1.66 7.33 2.32 7.66 3 8 C1.68 8.33 0.36 8.66 -1 9 C-1.125 2.25 -1.125 2.25 0 0 Z " fill="#CCCECC" transform="translate(153,76)"/>
<path d="M0 0 C1.98 0.99 3.96 1.98 6 3 C6 3.99 6 4.98 6 6 C4.125 5.8125 4.125 5.8125 2 5 C0.75 2.4375 0.75 2.4375 0 0 Z " fill="#D9DAD9" transform="translate(80,70)"/>
<path d="M0 0 C0.66 0.66 1.32 1.32 2 2 C1.625 5.125 1.625 5.125 1 8 C0.01 7.34 -0.98 6.68 -2 6 C-1.125 1.125 -1.125 1.125 0 0 Z " fill="#E3E4E3" transform="translate(45,47)"/>
<path d="M0 0 C1.69141656 0.08963062 3.37959602 0.24577676 5.0625 0.4375 C6.44115234 0.59025391 6.44115234 0.59025391 7.84765625 0.74609375 C8.55792969 0.82988281 9.26820312 0.91367187 10 1 C4.57824803 3.75049213 4.57824803 3.75049213 2 4 C0.25 2.5625 0.25 2.5625 -1 1 C-0.67 0.67 -0.34 0.34 0 0 Z " fill="#D4D6D4" transform="translate(54,48)"/>
<path d="M0 0 C1.875 -0.36328125 1.875 -0.36328125 4 -0.3125 C4.70125 -0.30863281 5.4025 -0.30476563 6.125 -0.30078125 C8 0 8 0 10 2 C8.68 2.33 7.36 2.66 6 3 C6 2.34 6 1.68 6 1 C3.36 1.66 0.72 2.32 -2 3 C-1.34 2.01 -0.68 1.02 0 0 Z " fill="#F6F6F6" transform="translate(123,27)"/>
<path d="M0 0 C0 0.99 0 1.98 0 3 C-1.98 3.99 -1.98 3.99 -4 5 C-4.99 4.34 -5.98 3.68 -7 3 C-4.69 2.01 -2.38 1.02 0 0 Z " fill="#DCDEDC" transform="translate(138,160)"/>
<path d="M0 0 C-0.66 0.66 -1.32 1.32 -2 2 C-2 2.33 -2 2.66 -2 3 C-3.65 3 -5.3 3 -7 3 C-7.33 2.34 -7.66 1.68 -8 1 C-4.93251126 -0.86240388 -3.40254489 -1.2151946 0 0 Z " fill="#F3F4F4" transform="translate(149,137)"/>
<path d="M0 0 C0.33 0 0.66 0 1 0 C1 2.64 1 5.28 1 8 C-0.98 8 -2.96 8 -5 8 C-4.01 7.34 -3.02 6.68 -2 6 C-0.78715124 2.94570927 -0.78715124 2.94570927 0 0 Z " fill="#727572" transform="translate(79,134)"/>
<path d="M0 0 C0.66 1.32 1.32 2.64 2 4 C-1 5 -1 5 -4 4 C-4 3.01 -4 2.02 -4 1 C-2 0 -2 0 0 0 Z " fill="#888E89" transform="translate(158,131)"/>
<path d="M0 0 C0.28875 0.639375 0.5775 1.27875 0.875 1.9375 C1.82823451 4.15206079 1.82823451 4.15206079 4 5 C3.67 5.99 3.34 6.98 3 8 C1.68 7.34 0.36 6.68 -1 6 C-0.67 4.02 -0.34 2.04 0 0 Z " fill="#A3A7A3" transform="translate(41,119)"/>
<path d="M0 0 C2 0 2 0 4.5625 2.3125 C7 5 7 5 8 8 C7.01 8 6.02 8 5 8 C3.61328125 6.50390625 3.61328125 6.50390625 2.3125 4.5625 C1.87550781 3.92441406 1.43851563 3.28632812 0.98828125 2.62890625 C0 1 0 1 0 0 Z " fill="#CACDCB" transform="translate(23,108)"/>
<path d="M0 0 C0.598125 0.350625 1.19625 0.70125 1.8125 1.0625 C1.8125 1.7225 1.8125 2.3825 1.8125 3.0625 C-0.1675 3.0625 -2.1475 3.0625 -4.1875 3.0625 C-4.5175 2.0725 -4.8475 1.0825 -5.1875 0.0625 C-2.1875 -0.9375 -2.1875 -0.9375 0 0 Z " fill="#CCCECC" transform="translate(51.1875,66.9375)"/>
<path d="M0 0 C4.875 4.75 4.875 4.75 6 7 C4.35 7.33 2.7 7.66 1 8 C-0.35439668 5.29120665 -0.06501451 2.99066732 0 0 Z " fill="#A2A7A3" transform="translate(42,49)"/>
<path d="M0 0 C0.99 0 1.98 0 3 0 C3 0.66 3 1.32 3 2 C6.465 1.505 6.465 1.505 10 1 C9.67 1.66 9.34 2.32 9 3 C2.9453125 3.1953125 2.9453125 3.1953125 1 3 C0.34 2.34 -0.32 1.68 -1 1 C-0.67 0.67 -0.34 0.34 0 0 Z " fill="#F7F7F7" transform="translate(67,169)"/>
<path d="M0 0 C2.31 0.66 4.62 1.32 7 2 C7 2.33 7 2.66 7 3 C5.02 3.33 3.04 3.66 1 4 C0.34 3.01 -0.32 2.02 -1 1 C-0.67 0.67 -0.34 0.34 0 0 Z " fill="#D3D5D3" transform="translate(148,129)"/>
<path d="M0 0 C-2 2 -2 2 -3.9453125 2.1953125 C-5.96354167 2.13020833 -7.98177083 2.06510417 -10 2 C-6.16991045 -0.55339303 -4.41711378 -1.47237126 0 0 Z " fill="#C7CAC7" transform="translate(98,109)"/>
<path d="M0 0 C0.33 0 0.66 0 1 0 C1 3.3 1 6.6 1 10 C-0.9451 7.08235 -1.45276317 5.37462715 -2 2 C-1.34 2 -0.68 2 0 2 C0 1.34 0 0.68 0 0 Z " fill="#898C89" transform="translate(101,92)"/>
<path d="M0 0 C0.66 1.32 1.32 2.64 2 4 C1.01 4.495 1.01 4.495 0 5 C-0.33 5.66 -0.66 6.32 -1 7 C-1.66 7 -2.32 7 -3 7 C-1.125 1.125 -1.125 1.125 0 0 Z " fill="#DCDEDC" transform="translate(42,64)"/>
<path d="M0 0 C0.99 0 1.98 0 3 0 C1.68775452 3.93673644 0.08089673 6.22719294 -3 9 C-2.01 6.03 -1.02 3.06 0 0 Z " fill="#7B807B" transform="translate(44,56)"/>
<path d="M0 0 C0.99 0.99 1.98 1.98 3 3 C2.67 3.99 2.34 4.98 2 6 C0.35 4.35 -1.3 2.7 -3 1 C-2.01 0.67 -1.02 0.34 0 0 Z " fill="#F5F6F6" transform="translate(109,39)"/>
</svg>
