<?xml version="1.0" encoding="UTF-8"?>
<svg version="1.1" xmlns="http://www.w3.org/2000/svg" width="200" height="200">
<path d="M0 0 C66 0 132 0 200 0 C200 66 200 132 200 200 C134 200 68 200 0 200 C0 134 0 68 0 0 Z " fill="#FEFEFE" transform="translate(0,0)"/>
<path d="M0 0 C15.51 0 31.02 0 47 0 C47 15.51 47 31.02 47 47 C31.49 47 15.98 47 0 47 C0 31.49 0 15.98 0 0 Z " fill="#070707" transform="translate(48,77)"/>
<path d="M0 0 C15.51 0 31.02 0 47 0 C47 12.54 47 25.08 47 38 C35.12 38 23.24 38 11 38 C11 40.97 11 43.94 11 47 C7.37 47 3.74 47 0 47 C0 31.49 0 15.98 0 0 Z " fill="#050505" transform="translate(102,77)"/>
<path d="M0 0 C8.25 0 16.5 0 25 0 C25 8.25 25 16.5 25 25 C16.75 25 8.5 25 0 25 C0 16.75 0 8.5 0 0 Z " fill="#F4F4F4" transform="translate(59,88)"/>
<path d="M0 0 C8.25 0 16.5 0 25 0 C25 5.28 25 10.56 25 16 C16.75 16 8.5 16 0 16 C0 10.72 0 5.44 0 0 Z " fill="#F4F4F4" transform="translate(113,88)"/>
</svg>
